<svg width="566" height="425" viewBox="0 0 566 425" fill="none" xmlns="http://www.w3.org/2000/svg">
<g clip-path="url(#clip0_1_663)">
<path d="M141.778 342.522C130.246 333.644 79.3673 292.306 74.113 232.466C66.7408 148.523 155.145 96.0972 179.394 81.6944C234.994 48.7427 368.641 -0.986973 453.371 73.2983C521.234 132.798 515.904 242.231 473.945 304.838C404.798 408 233.291 412.968 141.778 342.522Z" fill="#EFF5F9"/>
<path d="M451.545 196.081H422.826C422.305 196.081 421.882 196.504 421.882 197.025V208.798C421.882 209.319 422.305 209.742 422.826 209.742H451.545C452.066 209.742 452.489 209.319 452.489 208.798V197.025C452.489 196.504 452.066 196.081 451.545 196.081Z" stroke="#C9EFFB" stroke-width="2" stroke-miterlimit="10"/>
<path d="M451.545 223.356H422.826C422.305 223.356 421.882 223.779 421.882 224.301V236.073C421.882 236.595 422.305 237.018 422.826 237.018H451.545C452.066 237.018 452.489 236.595 452.489 236.073V224.301C452.489 223.779 452.066 223.356 451.545 223.356Z" stroke="#C9EFFB" stroke-width="2" stroke-miterlimit="10"/>
<path d="M466.846 209.742H438.126C437.605 209.742 437.183 210.165 437.183 210.687V222.459C437.183 222.981 437.605 223.404 438.126 223.404H466.846C467.367 223.404 467.79 222.981 467.79 222.459V210.687C467.79 210.165 467.367 209.742 466.846 209.742Z" fill="#C9EFFB"/>
<path d="M436.245 209.742H407.525C407.004 209.742 406.581 210.165 406.581 210.687V222.459C406.581 222.981 407.004 223.404 407.525 223.404H436.245C436.766 223.404 437.188 222.981 437.188 222.459V210.687C437.188 210.165 436.766 209.742 436.245 209.742Z" fill="#C9EFFB"/>
<path d="M115.822 263.604H87.1027C86.5817 263.604 86.1594 264.027 86.1594 264.548V276.321C86.1594 276.842 86.5817 277.265 87.1027 277.265H115.822C116.343 277.265 116.766 276.842 116.766 276.321V264.548C116.766 264.027 116.343 263.604 115.822 263.604Z" stroke="#C9EFFB" stroke-width="2" stroke-miterlimit="10"/>
<path d="M131.123 290.879H102.404C101.883 290.879 101.46 291.302 101.46 291.824V303.596C101.46 304.118 101.883 304.541 102.404 304.541H131.123C131.644 304.541 132.067 304.118 132.067 303.596V291.824C132.067 291.302 131.644 290.879 131.123 290.879Z" stroke="#C9EFFB" stroke-width="2" stroke-miterlimit="10"/>
<path d="M137.486 277.265H108.766C108.245 277.265 107.823 277.688 107.823 278.21V289.982C107.823 290.504 108.245 290.927 108.766 290.927H137.486C138.007 290.927 138.429 290.504 138.429 289.982V278.21C138.429 277.688 138.007 277.265 137.486 277.265Z" fill="#C9EFFB"/>
<path d="M106.88 277.265H78.1599C77.6389 277.265 77.2166 277.688 77.2166 278.21V289.982C77.2166 290.504 77.6389 290.927 78.1599 290.927H106.88C107.401 290.927 107.823 290.504 107.823 289.982V278.21C107.823 277.688 107.401 277.265 106.88 277.265Z" fill="#C9EFFB"/>
<path d="M293.829 81.5952H265.11C264.589 81.5952 264.166 82.0181 264.166 82.5397V94.3122C264.166 94.8338 264.589 95.2566 265.11 95.2566H293.829C294.35 95.2566 294.773 94.8338 294.773 94.3122V82.5397C294.773 82.0181 294.35 81.5952 293.829 81.5952Z" fill="#C9EFFB"/>
<path d="M304.168 108.918H275.449C274.928 108.918 274.505 109.341 274.505 109.862V121.635C274.505 122.157 274.928 122.579 275.449 122.579H304.168C304.689 122.579 305.112 122.157 305.112 121.635V109.862C305.112 109.341 304.689 108.918 304.168 108.918Z" fill="#C9EFFB"/>
<path d="M315.488 95.2566H286.769C286.248 95.2566 285.825 95.6794 285.825 96.201V107.974C285.825 108.495 286.248 108.918 286.769 108.918H315.488C316.009 108.918 316.432 108.495 316.432 107.974V96.201C316.432 95.6794 316.009 95.2566 315.488 95.2566Z" stroke="#C9EFFB" stroke-width="2" stroke-miterlimit="10"/>
<path d="M284.887 95.2566H256.167C255.646 95.2566 255.224 95.6794 255.224 96.201V107.974C255.224 108.495 255.646 108.918 256.167 108.918H284.887C285.408 108.918 285.83 108.495 285.83 107.974V96.201C285.83 95.6794 285.408 95.2566 284.887 95.2566Z" stroke="#C9EFFB" stroke-width="2" stroke-miterlimit="10"/>
<path d="M134.203 101.967H97.1634C96.8678 101.969 96.5747 101.913 96.3012 101.801C96.0277 101.689 95.7792 101.523 95.5702 101.314C95.3612 101.105 95.1959 100.856 95.084 100.582C94.9721 100.309 94.9157 100.015 94.9182 99.7192V62.645C94.9164 62.3493 94.9731 62.0562 95.0853 61.7826C95.1975 61.5091 95.3628 61.2605 95.5716 61.0514C95.7805 60.8423 96.0287 60.6768 96.302 60.5645C96.5752 60.4522 96.868 60.3954 97.1634 60.3973H134.194C134.489 60.3954 134.782 60.4522 135.055 60.5645C135.329 60.6768 135.577 60.8423 135.786 61.0514C135.995 61.2605 136.16 61.5091 136.272 61.7826C136.384 62.0562 136.441 62.3493 136.439 62.645V99.7192C136.427 100.31 136.188 100.873 135.772 101.292C135.355 101.711 134.793 101.953 134.203 101.967Z" fill="#A04833"/>
<path d="M135.147 103.025H96.187C95.5615 103.025 94.9617 102.776 94.5194 102.333C94.0771 101.89 93.8287 101.29 93.8287 100.664V61.658C93.8249 61.3469 93.8833 61.0382 94.0005 60.75C94.1176 60.4618 94.2912 60.2 94.5109 59.98C94.7307 59.76 94.9922 59.5862 95.28 59.4689C95.5679 59.3516 95.8762 59.2931 96.187 59.2969H135.147C135.772 59.2969 136.372 59.5457 136.814 59.9885C137.257 60.4313 137.505 61.0318 137.505 61.658V100.664C137.505 101.29 137.257 101.89 136.814 102.333C136.372 102.776 135.772 103.025 135.147 103.025ZM96.187 61.658V100.664H135.166V61.6628L96.187 61.658Z" fill="#FFC065"/>
<path d="M106.564 90.322C107.042 89.3007 107.577 88.3074 108.167 87.347C108.969 86.6386 109.677 85.8358 110.478 85.0803L115.054 80.4997L114.771 81.1608V75.4942C114.771 74.5497 114.723 73.6053 114.818 72.6608C115.101 71.7164 115.384 70.772 115.714 69.8275C116.077 70.7505 116.376 71.6971 116.61 72.6608C116.657 73.6053 116.61 74.5497 116.657 75.4942V81.5859L116.374 81.8692L111.799 86.4497C111.044 87.2053 110.243 87.9608 109.535 88.7636C108.592 89.2831 107.601 89.8497 106.564 90.322Z" fill="#FFC065"/>
<path d="M502.018 53.4177H271.873V178.939H502.018V53.4177Z" fill="#CC7829"/>
<path d="M507.999 179.44H266.694V183.255H507.999V179.44Z" fill="#BED5E6"/>
<path d="M424.104 93.9391H407.261V79.1018C407.261 77.043 408.053 77.298 409.473 75.7963L411.718 73.4352H419.647L421.887 75.7963C423.302 77.2838 424.104 77.0288 424.104 79.1018V93.9391Z" fill="#E3EAF3"/>
<path d="M420.651 69.3505H410.713C409.583 69.3505 408.666 70.268 408.666 71.3999V71.4141C408.666 72.5459 409.583 73.4635 410.713 73.4635H420.651C421.782 73.4635 422.698 72.5459 422.698 71.4141V71.3999C422.698 70.268 421.782 69.3505 420.651 69.3505Z" fill="#E3EAF3"/>
<path d="M424.099 82.3981H407.261V87.7153H424.099V82.3981Z" fill="#EF3E3B"/>
<path d="M443.046 93.9391H426.207V79.1018C426.207 77.043 427 77.298 428.42 75.7963L430.66 73.4352H438.593L440.834 75.7963C442.249 77.2838 443.046 77.0288 443.046 79.1018V93.9391Z" fill="#E3EAF3"/>
<path d="M439.593 69.3505H429.655C428.525 69.3505 427.608 70.268 427.608 71.3999V71.4141C427.608 72.5459 428.525 73.4635 429.655 73.4635H439.593C440.724 73.4635 441.64 72.5459 441.64 71.4141V71.3999C441.64 70.268 440.724 69.3505 439.593 69.3505Z" fill="#E3EAF3"/>
<path d="M443.046 82.3981H426.207V87.7153H443.046V82.3981Z" fill="#EF3E3B"/>
<path d="M475.61 137.223H458.771V122.386C458.771 120.332 459.564 120.582 460.983 119.08L463.224 116.719H471.153L473.398 119.08C474.813 120.563 475.61 120.313 475.61 122.386V137.223Z" fill="#E3EAF3"/>
<path d="M472.157 112.639H462.219C461.089 112.639 460.172 113.557 460.172 114.689V114.703C460.172 115.835 461.089 116.752 462.219 116.752H472.157C473.288 116.752 474.204 115.835 474.204 114.703V114.689C474.204 113.557 473.288 112.639 472.157 112.639Z" fill="#E3EAF3"/>
<path d="M475.61 125.682H458.771V130.999H475.61V125.682Z" fill="#EF3E3B"/>
<path d="M494.557 137.223H477.713V122.386C477.713 120.332 478.506 120.582 479.926 119.08L482.171 116.719H490.099L492.34 119.08C493.755 120.563 494.557 120.313 494.557 122.386V137.223Z" fill="#54A4CC"/>
<path d="M491.104 112.639H481.166C480.036 112.639 479.119 113.557 479.119 114.689V114.703C479.119 115.835 480.036 116.752 481.166 116.752H491.104C492.235 116.752 493.151 115.835 493.151 114.703V114.689C493.151 113.557 492.235 112.639 491.104 112.639Z" fill="#E3EAF3"/>
<path d="M333.27 137.223H316.432V122.386C316.432 120.332 317.224 120.582 318.644 119.08L320.889 116.719H328.818L331.058 119.08C332.473 120.563 333.27 120.313 333.27 122.386V137.223Z" fill="#E3EAF3"/>
<path d="M329.822 112.639H319.884C318.754 112.639 317.837 113.557 317.837 114.689V114.703C317.837 115.835 318.754 116.752 319.884 116.752H329.822C330.953 116.752 331.869 115.835 331.869 114.703V114.689C331.869 113.557 330.953 112.639 329.822 112.639Z" fill="#E3EAF3"/>
<path d="M333.27 125.682H316.432V130.999H333.27V125.682Z" fill="#54A4CC"/>
<path d="M352.217 137.223H335.379V122.386C335.379 120.332 336.171 120.582 337.591 119.08L339.831 116.719H347.76L350.005 119.08C351.42 120.563 352.217 120.313 352.217 122.386V137.223Z" fill="#E3EAF3"/>
<path d="M348.764 112.639H338.826C337.696 112.639 336.779 113.557 336.779 114.689V114.703C336.779 115.835 337.696 116.752 338.826 116.752H348.764C349.895 116.752 350.812 115.835 350.812 114.703V114.689C350.812 113.557 349.895 112.639 348.764 112.639Z" fill="#E3EAF3"/>
<path d="M352.217 125.682H335.379V130.999H352.217V125.682Z" fill="#EF3E3B"/>
<path d="M302.862 179.506H286.023V164.669C286.023 162.614 286.816 162.865 288.235 161.363L290.476 159.002H298.405L300.65 161.363C302.065 162.846 302.862 162.596 302.862 164.669V179.506Z" fill="#E3EAF3"/>
<path d="M299.409 154.917H289.471C288.341 154.917 287.424 155.835 287.424 156.967V156.981C287.424 158.113 288.341 159.03 289.471 159.03H299.409C300.54 159.03 301.456 158.113 301.456 156.981V156.967C301.456 155.835 300.54 154.917 299.409 154.917Z" fill="#E3EAF3"/>
<path d="M302.862 167.965H286.023V173.282H302.862V167.965Z" fill="#54A4CC"/>
<path d="M321.804 179.506H304.966V164.669C304.966 162.614 305.758 162.865 307.178 161.363L309.423 159.002H317.352L319.592 161.363C321.007 162.846 321.804 162.596 321.804 164.669V179.506Z" fill="#E3EAF3"/>
<path d="M318.356 154.917H308.418C307.288 154.917 306.371 155.835 306.371 156.967V156.981C306.371 158.113 307.288 159.03 308.418 159.03H318.356C319.487 159.03 320.403 158.113 320.403 156.981V156.967C320.403 155.835 319.487 154.917 318.356 154.917Z" fill="#E3EAF3"/>
<path d="M321.804 167.965H304.966V173.282H321.804V167.965Z" fill="#EF3E3B"/>
<path d="M496.561 93.9391H472.459V72.7222C472.459 69.7802 473.596 70.1438 475.629 68L478.836 64.6425H490.189L493.396 68C495.429 70.1297 496.561 69.7661 496.561 72.7222V93.9391Z" fill="#54A4CC"/>
<path d="M491.618 58.7444H477.402C475.782 58.7444 474.468 60.0594 474.468 61.6816V61.6958C474.468 63.318 475.782 64.633 477.402 64.633H491.618C493.238 64.633 494.552 63.318 494.552 61.6958V61.6816C494.552 60.0594 493.238 58.7444 491.618 58.7444Z" fill="#E3EAF3"/>
<path d="M496.561 77.4208H472.459V85.033H496.561V77.4208Z" fill="#EF3E3B"/>
<path d="M308.116 137.223H284.014V115.973C284.014 113.031 285.146 113.395 287.179 111.251L290.391 107.893H301.739L304.947 111.251C306.98 113.381 308.116 113.017 308.116 115.973V137.223Z" fill="#E3EAF3"/>
<path d="M303.173 102.033H288.957C287.337 102.033 286.023 103.348 286.023 104.97V104.984C286.023 106.607 287.337 107.922 288.957 107.922H303.173C304.793 107.922 306.107 106.607 306.107 104.984V104.97C306.107 103.348 304.793 102.033 303.173 102.033Z" fill="#54A4CC"/>
<path d="M308.116 120.705H284.014V128.317H308.116V120.705Z" fill="#EF3E3B"/>
<path d="M453.022 137.223H428.915V115.973C428.915 113.031 430.052 113.395 432.084 111.251L435.292 107.893H446.668L449.876 111.251C451.909 113.381 453.045 113.017 453.045 115.973L453.022 137.223Z" fill="#E3EAF3"/>
<path d="M448.074 102.033H433.858C432.238 102.033 430.924 103.348 430.924 104.97V104.984C430.924 106.607 432.238 107.922 433.858 107.922H448.074C449.694 107.922 451.008 106.607 451.008 104.984V104.97C451.008 103.348 449.694 102.033 448.074 102.033Z" fill="#54A4CC"/>
<path d="M453.017 120.705H428.915V128.317H453.017V120.705Z" fill="#EF3E3B"/>
<path d="M404.968 178.396H380.866V157.146C380.866 154.199 381.998 154.563 384.031 152.424L387.243 149.066H398.591L401.803 152.424C403.836 154.549 404.968 154.185 404.968 157.146V178.396Z" fill="#E3EAF3"/>
<path d="M400.025 143.206H385.809C384.189 143.206 382.875 144.521 382.875 146.143V146.157C382.875 147.78 384.189 149.095 385.809 149.095H400.025C401.645 149.095 402.959 147.78 402.959 146.157V146.143C402.959 144.521 401.645 143.206 400.025 143.206Z" fill="#E3EAF3"/>
<path d="M404.968 161.878H380.866V169.49H404.968V161.878Z" fill="#EF3E3B"/>
<path d="M479.322 179.506H455.22V158.256C455.22 155.314 456.356 155.673 458.385 153.534L461.597 150.176H472.945L476.157 153.534C478.19 155.659 479.322 155.3 479.322 158.256V179.506Z" fill="#E3EAF3"/>
<path d="M474.299 144.316H460.083C458.462 144.316 457.149 145.631 457.149 147.253V147.267C457.149 148.889 458.462 150.204 460.083 150.204H474.299C475.919 150.204 477.232 148.889 477.232 147.267V147.253C477.232 145.631 475.919 144.316 474.299 144.316Z" fill="#EF3E3B"/>
<path d="M479.322 161.047H455.22V168.659H479.322V161.047Z" fill="#54A4CC"/>
<path d="M467.271 93.9391H451.498V60.416H457.314L459.384 77.1799L461.526 60.416H467.271V93.9391Z" fill="#E3EAF3"/>
<path d="M455.578 81.1608C456.612 81.1608 457.451 80.3215 457.451 79.2861C457.451 78.2507 456.612 77.4114 455.578 77.4114C454.544 77.4114 453.706 78.2507 453.706 79.2861C453.706 80.3215 454.544 81.1608 455.578 81.1608Z" fill="#ABBCCA"/>
<path d="M455.578 86.9078C456.612 86.9078 457.451 86.0684 457.451 85.033C457.451 83.9977 456.612 83.1583 455.578 83.1583C454.544 83.1583 453.706 83.9977 453.706 85.033C453.706 86.0684 454.544 86.9078 455.578 86.9078Z" fill="#ABBCCA"/>
<path d="M455.578 92.7917C456.612 92.7917 457.451 91.9523 457.451 90.917C457.451 89.8816 456.612 89.0422 455.578 89.0422C454.544 89.0422 453.706 89.8816 453.706 90.917C453.706 91.9523 454.544 92.7917 455.578 92.7917Z" fill="#ABBCCA"/>
<path d="M463.328 81.1608C464.362 81.1608 465.2 80.3215 465.2 79.2861C465.2 78.2507 464.362 77.4114 463.328 77.4114C462.293 77.4114 461.455 78.2507 461.455 79.2861C461.455 80.3215 462.293 81.1608 463.328 81.1608Z" fill="#ABBCCA"/>
<path d="M463.328 86.9078C464.362 86.9078 465.2 86.0684 465.2 85.033C465.2 83.9977 464.362 83.1583 463.328 83.1583C462.293 83.1583 461.455 83.9977 461.455 85.033C461.455 86.0684 462.293 86.9078 463.328 86.9078Z" fill="#ABBCCA"/>
<path d="M463.328 92.7917C464.362 92.7917 465.2 91.9523 465.2 90.917C465.2 89.8816 464.362 89.0422 463.328 89.0422C462.293 89.0422 461.455 89.8816 461.455 90.917C461.455 91.9523 462.293 92.7917 463.328 92.7917Z" fill="#ABBCCA"/>
<path d="M377.192 137.223H361.419V103.705H367.235L369.306 120.464L371.442 103.705H377.192V137.223Z" fill="#E3EAF3"/>
<path d="M365.495 124.449C366.529 124.449 367.367 123.61 367.367 122.575C367.367 121.539 366.529 120.7 365.495 120.7C364.46 120.7 363.622 121.539 363.622 122.575C363.622 123.61 364.46 124.449 365.495 124.449Z" fill="#ABBCCA"/>
<path d="M365.495 130.192C366.529 130.192 367.367 129.352 367.367 128.317C367.367 127.281 366.529 126.442 365.495 126.442C364.46 126.442 363.622 127.281 363.622 128.317C363.622 129.352 364.46 130.192 365.495 130.192Z" fill="#ABBCCA"/>
<path d="M365.495 136.08C366.529 136.08 367.367 135.241 367.367 134.206C367.367 133.17 366.529 132.331 365.495 132.331C364.46 132.331 363.622 133.17 363.622 134.206C363.622 135.241 364.46 136.08 365.495 136.08Z" fill="#ABBCCA"/>
<path d="M373.249 124.449C374.283 124.449 375.121 123.61 375.121 122.575C375.121 121.539 374.283 120.7 373.249 120.7C372.215 120.7 371.376 121.539 371.376 122.575C371.376 123.61 372.215 124.449 373.249 124.449Z" fill="#ABBCCA"/>
<path d="M373.249 130.192C374.283 130.192 375.121 129.352 375.121 128.317C375.121 127.281 374.283 126.442 373.249 126.442C372.215 126.442 371.376 127.281 371.376 128.317C371.376 129.352 372.215 130.192 373.249 130.192Z" fill="#ABBCCA"/>
<path d="M373.249 136.08C374.283 136.08 375.121 135.241 375.121 134.206C375.121 133.17 374.283 132.331 373.249 132.331C372.215 132.331 371.376 133.17 371.376 134.206C371.376 135.241 372.215 136.08 373.249 136.08Z" fill="#ABBCCA"/>
<path d="M430.585 179.506H414.812V145.987H420.628L422.698 162.747L424.835 145.987H430.585V179.506Z" fill="#E3EAF3"/>
<path d="M418.887 166.732C419.921 166.732 420.76 165.893 420.76 164.857C420.76 163.822 419.921 162.983 418.887 162.983C417.853 162.983 417.015 163.822 417.015 164.857C417.015 165.893 417.853 166.732 418.887 166.732Z" fill="#ABBCCA"/>
<path d="M418.887 172.474C419.921 172.474 420.76 171.635 420.76 170.6C420.76 169.564 419.921 168.725 418.887 168.725C417.853 168.725 417.015 169.564 417.015 170.6C417.015 171.635 417.853 172.474 418.887 172.474Z" fill="#ABBCCA"/>
<path d="M418.887 178.363C419.921 178.363 420.76 177.524 420.76 176.488C420.76 175.453 419.921 174.614 418.887 174.614C417.853 174.614 417.015 175.453 417.015 176.488C417.015 177.524 417.853 178.363 418.887 178.363Z" fill="#ABBCCA"/>
<path d="M426.641 166.732C427.676 166.732 428.514 165.893 428.514 164.857C428.514 163.822 427.676 162.983 426.641 162.983C425.607 162.983 424.769 163.822 424.769 164.857C424.769 165.893 425.607 166.732 426.641 166.732Z" fill="#ABBCCA"/>
<path d="M426.641 172.474C427.676 172.474 428.514 171.635 428.514 170.6C428.514 169.564 427.676 168.725 426.641 168.725C425.607 168.725 424.769 169.564 424.769 170.6C424.769 171.635 425.607 172.474 426.641 172.474Z" fill="#ABBCCA"/>
<path d="M426.641 178.363C427.676 178.363 428.514 177.524 428.514 176.488C428.514 175.453 427.676 174.614 426.641 174.614C425.607 174.614 424.769 175.453 424.769 176.488C424.769 177.524 425.607 178.363 426.641 178.363Z" fill="#ABBCCA"/>
<path d="M448.857 148.797H433.084V179.506H448.857V148.797Z" fill="#BED5E6"/>
<path d="M437.16 166.732C438.194 166.732 439.032 165.893 439.032 164.857C439.032 163.822 438.194 162.983 437.16 162.983C436.125 162.983 435.287 163.822 435.287 164.857C435.287 165.893 436.125 166.732 437.16 166.732Z" fill="#EF3E3B"/>
<path d="M437.16 172.474C438.194 172.474 439.032 171.635 439.032 170.6C439.032 169.564 438.194 168.725 437.16 168.725C436.125 168.725 435.287 169.564 435.287 170.6C435.287 171.635 436.125 172.474 437.16 172.474Z" fill="#EF3E3B"/>
<path d="M437.16 178.363C438.194 178.363 439.032 177.524 439.032 176.488C439.032 175.453 438.194 174.614 437.16 174.614C436.125 174.614 435.287 175.453 435.287 176.488C435.287 177.524 436.125 178.363 437.16 178.363Z" fill="#EF3E3B"/>
<path d="M444.909 166.732C445.943 166.732 446.782 165.893 446.782 164.857C446.782 163.822 445.943 162.983 444.909 162.983C443.875 162.983 443.036 163.822 443.036 164.857C443.036 165.893 443.875 166.732 444.909 166.732Z" fill="#EF3E3B"/>
<path d="M444.909 172.474C445.943 172.474 446.782 171.635 446.782 170.6C446.782 169.564 445.943 168.725 444.909 168.725C443.875 168.725 443.036 169.564 443.036 170.6C443.036 171.635 443.875 172.474 444.909 172.474Z" fill="#EF3E3B"/>
<path d="M444.909 178.363C445.943 178.363 446.782 177.524 446.782 176.488C446.782 175.453 445.943 174.614 444.909 174.614C443.875 174.614 443.036 175.453 443.036 176.488C443.036 177.524 443.875 178.363 444.909 178.363Z" fill="#EF3E3B"/>
<path d="M437.093 154.912C438.128 154.912 438.966 154.073 438.966 153.038C438.966 152.002 438.128 151.163 437.093 151.163C436.059 151.163 435.221 152.002 435.221 153.038C435.221 154.073 436.059 154.912 437.093 154.912Z" fill="#EF3E3B"/>
<path d="M437.093 160.801C438.128 160.801 438.966 159.962 438.966 158.926C438.966 157.891 438.128 157.052 437.093 157.052C436.059 157.052 435.221 157.891 435.221 158.926C435.221 159.962 436.059 160.801 437.093 160.801Z" fill="#EF3E3B"/>
<path d="M444.843 154.912C445.877 154.912 446.715 154.073 446.715 153.038C446.715 152.002 445.877 151.163 444.843 151.163C443.809 151.163 442.97 152.002 442.97 153.038C442.97 154.073 443.809 154.912 444.843 154.912Z" fill="#EF3E3B"/>
<path d="M444.843 160.801C445.877 160.801 446.715 159.962 446.715 158.926C446.715 157.891 445.877 157.052 444.843 157.052C443.809 157.052 442.97 157.891 442.97 158.926C442.97 159.962 443.809 160.801 444.843 160.801Z" fill="#EF3E3B"/>
<path d="M335.53 93.9391H319.762V60.416H325.573L327.643 77.1799L329.785 60.416H335.53V93.9391Z" fill="#E3EAF3"/>
<path d="M323.837 81.1608C324.871 81.1608 325.709 80.3215 325.709 79.2861C325.709 78.2507 324.871 77.4114 323.837 77.4114C322.803 77.4114 321.964 78.2507 321.964 79.2861C321.964 80.3215 322.803 81.1608 323.837 81.1608Z" fill="#54A4CC"/>
<path d="M323.837 86.9078C324.871 86.9078 325.709 86.0684 325.709 85.033C325.709 83.9977 324.871 83.1583 323.837 83.1583C322.803 83.1583 321.964 83.9977 321.964 85.033C321.964 86.0684 322.803 86.9078 323.837 86.9078Z" fill="#54A4CC"/>
<path d="M323.837 92.7917C324.871 92.7917 325.709 91.9523 325.709 90.917C325.709 89.8816 324.871 89.0422 323.837 89.0422C322.803 89.0422 321.964 89.8816 321.964 90.917C321.964 91.9523 322.803 92.7917 323.837 92.7917Z" fill="#54A4CC"/>
<path d="M331.586 81.1608C332.621 81.1608 333.459 80.3215 333.459 79.2861C333.459 78.2507 332.621 77.4114 331.586 77.4114C330.552 77.4114 329.714 78.2507 329.714 79.2861C329.714 80.3215 330.552 81.1608 331.586 81.1608Z" fill="#54A4CC"/>
<path d="M331.586 86.9078C332.621 86.9078 333.459 86.0684 333.459 85.033C333.459 83.9977 332.621 83.1583 331.586 83.1583C330.552 83.1583 329.714 83.9977 329.714 85.033C329.714 86.0684 330.552 86.9078 331.586 86.9078Z" fill="#54A4CC"/>
<path d="M331.586 92.7917C332.621 92.7917 333.459 91.9523 333.459 90.917C333.459 89.8816 332.621 89.0422 331.586 89.0422C330.552 89.0422 329.714 89.8816 329.714 90.917C329.714 91.9523 330.552 92.7917 331.586 92.7917Z" fill="#54A4CC"/>
<path d="M353.802 63.2258H338.029V93.9344H353.802V63.2258Z" fill="#E3EAF3"/>
<path d="M342.105 81.1608C343.139 81.1608 343.977 80.3215 343.977 79.2861C343.977 78.2507 343.139 77.4114 342.105 77.4114C341.07 77.4114 340.232 78.2507 340.232 79.2861C340.232 80.3215 341.07 81.1608 342.105 81.1608Z" fill="#ABBCCA"/>
<path d="M342.105 86.9078C343.139 86.9078 343.977 86.0684 343.977 85.033C343.977 83.9977 343.139 83.1583 342.105 83.1583C341.07 83.1583 340.232 83.9977 340.232 85.033C340.232 86.0684 341.07 86.9078 342.105 86.9078Z" fill="#ABBCCA"/>
<path d="M342.105 92.7917C343.139 92.7917 343.977 91.9523 343.977 90.917C343.977 89.8816 343.139 89.0422 342.105 89.0422C341.07 89.0422 340.232 89.8816 340.232 90.917C340.232 91.9523 341.07 92.7917 342.105 92.7917Z" fill="#ABBCCA"/>
<path d="M349.859 81.1608C350.893 81.1608 351.731 80.3215 351.731 79.2861C351.731 78.2507 350.893 77.4114 349.859 77.4114C348.825 77.4114 347.986 78.2507 347.986 79.2861C347.986 80.3215 348.825 81.1608 349.859 81.1608Z" fill="#ABBCCA"/>
<path d="M349.859 86.9078C350.893 86.9078 351.731 86.0684 351.731 85.033C351.731 83.9977 350.893 83.1583 349.859 83.1583C348.825 83.1583 347.986 83.9977 347.986 85.033C347.986 86.0684 348.825 86.9078 349.859 86.9078Z" fill="#ABBCCA"/>
<path d="M349.859 92.7917C350.893 92.7917 351.731 91.9523 351.731 90.917C351.731 89.8816 350.893 89.0422 349.859 89.0422C348.825 89.0422 347.986 89.8816 347.986 90.917C347.986 91.9523 348.825 92.7917 349.859 92.7917Z" fill="#ABBCCA"/>
<path d="M342.039 69.3458C343.073 69.3458 343.911 68.5064 343.911 67.471C343.911 66.4357 343.073 65.5963 342.039 65.5963C341.004 65.5963 340.166 66.4357 340.166 67.471C340.166 68.5064 341.004 69.3458 342.039 69.3458Z" fill="#ABBCCA"/>
<path d="M342.039 75.2297C343.073 75.2297 343.911 74.3903 343.911 73.3549C343.911 72.3196 343.073 71.4802 342.039 71.4802C341.004 71.4802 340.166 72.3196 340.166 73.3549C340.166 74.3903 341.004 75.2297 342.039 75.2297Z" fill="#ABBCCA"/>
<path d="M349.793 69.3458C350.827 69.3458 351.665 68.5064 351.665 67.471C351.665 66.4357 350.827 65.5963 349.793 65.5963C348.759 65.5963 347.92 66.4357 347.92 67.471C347.92 68.5064 348.759 69.3458 349.793 69.3458Z" fill="#ABBCCA"/>
<path d="M349.793 75.2297C350.827 75.2297 351.665 74.3903 351.665 73.3549C351.665 72.3196 350.827 71.4802 349.793 71.4802C348.759 71.4802 347.92 72.3196 347.92 73.3549C347.92 74.3903 348.759 75.2297 349.793 75.2297Z" fill="#ABBCCA"/>
<path d="M417.821 137.223L403.586 135.584L389.351 137.223V115.279L403.586 116.917L417.821 115.279V137.223Z" fill="#54A4CC"/>
<path d="M389.351 115.279H384.007V137.223H389.351V115.279Z" fill="#EF3E3B"/>
<path d="M423.165 115.279H417.821V137.223H423.165V115.279Z" fill="#EF3E3B"/>
<path d="M411.204 121.805H395.969V130.664H411.204V121.805Z" fill="#E3EAF3"/>
<path d="M395.101 93.9392L380.866 92.3006L366.631 93.9392V71.995L380.866 73.6336L395.101 71.995V93.9392Z" fill="#EF3E3B"/>
<path d="M366.631 71.995H361.287V93.9392H366.631V71.995Z" fill="#54A4CC"/>
<path d="M400.445 71.995H395.101V93.9392H400.445V71.995Z" fill="#54A4CC"/>
<path d="M388.484 78.5164H373.249V87.3752H388.484V78.5164Z" fill="#E3EAF3"/>
<path d="M310.3 93.9392L296.065 92.3006L281.83 93.9392V71.995L296.065 73.6336L310.3 71.995V93.9392Z" fill="#E3EAF3"/>
<path d="M281.83 71.995H276.486V93.9392H281.83V71.995Z" fill="#EF3E3B"/>
<path d="M315.644 71.995H310.3V93.9392H315.644V71.995Z" fill="#EF3E3B"/>
<path d="M303.683 78.5164H288.448V87.3752H303.683V78.5164Z" fill="#54A4CC"/>
<path d="M366.452 179.506L352.217 177.867L337.982 179.506V157.562L352.217 159.2L366.452 157.562V179.506Z" fill="#EF3E3B"/>
<path d="M337.982 157.562H332.638V179.506H337.982V157.562Z" fill="#E3EAF3"/>
<path d="M371.796 157.562H366.452V179.506H371.796V157.562Z" fill="#E3EAF3"/>
<path d="M359.835 164.083H344.6V172.942H359.835V164.083Z" fill="#54A4CC"/>
<path d="M515.253 47.3733H259.445V54.9997H515.253V47.3733Z" fill="#A04833"/>
<path d="M507.999 136.689H266.694V140.505H507.999V136.689Z" fill="#E3EAF3"/>
<path d="M507.999 93.9391H266.694V97.7546H507.999V93.9391Z" fill="#E3EAF3"/>
<path d="M265.459 51.1841V185.196H508.457V51.1841H265.459ZM502.018 178.939H271.873V53.4177H502.018V178.939Z" fill="#A04833"/>
<path d="M358.231 144.864C358.231 144.864 357.052 159.167 351.392 165.372C345.732 171.577 351.288 144.387 351.288 144.387L358.231 144.864Z" fill="black"/>
<path d="M340.072 172.323C340.369 171.275 339.128 168.73 338.374 167.261C343.496 168.045 349.59 164.428 352.764 158.024C352.955 158.128 353.16 158.202 353.373 158.246C353.373 158.246 353.873 171.568 356.754 171.733C360.127 174.628 371.145 184.431 368.9 188.983C367.013 192.794 356.844 190.83 341.68 187.892C340.204 187.665 338.828 187.008 337.723 186.004C334.539 182.967 335.412 177.504 335.86 176.271C336.435 174.666 339.647 173.83 340.072 172.323Z" fill="#EA9D7D"/>
<path d="M351.132 173.839C353.146 169.476 348.92 168.55 348.92 168.55L348.953 168.489C346.161 170.378 343.038 171.195 340.241 170.652L339.85 170.562C339.451 169.411 338.957 168.296 338.374 167.228C343.496 168.012 349.297 164.055 352.472 157.647C352.55 157.817 352.678 157.961 352.839 158.058C352.999 158.156 353.185 158.203 353.373 158.194C353.373 158.194 353.467 160.674 353.802 163.502C354.241 167.247 355.108 171.62 356.755 171.714C361.325 175.596 372.362 185.484 370.145 189.871C367.928 194.258 352.783 192.704 341.68 187.874C339.987 187.137 338.605 186.419 337.595 185.862C344.534 186.641 349.326 177.754 351.132 173.839Z" fill="#D18165"/>
<path d="M346.298 132.893C352.142 134.031 355.731 141.487 354.906 150.143H354.953C356.547 150.455 357.49 152.504 357.056 154.757C356.622 157.009 354.972 158.534 353.373 158.242C353.191 158.233 353.014 158.187 352.851 158.105C352.689 158.024 352.545 157.91 352.429 157.769C349.184 164.324 343.218 168.21 338.029 167.214C331.582 165.953 329.304 157.996 331.2 148.278C333.096 138.559 339.855 131.632 346.298 132.893Z" fill="#EA9D7D"/>
<path d="M355.005 152.136C355.399 152.403 355.696 152.791 355.854 153.241C356.029 153.705 356.067 154.21 355.962 154.695C355.863 155.176 355.633 155.621 355.297 155.98C355.135 156.151 354.953 156.302 354.755 156.428C354.554 156.549 354.338 156.643 354.113 156.707C354.204 156.503 354.306 156.304 354.42 156.112C354.505 155.914 354.618 155.744 354.684 155.559C354.845 155.222 354.966 154.867 355.042 154.502C355.175 153.717 355.162 152.915 355.005 152.136Z" fill="#D18165"/>
<path d="M334.105 160.81C338.822 161.028 339.35 157.401 339.35 157.401C337.459 158 335.452 158.137 333.497 157.802C333.497 157.802 334.883 159.38 334.105 160.81Z" fill="#BE3E5F"/>
<path d="M335.426 147.569C335.603 148.545 335.622 149.543 335.482 150.525C335.418 151.046 335.271 151.553 335.048 152.027C334.916 152.296 334.789 152.462 334.666 152.674C334.544 152.887 334.426 153.071 334.322 153.269C334.112 153.608 333.983 153.991 333.945 154.388C333.94 154.458 333.95 154.528 333.973 154.594C333.997 154.659 334.034 154.72 334.081 154.771C334.208 154.9 334.358 155.003 334.525 155.073C335.42 155.343 336.345 155.501 337.279 155.545C336.318 155.873 335.287 155.946 334.289 155.758C333.995 155.686 333.723 155.544 333.497 155.342C333.243 155.105 333.085 154.782 333.053 154.435C333.042 153.863 333.195 153.3 333.492 152.811C333.615 152.584 333.747 152.367 333.883 152.159C334.02 151.952 334.176 151.739 334.27 151.583C334.477 151.193 334.636 150.779 334.742 150.351C335.03 149.472 335.213 148.528 335.426 147.569Z" fill="#D18165"/>
<path d="M338.374 145.629C339.313 145.782 340.241 145.998 341.152 146.275C341.59 146.417 342.017 146.59 342.43 146.795C342.855 146.989 343.237 147.267 343.685 147.513C343.47 147.046 343.147 146.638 342.741 146.323C342.338 145.996 341.877 145.748 341.383 145.591C340.896 145.431 340.386 145.35 339.874 145.35C339.36 145.341 338.85 145.436 338.374 145.629Z" fill="black"/>
<path d="M333.548 144.712C333.133 144.543 332.694 144.439 332.247 144.406C332.162 144.642 332.086 144.878 332.006 145.114C332.467 145.126 332.926 145.173 333.379 145.256C333.85 145.322 334.284 145.473 334.794 145.591C334.453 145.205 334.026 144.904 333.548 144.712Z" fill="black"/>
<path d="M332.445 151.139C332.632 151.175 332.827 151.135 332.985 151.028C333.143 150.921 333.253 150.756 333.289 150.568L333.695 148.49C333.717 148.395 333.721 148.297 333.704 148.201C333.688 148.105 333.653 148.014 333.6 147.932C333.548 147.85 333.479 147.779 333.399 147.724C333.318 147.67 333.228 147.632 333.132 147.613C333.037 147.594 332.939 147.595 332.843 147.615C332.748 147.635 332.658 147.675 332.579 147.73C332.499 147.786 332.431 147.858 332.38 147.94C332.329 148.023 332.295 148.115 332.28 148.212L331.879 150.289C331.841 150.477 331.88 150.672 331.986 150.832C332.092 150.991 332.257 151.102 332.445 151.139Z" fill="black"/>
<path d="M339.713 151.583C339.901 151.619 340.096 151.58 340.255 151.473C340.414 151.366 340.525 151.2 340.562 151.012L340.968 148.934C340.992 148.839 340.996 148.74 340.98 148.643C340.964 148.546 340.929 148.453 340.876 148.371C340.824 148.288 340.755 148.217 340.674 148.161C340.592 148.106 340.501 148.068 340.405 148.05C340.308 148.031 340.209 148.032 340.114 148.053C340.018 148.074 339.927 148.114 339.848 148.171C339.768 148.229 339.701 148.301 339.65 148.385C339.599 148.469 339.566 148.563 339.553 148.66L339.128 150.733C339.111 150.828 339.112 150.924 339.132 151.018C339.151 151.112 339.19 151.201 339.244 151.28C339.298 151.359 339.368 151.427 339.448 151.479C339.529 151.531 339.619 151.566 339.713 151.583Z" fill="black"/>
<path d="M358.236 143.05C358.236 143.05 355.575 126.697 347.269 132.397C347.269 132.397 339.166 129.479 335.303 135.532C331.44 141.586 329.605 140.037 329.605 140.037C329.605 140.037 336.298 144.972 340.831 142.484L346.529 144.174C347.338 144.413 348.051 144.902 348.567 145.57C349.084 146.237 349.377 147.051 349.406 147.895L349.637 154.591C349.796 154.922 350.048 155.199 350.362 155.388C350.675 155.578 351.037 155.671 351.403 155.658C351.77 155.645 352.124 155.526 352.423 155.315C352.723 155.103 352.954 154.809 353.09 154.469C353.439 153.647 353.802 152.735 354.137 151.805C355.311 148.547 359.033 146.087 358.236 143.05Z" fill="black"/>
<path d="M289.683 223.659L284.816 223.857C284.816 223.857 283.755 223.012 282.316 221.916C279.604 219.843 275.538 216.854 274.703 216.906C273.425 216.981 271.204 217.912 276.732 222.176L276.689 222.214C276.505 222.35 275.651 222.912 273.468 223.045C270.954 223.2 262.487 223.777 261.11 224.296C260.365 224.575 258.69 226.822 271.241 226.379C271.341 226.372 271.44 226.388 271.533 226.424C271.625 226.461 271.708 226.518 271.777 226.59C271.845 226.663 271.896 226.75 271.926 226.845C271.957 226.94 271.966 227.04 271.954 227.139C271.911 227.37 271.741 227.578 271.288 227.611C270.152 227.682 260.336 227.847 260.506 229.623C260.629 230.917 263.199 230.6 271.826 230.218C271.826 230.218 273.194 230.572 272.105 231.275C271.727 231.516 262.001 232.428 261.525 233.197C261.049 233.967 259.794 235.233 274.387 233.637C274.387 233.637 274.642 233.783 273.373 234.524C272.024 235.313 268.034 236.375 267.015 237.863C265.996 239.35 268.954 238.17 276.449 235.648L286.957 234.317C293.905 235.294 319.903 237.514 326.36 230.799C332.412 224.509 335.666 201.993 335.666 201.993L320.87 201.521L314.672 218.304C314.469 218.854 314.121 219.339 313.665 219.708C313.21 220.077 312.663 220.316 312.083 220.4L288.82 223.762" fill="#EA9D7D"/>
<path d="M289.424 223.659V234.137" stroke="#2F170B" stroke-width="6" stroke-linecap="round" stroke-linejoin="round"/>
<path d="M318.29 202.583L323.95 184.851C325.046 181.311 327.183 178.184 330.082 175.879C330.822 175.29 331.622 174.78 332.468 174.359C332.542 174.322 332.623 174.306 332.705 174.311C332.787 174.316 332.866 174.342 332.934 174.387C333.003 174.432 333.058 174.494 333.096 174.566C333.133 174.639 333.151 174.721 333.148 174.802L332.214 202.583H318.29Z" fill="#EF3E3B"/>
<path d="M318.29 202.583L323.95 184.851C325.046 181.311 327.183 178.184 330.082 175.879C330.822 175.29 331.622 174.78 332.468 174.359C332.542 174.322 332.623 174.306 332.705 174.311C332.787 174.316 332.866 174.342 332.934 174.387C333.003 174.432 333.058 174.494 333.096 174.566C333.133 174.639 333.151 174.721 333.148 174.802L332.214 202.583H318.29Z" fill="#E3EAF3"/>
<path d="M332.921 180.705L332.214 202.583H324.776C324.606 197.271 325.002 191.401 328.077 184.87C330.19 180.422 331.412 180.2 331.926 180.224C332.306 180.256 332.66 180.428 332.921 180.705Z" fill="#ABBCCA"/>
<path d="M401.063 266.017C400.847 265.168 400.731 264.296 400.719 263.42C400.61 256.067 399.907 228.003 395.681 215.253C394.337 211.182 381.975 190.443 381.975 190.443L364.315 194.182L379.88 220.056C380.57 221.203 381.077 222.45 381.385 223.753L390.87 264.199C391 264.754 391.005 265.332 390.883 265.889C390.762 266.446 390.517 266.969 390.167 267.419C388.172 269.984 384.22 275.192 384.281 276.146C384.371 277.426 385.314 279.65 389.535 274.082C389.535 274.082 390.257 274.829 390.422 277.346C390.587 279.863 390.955 289.553 391.747 289.713C392.54 289.874 394.337 292.178 393.743 279.012C393.743 279.012 394.912 278.361 394.988 279.485C395.063 280.609 395.714 291.432 397.063 290.27C398.412 289.109 398.007 287.564 397.591 278.937C397.591 278.937 398.473 278.233 398.643 278.649C398.813 279.064 399.78 289.283 400.634 289.227C401.487 289.17 402.671 290.946 400.983 276.354C400.983 276.354 401.454 276.108 401.992 277.572C402.53 279.036 404.586 285.463 405.256 283.711C405.926 281.959 405.553 281.761 402.987 274.295L401.077 265.998L401.063 266.017Z" fill="#EA9D7D"/>
<path d="M364.315 194.173L368.48 193.29C371.593 197.247 375.461 200.118 380.498 207.504C384.427 213.26 386.97 219.116 388.097 221.59C391.191 228.371 390.564 231.833 392.625 248.564C393.865 258.612 394.483 263.637 395.134 266.262C395.134 266.262 399.794 285.085 397.521 289.746C397.415 289.962 397.252 290.145 397.049 290.275C395.7 291.437 395.049 280.627 394.974 279.489C394.898 278.351 393.728 279.017 393.728 279.017C394.323 292.183 392.53 289.878 391.733 289.718C390.936 289.557 390.578 279.914 390.413 277.369C390.248 274.852 389.526 274.106 389.526 274.106C385.281 279.674 384.338 277.449 384.272 276.17C384.21 275.225 388.163 270.031 390.158 267.443C390.508 266.993 390.752 266.47 390.874 265.912C390.995 265.355 390.991 264.778 390.861 264.222L381.376 223.777C381.068 222.474 380.56 221.226 379.871 220.079L364.315 194.173Z" fill="#D18165"/>
<path d="M319.248 199.589H331.751V201.478H318.644L319.248 199.589Z" fill="#25BEEF"/>
<path d="M324.752 199.589H331.751V201.478H324.752C324.743 200.855 324.743 200.222 324.752 199.589Z" fill="#1A87C4"/>
<path d="M320.63 195.245H331.525V197.134H320.026L320.63 195.245Z" fill="#25BEEF"/>
<path d="M325.059 195.245H331.525V197.134H324.87C324.917 196.511 324.978 195.882 325.059 195.245Z" fill="#1A87C4"/>
<path d="M332.997 234.77H369.556C370.128 234.77 370.694 234.647 371.215 234.408C371.735 234.169 372.198 233.82 372.571 233.386C372.945 232.951 373.22 232.441 373.379 231.89C373.537 231.34 373.575 230.761 373.489 230.194L364.858 173.187L355.972 171.218C352.797 177.957 343.02 178.264 339.897 171.502L333.152 174.07C331.989 174.353 330.961 175.034 330.246 175.996C329.531 176.957 329.174 178.139 329.238 179.336L329.308 181.465C329.865 198.585 330.425 215.703 330.987 232.82C330.978 232.961 331.016 233.651 332.997 234.77Z" fill="#E3EAF3"/>
<path d="M388.705 201.738C388.916 201.596 389.096 201.413 389.235 201.2C389.373 200.987 389.467 200.748 389.511 200.497C389.556 200.247 389.549 199.99 389.491 199.742C389.434 199.495 389.327 199.261 389.177 199.056L375.876 180.564C375.876 180.564 371.159 174.481 364.862 173.188L361.268 191.954L374.003 211.315C374.05 211.386 374.11 211.448 374.181 211.495C374.252 211.542 374.332 211.575 374.415 211.591C374.499 211.607 374.585 211.606 374.668 211.587C374.751 211.569 374.83 211.534 374.9 211.485L388.705 201.738Z" fill="#E3EAF3"/>
<path d="M373.966 211.296L361.339 192.086L361.367 191.902C361.421 191.552 361.564 191.222 361.783 190.944C362.002 190.666 362.29 190.45 362.617 190.317C362.945 190.183 363.301 190.138 363.652 190.184C364.002 190.23 364.335 190.366 364.617 190.579C367.027 192.416 370.107 195.576 372.928 198.47C375.871 201.492 379.031 204.737 380.498 207.504L374.838 211.466C374.7 211.558 374.53 211.592 374.367 211.56C374.204 211.529 374.059 211.433 373.966 211.296Z" fill="#ABBCCA"/>
<path d="M387.886 197.277L372.061 208.462L373.149 210.006L388.974 198.821L387.886 197.277Z" fill="#25BEEF"/>
<path d="M378.168 204.146C378.583 204.652 378.965 205.152 379.319 205.639L373.15 210.002L372.617 209.232L372.098 208.439L378.168 204.146Z" fill="#1A87C4"/>
<path d="M385.304 193.605L369.264 204.122L370.298 205.702L386.338 195.185L385.304 193.605Z" fill="#25BEEF"/>
<path d="M376.178 201.87L370.301 205.724L369.806 204.968L369.268 204.146L374.867 200.477C375.31 200.94 375.753 201.407 376.178 201.87Z" fill="#1A87C4"/>
<path d="M330.973 232.805C333.747 231.828 340.954 231.795 351.873 228.348C362.122 225.118 364.183 222.492 365.117 220.613C367.31 216.197 365.877 210.592 365.287 208.288C364.23 204.151 363.929 202.569 361.806 197.323C361.094 195.561 360.863 191.297 361.806 190.948C362.905 190.542 366.013 195.292 369.192 201.889L373.475 230.18C373.561 230.747 373.523 231.325 373.365 231.876C373.206 232.427 372.931 232.937 372.557 233.372C372.184 233.806 371.721 234.155 371.2 234.394C370.68 234.633 370.114 234.756 369.541 234.756H332.997C332.475 234.755 331.973 234.551 331.598 234.187C331.224 233.823 331.004 233.328 330.987 232.805H330.973Z" fill="#ABBCCA"/>
<path d="M276.581 222.199C276.581 222.199 278.618 229.84 285.585 227.729" stroke="#2F170B" stroke-width="2" stroke-miterlimit="10"/>
<path d="M305.333 384.417C310.465 380.479 323.54 376.389 326.813 369.065C328.582 371.289 338.473 370.661 342.227 370.482C342.227 370.482 343.458 376.597 343.171 380.871C342.883 385.144 342.647 386.382 342.647 386.382L335.68 386.646L335.827 384.861C335.827 384.861 331.775 384.682 329.403 386.717C327.03 388.752 320.554 391.128 313.899 390.188C307.244 389.248 300.197 388.356 305.333 384.417Z" fill="#7C2F13"/>
<path d="M313.913 390.178C320.564 391.123 327.04 388.762 329.412 386.712C331.784 384.663 335.827 384.861 335.827 384.861L335.652 386.698L342.619 386.434C342.619 386.434 342.836 385.22 343.142 380.923C343.242 378.647 343.126 376.367 342.798 374.113C342.524 372.045 342.218 370.51 342.218 370.51C338.444 370.671 328.893 371.242 326.808 369.094C325.804 370.307 323.898 371.455 322.761 372.645C322.403 373.027 322.016 373.405 321.63 373.769C321.243 374.132 320.96 374.349 320.62 374.638C320.181 374.996 319.733 375.36 319.262 375.709C314.545 379.232 308.597 381.943 305.329 384.446C300.202 388.356 307.258 389.234 313.913 390.178Z" fill="#25BEEF"/>
<path d="M342.227 370.501C342.227 370.501 343.458 376.616 343.171 380.89C343.095 381.896 343.029 382.727 342.968 383.416C340.515 383.482 337.647 383.289 338.775 381.896C340.661 379.586 340.694 370.534 340.694 370.534L342.227 370.501Z" fill="#E3EAF3"/>
<path d="M304.282 385.362C304.604 385.017 304.956 384.701 305.333 384.417C307.494 382.76 310.824 381.013 314.196 379.001C316.886 379.758 319.279 381.322 321.054 383.482C322.606 385.437 322.733 388.629 323.153 389.149C321.431 390.958 303.937 388.823 303.602 387.019C303.602 387.019 303.602 386.977 303.602 386.958C303.636 386.363 303.876 385.798 304.282 385.362Z" fill="#E3EAF3"/>
<path d="M313.908 390.178C308.564 389.418 302.97 388.705 303.626 386.401C320.007 392.176 327.294 385.98 328.709 384.039C330.124 382.099 333.11 382.193 333.11 382.193C338.548 382.665 341.6 381.131 343.189 379.893C343.189 380.229 343.189 380.564 343.152 380.885C342.84 385.182 342.628 386.396 342.628 386.396L335.662 386.66L335.827 384.861C335.827 384.861 331.775 384.682 329.403 386.717C327.03 388.752 320.564 391.118 313.908 390.178Z" fill="#7C2F13"/>
<path d="M321.639 373.74C321.936 373.995 322.252 374.241 322.582 374.467C323.008 374.787 323.46 375.071 323.931 375.317C324.441 375.602 324.989 375.812 325.558 375.941C325.409 375.342 325.139 374.779 324.766 374.288C324.422 373.819 324.006 373.406 323.535 373.065C323.297 372.896 323.046 372.746 322.785 372.616C322.412 372.999 322.026 373.377 321.639 373.74Z" fill="#7C2F13"/>
<path d="M319.271 375.681C319.488 375.846 319.705 376.012 319.927 376.153C320.358 376.465 320.808 376.749 321.276 377.003C321.786 377.288 322.334 377.498 322.903 377.627C322.754 377.027 322.485 376.465 322.111 375.974C321.766 375.505 321.351 375.092 320.88 374.751C320.8 374.692 320.716 374.638 320.63 374.59C320.191 374.968 319.743 375.332 319.271 375.681Z" fill="#7C2F13"/>
<path d="M334.652 384.389C339.784 380.451 352.198 377.348 355.472 370.038C357.24 372.262 367.216 370.199 370.971 370.038C370.971 370.038 372.777 376.593 372.47 380.899C372.164 385.206 371.947 386.41 371.947 386.41L364.98 386.674L365.155 384.838C365.155 384.838 361.103 384.658 358.731 386.698C356.358 388.738 349.882 391.104 343.227 390.164C336.572 389.224 329.516 388.304 334.652 384.389Z" fill="#7C2F13"/>
<path d="M343.232 390.126C349.882 391.071 356.358 388.71 358.731 386.66C361.103 384.611 365.155 384.8 365.155 384.8L364.98 386.637L371.947 386.372C371.947 386.372 372.164 385.159 372.47 380.861C372.626 378.718 372.154 376.167 371.886 374.104C371.686 372.721 371.38 371.355 370.971 370.019C367.197 370.175 358.023 370.68 355.476 370.019C354.2 370.652 353.052 371.517 352.09 372.569C351.731 372.956 351.345 373.329 350.958 373.698C350.623 373.991 350.288 374.279 349.948 374.562C349.51 374.926 349.062 375.284 348.59 375.634C343.873 379.157 337.926 381.867 334.657 384.37C329.52 388.308 336.577 389.182 343.232 390.126Z" fill="#25BEEF"/>
<path d="M370.971 370.014C370.971 370.014 372.777 376.569 372.47 380.876C372.395 381.881 372.329 382.712 372.268 383.407C369.815 383.473 366.947 383.274 368.075 381.886C369.961 379.572 369.994 370.52 369.994 370.52C370.588 370.487 370.541 370.033 370.971 370.014Z" fill="#E3EAF3"/>
<path d="M333.6 385.333C333.924 384.99 334.276 384.674 334.652 384.389C336.812 382.731 340.142 380.984 343.515 378.973C346.203 379.727 348.596 381.288 350.373 383.444C351.925 385.399 352.052 388.592 352.472 389.111C350.75 390.915 333.256 388.781 332.921 386.977C332.921 386.977 332.921 386.939 332.921 386.915C332.959 386.325 333.199 385.767 333.6 385.333Z" fill="#E3EAF3"/>
<path d="M343.227 390.126C337.883 389.371 332.289 388.653 332.945 386.349C349.326 392.124 356.613 385.928 358.028 383.988C359.443 382.047 362.429 382.141 362.429 382.141C367.867 382.613 370.942 381.079 372.508 379.837C372.508 380.177 372.508 380.507 372.47 380.828C372.159 385.126 371.947 386.339 371.947 386.339L364.98 386.604L365.155 384.767C365.155 384.767 361.103 384.587 358.731 386.627C356.358 388.667 349.882 391.066 343.227 390.126Z" fill="#7C2F13"/>
<path d="M350.958 373.693C351.255 373.943 351.571 374.165 351.901 374.416C352.326 374.736 352.777 375.021 353.25 375.266C353.761 375.549 354.308 375.761 354.877 375.894C354.728 375.293 354.458 374.729 354.085 374.236C353.739 373.768 353.324 373.356 352.854 373.013C352.616 372.844 352.365 372.694 352.104 372.564C351.731 372.952 351.344 373.325 350.958 373.693Z" fill="#7C2F13"/>
<path d="M348.59 375.629C348.807 375.794 349.024 375.96 349.246 376.101C349.675 376.415 350.126 376.699 350.595 376.951C351.105 377.235 351.653 377.446 352.222 377.579C352.074 376.978 351.804 376.414 351.429 375.922C351.084 375.454 350.669 375.041 350.198 374.699C350.123 374.642 350.033 374.59 349.948 374.538C349.505 374.944 349.062 375.28 348.59 375.629Z" fill="#7C2F13"/>
<path d="M374.131 265.389C376.678 258.944 377.627 251.976 376.895 245.083C376.411 240.703 375.246 236.424 373.442 232.404C373.442 232.404 340.51 237.296 331.303 232.683C331.303 232.683 323.936 298.104 323.705 303.866C323.474 309.627 326.813 369.566 326.813 369.566C326.813 369.566 335.775 373.174 342.204 370.718C342.204 370.718 347.269 324.766 346.5 313.107L346.92 305.164C347.175 310.925 355.523 370.369 355.523 370.369C355.523 370.369 364.735 373.202 370.956 370.222C370.956 370.222 372.154 324.011 370.409 312.436L370.239 290.242L374.131 265.389Z" fill="#EF3E3B"/>
<path d="M347.651 283.843C346.425 269.677 343.878 256.091 343.048 256.181C342.411 256.247 343.048 263.297 343.279 279.466C343.449 292.65 343.189 301.509 342.807 314.042C342.086 338.503 341.109 342.701 340.058 346.082C337.312 354.755 332.799 362.762 326.804 369.599C329.827 370.959 334.718 372.522 340.185 371.313C340.865 371.164 341.536 370.977 342.194 370.751C342.194 370.751 347.26 324.799 346.491 313.14L348.128 291.72C348.09 289.548 347.944 287.187 347.651 283.843Z" fill="#C82833"/>
<path d="M376.895 245.116C376.411 240.736 375.246 236.458 373.442 232.437C373.442 232.437 340.51 237.329 331.303 232.721C330.945 235.408 356.608 235.941 365.32 252.03C367.485 256.029 366.961 301.141 367.48 313.659C368.504 338.111 367.825 342.366 367.009 345.818C364.892 354.65 360.968 362.947 355.486 370.184V370.227C356.118 370.458 356.83 370.699 357.608 370.902C360.084 371.426 364.348 372.036 368.202 371.167C368.442 371.105 368.674 371.049 368.924 370.978C369.547 370.791 370.159 370.57 370.758 370.317L370.999 370.194C370.999 370.142 370.942 368.777 371.027 366.345C371.268 354.974 371.824 321.98 370.39 312.451L370.221 290.256L370.692 287.092V287.069V287.031L374.079 265.403C376.641 258.968 377.607 252.007 376.895 245.116Z" fill="#C82833"/>
<path d="M350.694 239.478C358.019 239.478 367.674 238.878 374.947 236.272L374.631 235.384C362.551 239.719 343.666 238.406 340.548 238.151L340.666 234.548L339.723 234.52L339.576 239.011L340.015 239.053C340.114 239.063 344.59 239.478 350.694 239.478Z" fill="#7C2F13"/>
<path d="M340.02 239.053L340.105 238.109C337.018 237.808 333.957 237.276 330.95 236.517L330.7 237.429C333.761 238.204 336.877 238.747 340.02 239.053Z" fill="#7C2F13"/>
<path d="M342.652 256.44L343.444 255.926C340.142 250.849 341.416 238.831 341.43 238.708L340.487 238.604C340.435 239.114 339.171 251.085 342.652 256.44Z" fill="#7C2F13"/>
<path d="M371.456 256.639L371.692 255.723C365.829 254.235 358.622 244.54 358.547 244.441L357.787 245.003C358.094 245.414 365.273 255.066 371.456 256.639Z" fill="#7C2F13"/>
<path d="M342.402 237.797C340.581 237.797 340.576 234.964 342.402 234.964C344.227 234.964 344.227 237.797 342.402 237.797Z" fill="#7C2F13"/>
<path d="M361.891 370.515L362.834 370.473C362.834 370.071 361.009 330.126 360.004 310.387C358.665 284.287 364.466 251.732 364.523 251.406L363.58 251.236C363.518 251.562 357.698 284.226 359.042 310.434C360.07 330.173 361.872 370.114 361.891 370.515Z" fill="#7C2F13"/>
<path d="M495.198 314.462C493.363 306.222 490.547 298.473 484.68 299.139C478.812 299.804 474.124 307.856 473.945 316.88C473.78 325.319 480.43 331.519 486.298 330.858C492.165 330.197 497.509 324.832 495.198 314.462Z" fill="#7BCE34"/>
<path d="M489.448 319.543C483.576 320.209 476.93 314.004 477.096 305.561C477.096 305.372 477.096 305.178 477.096 304.985C475.056 308.62 473.964 312.711 473.921 316.88C473.756 325.319 480.407 331.519 486.274 330.858C491.712 330.239 496.693 325.593 495.561 316.663C493.902 318.279 491.75 319.293 489.448 319.543Z" fill="#3C8F2D"/>
<path d="M511.15 338.527C510.678 330.098 505.962 327.666 500.07 328.331C494.179 328.997 489.519 337.044 489.34 346.068C489.17 354.511 492.283 357.779 498.151 357.113C504.018 356.448 511.758 349.917 511.15 338.527Z" fill="#7BCE34"/>
<path d="M507.414 349.52C501.547 350.186 498.453 346.913 498.604 338.475C498.654 334.947 499.433 331.468 500.891 328.256C500.622 328.256 500.349 328.298 500.07 328.331C494.203 328.997 489.519 337.044 489.34 346.068C489.17 354.511 492.283 357.779 498.151 357.113C501.816 356.698 506.216 353.987 508.853 349.241C508.38 349.367 507.9 349.46 507.414 349.52Z" fill="#3C8F2D"/>
<path d="M475.166 328.865C470.45 325.087 465.087 324.657 462.719 327.122C460.351 329.587 462.016 334.064 466.167 339.008C470.049 343.636 474.86 346.148 478.331 343.731C481.124 341.738 481.1 333.649 475.166 328.865Z" fill="#7BCE34"/>
<path d="M476.383 329.989C476.449 332.308 475.78 334.239 474.596 335.079C471.124 337.526 466.309 335.013 462.431 330.386C462.163 330.064 461.903 329.748 461.658 329.441C461.384 331.963 463.073 335.363 466.158 339.018C470.039 343.646 474.85 346.158 478.322 343.74C480.916 341.889 481.072 334.806 476.383 329.989Z" fill="#3C8F2D"/>
<path d="M468.464 330.145C469.748 330.925 470.952 331.829 472.058 332.846C472.186 332.981 472.303 333.126 472.407 333.28C472.52 333.431 472.638 333.578 472.752 333.72C472.983 334.017 473.223 334.296 473.44 334.603C473.869 335.212 474.332 335.797 474.733 336.425C476.402 338.897 477.795 341.545 478.888 344.321C480.004 347.088 480.805 349.973 481.275 352.92L481.458 354.02C481.487 354.204 481.525 354.389 481.543 354.573L481.591 355.13C481.647 355.871 481.723 356.613 481.775 357.359C481.729 358.108 481.64 358.854 481.506 359.593C481.388 360.334 481.26 361.066 481.119 361.793C480.987 361.052 480.859 360.324 480.746 359.597C480.633 358.87 480.562 358.152 480.364 357.439C480.293 356.721 480.251 356.023 480.185 355.286L480.138 354.748C480.138 354.568 480.081 354.393 480.058 354.214L479.878 353.151C479.423 350.305 478.65 347.518 477.572 344.845C476.52 342.162 475.174 339.604 473.558 337.219C473.171 336.609 472.723 336.043 472.308 335.457C471.893 334.872 471.417 334.329 470.964 333.771C470.19 332.539 469.365 331.335 468.464 330.145Z" fill="#2E6821"/>
<path d="M485.095 301.977C485.505 304.442 485.812 306.916 486.114 309.391L486.35 316.842C486.491 321.81 486.6 326.759 486.647 331.75C486.694 336.742 486.685 341.7 486.548 346.677C486.477 349.166 486.369 351.659 486.175 354.153C485.972 355.39 485.746 356.627 485.463 357.855C485.206 359.088 484.812 360.289 484.288 361.434L484.477 360.518L484.586 359.574C484.647 358.96 484.685 358.341 484.713 357.727C484.76 356.49 484.784 355.258 484.765 354.016C484.954 351.56 485.062 349.086 485.133 346.611C485.27 341.662 485.279 336.694 485.232 331.741C485.185 326.787 485.076 321.824 484.935 316.861C484.859 314.382 484.788 311.898 484.685 309.419C484.803 306.944 484.916 304.47 485.095 301.977Z" fill="#2E6821"/>
<path d="M489.326 360.858C489.934 359.696 490.439 358.497 490.944 357.321C491.637 356.249 492.279 355.139 492.92 354.016C494.194 351.791 495.392 349.515 496.58 347.234C497.769 344.954 498.905 342.644 500.028 340.331L501.702 336.85C502.443 335.774 503.183 334.702 503.99 333.653C503.698 334.938 503.334 336.199 502.976 337.431L501.301 340.926C500.169 343.249 499.014 345.561 497.835 347.863C496.641 350.153 495.434 352.443 494.146 354.696L493.17 356.377C492.826 356.929 492.505 357.496 492.156 358.044C491.313 359.078 490.364 360.021 489.326 360.858Z" fill="#2E6821"/>
<path d="M498.165 389.772H476.539C475.19 389.772 473.886 389.288 472.863 388.406C471.841 387.525 471.169 386.305 470.969 384.97L467.158 359.559C466.893 357.798 479.831 359.191 487.755 359.116C495.217 359.04 507.414 358.341 507.282 359.224L503.74 384.97C503.54 386.306 502.867 387.526 501.844 388.408C500.82 389.289 499.515 389.774 498.165 389.772Z" fill="#ABBCCA"/>
<path d="M487.232 359.12C479.312 359.201 466.908 357.798 467.172 359.56L470.983 384.97C471.183 386.306 471.855 387.525 472.877 388.406C473.9 389.288 475.204 389.773 476.553 389.772H485.109C482.867 387.289 481.613 384.068 481.586 380.72C481.586 380.03 481.671 375.573 484.888 372.012C486.821 369.887 489.953 368.801 496.208 366.624C499.221 365.58 501.627 365.056 504.226 362.846C505.324 361.966 506.318 360.963 507.188 359.857L507.273 359.224C507.414 358.341 494.684 359.045 487.232 359.12Z" fill="#91A6B5"/>
<path d="M281.59 165.49H195.643C194.575 165.49 193.709 166.357 193.709 167.426V221.756C193.709 222.825 194.575 223.692 195.643 223.692H281.59C282.658 223.692 283.524 222.825 283.524 221.756V167.426C283.524 166.357 282.658 165.49 281.59 165.49Z" fill="#9D9F9F"/>
<path d="M282.887 165.49H274.463C274.111 165.49 273.826 165.776 273.826 166.128V223.054C273.826 223.406 274.111 223.692 274.463 223.692H282.887C283.239 223.692 283.524 223.406 283.524 223.054V166.128C283.524 165.776 283.239 165.49 282.887 165.49Z" fill="#454851"/>
<path d="M258.832 231.545H219.82L235.994 210.767C235.993 210.672 236.011 210.578 236.047 210.49C236.083 210.402 236.137 210.322 236.204 210.255C236.271 210.187 236.351 210.134 236.438 210.098C236.526 210.062 236.62 210.044 236.715 210.044H240.517C240.612 210.044 240.706 210.062 240.794 210.098C240.882 210.134 240.962 210.187 241.029 210.255C241.096 210.322 241.149 210.402 241.185 210.49C241.221 210.578 241.239 210.672 241.239 210.767L258.832 231.545Z" fill="#E3EAF3"/>
<path d="M241.239 210.762C241.239 210.667 241.221 210.573 241.185 210.485C241.149 210.397 241.096 210.317 241.029 210.25C240.962 210.183 240.882 210.129 240.794 210.093C240.706 210.057 240.612 210.039 240.517 210.04H236.715C236.62 210.039 236.526 210.057 236.438 210.093C236.351 210.129 236.271 210.183 236.204 210.25C236.137 210.317 236.083 210.397 236.047 210.485C236.011 210.573 235.993 210.667 235.994 210.762L234.777 212.321L251.045 231.545H258.832L241.239 210.762Z" fill="#ABBCCA"/>
<path d="M218.382 231.545H258.808C259.062 231.545 259.314 231.595 259.548 231.692C259.783 231.789 259.996 231.932 260.176 232.112C260.355 232.292 260.498 232.505 260.595 232.74C260.692 232.975 260.742 233.227 260.742 233.481V237.858H216.471V233.481C216.471 232.971 216.672 232.482 217.029 232.12C217.387 231.758 217.873 231.551 218.382 231.545Z" fill="#9D9F9F"/>
<path d="M255.214 231.545H260.035C260.227 231.545 260.412 231.621 260.548 231.758C260.684 231.894 260.761 232.079 260.761 232.272V237.858H254.488V232.272C254.488 232.079 254.564 231.894 254.701 231.758C254.837 231.621 255.022 231.545 255.214 231.545Z" fill="#454851"/>
<path d="M240.673 183.831H233.843C231.822 183.831 230.183 185.472 230.183 187.496V193.016C230.183 195.04 231.822 196.68 233.843 196.68H240.673C242.694 196.68 244.333 195.04 244.333 193.016V187.496C244.333 185.472 242.694 183.831 240.673 183.831Z" fill="#E3EAF3"/>
<path d="M243.588 251.161H236.041V389.541H243.588V251.161Z" fill="#396E8E"/>
<path d="M432.254 247.383H184.2V358.846H432.254V247.383Z" fill="#54A4CC"/>
<path d="M432.249 247.383H376.781V358.846H432.249V247.383Z" fill="#396E8E"/>
<path d="M334.945 283.286H223.631V316.814H334.945V283.286Z" fill="#E3EAF3"/>
<path d="M187.973 251.161H180.427V389.777H187.973V251.161Z" fill="#54A4CC"/>
<path d="M448.079 237.858H168.376V251.161H448.079V237.858Z" fill="#895237"/>
<path d="M436.028 251.161H428.481V389.541H436.028V251.161Z" fill="#396E8E"/>
<path d="M380.555 251.161H373.008V389.777H380.555V251.161Z" fill="#54A4CC"/>
<path d="M448.079 237.858H168.376V251.161H448.079V237.858Z" fill="#C9EFFB"/>
<path d="M448.074 237.858H361.217V251.161H448.074V237.858Z" fill="#87DBF6"/>
<path d="M113.738 133.167C113.738 133.167 108.71 133.417 108.427 139.187C108.144 144.958 103.809 143.348 103.809 143.348C103.809 143.348 106.71 147.768 112.521 143.178C118.332 138.588 119.091 137.983 119.091 137.983C119.091 137.983 119.068 133.393 114.115 133.138" fill="#000001"/>
<path d="M111.455 145.241C111.455 145.241 112.634 159.55 118.285 165.755C123.935 171.96 118.388 144.769 118.388 144.769L111.455 145.241Z" fill="#000001"/>
<path d="M129.609 172.706C129.312 171.657 130.529 169.112 131.307 167.644C126.19 168.427 120.091 164.81 116.917 158.407C116.726 158.511 116.521 158.584 116.308 158.624C116.308 158.624 115.813 171.95 112.926 172.111C109.554 175.01 98.5359 184.814 100.781 189.361C102.668 193.177 112.837 191.207 128.006 188.275C129.481 188.046 130.856 187.389 131.963 186.386C135.142 183.345 134.274 177.886 133.85 176.654C133.246 175.043 130.034 174.212 129.609 172.706Z" fill="#EA9D7D"/>
<path d="M118.549 174.222C116.535 169.858 120.761 168.933 120.761 168.933L120.733 168.871C123.525 170.76 126.642 171.577 129.439 171.029C129.572 171.006 129.699 170.973 129.831 170.94C130.232 169.79 130.725 168.675 131.307 167.606C126.19 168.394 120.383 164.437 117.209 158.029C117.133 158.202 117.006 158.349 116.845 158.449C116.684 158.549 116.497 158.599 116.308 158.591C116.308 158.591 116.214 161.07 115.879 163.899C115.436 167.639 114.568 172.016 112.922 172.106C108.351 175.992 97.3143 185.881 99.5311 190.263C101.748 194.645 116.893 193.096 128.001 188.27C129.689 187.534 131.076 186.816 132.081 186.258C125.147 187.023 120.355 178.136 118.549 174.222Z" fill="#D18165"/>
<path d="M123.388 133.271C117.539 134.413 113.955 141.87 114.775 150.526H114.733C113.134 150.837 112.191 152.887 112.625 155.139C113.058 157.392 114.709 158.917 116.308 158.619C116.49 158.613 116.668 158.567 116.831 158.486C116.994 158.404 117.137 158.289 117.252 158.147C120.501 164.697 126.463 168.588 131.652 167.592C138.095 166.336 140.373 158.379 138.472 148.637C136.571 138.895 129.826 132.014 123.388 133.271Z" fill="#EA9D7D"/>
<path d="M129.755 160.707C131.545 160.829 133.324 161.072 135.081 161.434C135.081 161.434 134.906 158.903 132.793 158.6C130.68 158.298 129.755 160.707 129.755 160.707Z" fill="#BE3E5F"/>
<path d="M134.274 148.009C134.486 148.953 134.67 149.897 134.93 150.809C135.047 151.237 135.215 151.649 135.43 152.037C135.519 152.197 135.684 152.414 135.816 152.617C135.948 152.82 136.085 153.038 136.208 153.264C136.505 153.753 136.657 154.317 136.647 154.889C136.615 155.235 136.457 155.558 136.203 155.795C135.978 155.999 135.706 156.142 135.411 156.211C134.413 156.402 133.382 156.329 132.42 155.999C133.353 155.958 134.277 155.799 135.17 155.526C135.339 155.457 135.491 155.354 135.618 155.224C135.665 155.173 135.701 155.112 135.725 155.047C135.748 154.981 135.759 154.911 135.755 154.842C135.717 154.446 135.588 154.064 135.378 153.727C135.274 153.529 135.156 153.33 135.029 153.132C134.901 152.934 134.779 152.75 134.651 152.48C134.426 152.007 134.279 151.5 134.217 150.979C134.074 149.992 134.093 148.989 134.274 148.009Z" fill="#D18165"/>
<path d="M125.727 146.738C126.676 146.713 127.622 146.621 128.557 146.464C129.011 146.385 129.457 146.27 129.892 146.12C130.364 145.983 130.76 145.77 131.237 145.577C130.958 146.011 130.579 146.372 130.133 146.63C129.69 146.901 129.201 147.087 128.69 147.178C128.185 147.266 127.669 147.277 127.161 147.211C126.656 147.151 126.169 146.991 125.727 146.738Z" fill="#000001"/>
<path d="M137.604 145.279C137.679 145.506 137.755 145.751 137.826 145.968H137.755C137.25 146.06 136.735 146.071 136.227 146.002C135.72 145.943 135.231 145.782 134.788 145.529C135.731 145.509 136.672 145.425 137.604 145.279Z" fill="#000001"/>
<path d="M137.255 151.583C137.162 151.602 137.066 151.602 136.973 151.583C136.881 151.564 136.792 151.527 136.714 151.474C136.635 151.421 136.568 151.353 136.516 151.273C136.464 151.194 136.428 151.105 136.411 151.012L136.005 148.934C135.98 148.751 136.026 148.565 136.133 148.415C136.241 148.264 136.402 148.161 136.583 148.126C136.764 148.091 136.952 148.127 137.108 148.226C137.264 148.326 137.375 148.481 137.42 148.66L137.821 150.738C137.84 150.831 137.84 150.926 137.821 151.019C137.803 151.112 137.766 151.2 137.713 151.278C137.661 151.357 137.593 151.424 137.515 151.477C137.436 151.529 137.348 151.565 137.255 151.583Z" fill="#000001"/>
<path d="M129.987 152.022C129.893 152.042 129.797 152.042 129.704 152.024C129.61 152.005 129.521 151.968 129.442 151.915C129.363 151.862 129.296 151.793 129.243 151.714C129.191 151.634 129.155 151.545 129.138 151.451L128.732 149.378C128.709 149.283 128.706 149.185 128.722 149.089C128.739 148.993 128.774 148.901 128.827 148.819C128.879 148.737 128.948 148.667 129.028 148.612C129.109 148.558 129.199 148.52 129.295 148.501C129.39 148.482 129.488 148.483 129.583 148.503C129.678 148.523 129.769 148.562 129.848 148.618C129.928 148.674 129.995 148.746 130.047 148.828C130.098 148.911 130.132 149.003 130.147 149.099L130.553 151.177C130.589 151.364 130.549 151.558 130.443 151.716C130.337 151.875 130.173 151.985 129.987 152.022Z" fill="#000001"/>
<path d="M114.676 152.528C114.521 153.306 114.51 154.106 114.643 154.889C114.721 155.254 114.84 155.608 114.997 155.947C115.063 156.131 115.176 156.301 115.266 156.499C115.356 156.697 115.478 156.867 115.568 157.094C115.344 157.026 115.129 156.933 114.926 156.815C114.729 156.689 114.549 156.538 114.389 156.367C114.049 156.009 113.817 155.562 113.719 155.078C113.615 154.594 113.652 154.091 113.827 153.628C113.986 153.18 114.284 152.795 114.676 152.528Z" fill="#D18165"/>
<path d="M114.733 150.497C114.733 150.497 117.497 160.234 119.77 163.464C121.874 166.449 125.808 169.4 131.935 168.753C133.098 168.639 134.204 168.19 135.118 167.459C136.911 166.01 139.477 162.959 138.986 157.576C138.986 157.576 137.425 155.805 133.218 155.895C129.01 155.984 127.949 157.066 127.227 157.883C126.506 158.7 123.294 162.633 121.69 161.401C120.086 160.168 116.214 152.244 118.039 147.975C119.865 143.707 121.968 145.473 119.737 140.609C119.737 140.609 122.93 139.438 128.51 140.665C129.659 140.932 130.865 140.774 131.906 140.222C132.746 139.749 133.501 139.079 133.43 138.12C134.918 139.976 136.184 142 137.203 144.15C137.203 144.15 139.906 140.037 136.132 136.628C132.92 133.724 131.916 131.986 130.84 131.58C128.708 130.772 127.817 132.052 125.718 132.42C123.619 132.789 123.218 131.452 120.775 132.756C118.332 134.059 117.289 136.028 116.454 137.894C116.454 137.894 114.054 137.563 111.865 141.874C110.903 143.787 110.559 153.529 114.733 150.497ZM129.086 157.977C129.656 157.425 131.307 156.527 133.703 156.952C135.991 157.354 136.298 158.841 136.651 159.975C136.829 160.516 136.884 161.09 136.812 161.656C136.651 162.789 136.071 163.205 135.066 163.318C133.821 163.45 133.548 161.632 132.656 161.731C131.765 161.83 131.892 163.365 129.685 163.46C127.477 163.554 127.614 159.394 129.086 157.977Z" fill="#000001"/>
<path d="M152.82 389.083C146.217 390.027 139.788 387.817 137.43 385.881C135.071 383.945 131.237 384.71 131.237 384.71L131.35 389.314L124.449 389.111C124.449 389.111 124.11 384.545 123.798 380.436C123.643 378.378 124.312 377.235 124.577 375.242C124.841 373.249 126.265 370.048 126.265 370.048C129.991 370.17 139.595 370.732 141.359 368.598C142.036 369.976 142.944 371.228 144.042 372.3C144.396 372.664 144.778 373.022 145.165 373.372C145.552 373.721 145.825 373.92 146.165 374.189C146.603 374.534 147.047 374.874 147.514 375.209C152.23 378.543 158.107 381.097 161.357 383.468C166.442 387.222 159.423 388.134 152.82 389.083Z" fill="#EA9D7D"/>
<path d="M87.0037 385.621C80.9003 382.92 76.627 377.627 75.6553 374.732C74.6837 371.837 71.1698 369.878 71.1698 369.878L69.236 372.966L63.4816 369.122C63.4816 369.122 65.0617 366.515 66.9767 362.865C67.92 361.042 69.1133 360.428 70.3821 358.894C71.6509 357.359 74.5564 355.399 74.5564 355.399C77.6505 357.482 85.4896 363.063 88.1073 362.18C87.9486 363.707 88.0539 365.251 88.4187 366.742C88.5271 367.243 88.6592 367.748 88.8054 368.248C88.9375 368.664 89.0743 369.065 89.2158 369.476C89.4044 370 89.6025 370.524 89.8242 371.053C92.0363 376.38 95.6776 381.674 97.1728 385.409C99.5217 391.283 93.107 388.322 87.0037 385.621Z" fill="#EA9D7D"/>
<path d="M126.265 370.076C126.265 370.076 123.492 376.323 123.803 380.436C123.874 381.381 123.94 382.193 124.001 382.854C126.44 382.901 129.284 382.694 128.166 381.367C126.308 379.166 127.803 370.118 127.803 370.118L126.265 370.076Z" fill="#7C2F13"/>
<path d="M162.39 384.389C162.067 384.06 161.717 383.76 161.343 383.492C159.197 381.924 155.891 380.271 152.542 378.373C149.893 379.11 147.524 380.623 145.74 382.717C144.198 384.606 144.075 387.657 143.66 388.176C145.368 389.895 162.73 387.704 163.06 385.985C163.062 385.966 163.062 385.947 163.06 385.928C163.027 385.352 162.789 384.806 162.39 384.389Z" fill="#7C2F13"/>
<path d="M152.82 389.083C158.122 388.318 163.668 387.591 163.027 385.399C146.769 391.066 139.528 385.182 138.123 383.35C136.717 381.518 133.755 381.612 133.755 381.612C128.355 382.084 125.303 380.668 123.746 379.487C123.746 379.808 123.746 380.129 123.789 380.432C124.096 384.54 124.44 389.106 124.44 389.106L131.354 389.309L131.241 384.705C131.241 384.705 134.854 384.129 137.08 387.161C138.745 389.418 146.217 390.056 152.82 389.083Z" fill="#7C2F13"/>
<path d="M137.095 370.076C137.691 371.363 138.502 372.54 139.491 373.556C140.444 374.592 141.487 375.54 142.608 376.389C143.72 377.242 144.891 378.014 146.113 378.699C146.721 379.039 147.349 379.35 148 379.643C148.65 379.936 149.287 380.2 149.957 380.422C149.443 379.95 148.9 379.478 148.363 379.053C147.825 378.628 147.292 378.179 146.74 377.764C145.67 376.904 144.566 376.092 143.49 375.251C142.415 374.411 141.33 373.584 140.264 372.734C139.198 371.884 138.123 371.039 137.095 370.076Z" fill="#7C2F13"/>
<path d="M74.5611 355.399C74.5611 355.399 68.9011 359.219 66.9814 362.87C66.5333 363.724 66.1702 364.433 65.8683 365.028C67.9106 366.359 70.434 367.696 70.1888 365.972C69.7784 363.139 75.8488 356.244 75.8488 356.244C75.3488 355.923 74.9101 355.635 74.5611 355.399Z" fill="#7C2F13"/>
<path d="M97.5878 386.75C97.4922 386.301 97.3548 385.861 97.1775 385.437C96.1917 382.963 94.2626 379.808 92.4325 376.418C89.795 375.639 86.9858 375.664 84.3623 376.489C82.0606 377.268 80.3343 379.794 79.707 380.011C80.2447 382.372 96.1163 389.749 97.3143 388.464L97.352 388.417C97.6325 387.909 97.7165 387.316 97.5878 386.75Z" fill="#7C2F13"/>
<path d="M87.0084 385.621C91.909 387.794 97.003 390.122 97.6067 387.921C80.8295 384.082 77.7967 375.251 77.5892 372.952C77.3816 370.652 74.8063 369.174 74.8063 369.174C69.9765 366.714 68.1464 363.88 67.4483 362.053C67.2833 362.331 67.1229 362.61 66.9767 362.884C65.0617 366.534 63.4816 369.136 63.4816 369.136L69.236 372.98L71.1651 369.892C71.1651 369.892 74.679 371.856 75.6553 374.746C76.6317 377.636 80.905 382.925 87.0084 385.621Z" fill="#7C2F13"/>
<path d="M83.7397 361.151C83.5646 362.558 83.6268 363.985 83.9237 365.372C84.1843 366.757 84.5663 368.116 85.0651 369.434C85.552 370.748 86.1353 372.025 86.8103 373.254C87.1452 373.868 87.5131 374.463 87.8857 375.058C88.2583 375.653 88.6828 376.215 89.1309 376.758C88.9611 376.068 88.73 375.407 88.5083 374.751C88.2866 374.094 88.0366 373.438 87.8149 372.796C87.3433 371.497 86.8716 370.222 86.3999 368.938C85.9283 367.653 85.4566 366.383 84.9849 365.094C84.5133 363.805 84.1029 362.511 83.7397 361.151Z" fill="#7C2F13"/>
<path d="M137.099 232.154C137.099 232.154 144.467 297.571 144.698 303.337C144.929 309.102 141.59 369.032 141.59 369.032C141.59 369.032 132.628 372.645 126.199 370.184C126.199 370.184 121.133 324.237 121.902 312.573L120.214 290.417C120.214 290.417 118.832 308.857 117.45 311.01C116.068 313.164 89.2063 363.724 89.2063 363.724C89.2063 363.724 73.8583 356.806 73.8583 354.809C73.8583 354.809 82.7586 317.924 94.1164 307.629L94.272 264.832C91.7254 258.386 90.7771 251.419 91.508 244.526C91.9952 240.151 93.16 235.878 94.9606 231.861C94.9606 231.861 127.892 236.767 137.099 232.154Z" fill="#FFC065"/>
<path d="M120.747 283.281C121.978 269.115 124.52 255.529 125.35 255.619C125.987 255.685 125.35 262.735 125.119 278.899C124.949 292.088 125.209 300.943 125.591 313.48C126.312 337.941 127.289 342.134 128.341 345.52C131.085 354.192 135.598 362.198 141.594 369.032C138.576 370.397 133.68 371.96 128.213 370.751C127.533 370.603 126.862 370.414 126.204 370.184C126.204 370.184 121.138 324.237 121.907 312.573L120.275 291.139C120.332 289 120.459 286.639 120.747 283.281Z" fill="#FFAA39"/>
<path d="M85.2773 340.335C87.164 330.201 92.89 328.209 97.602 316.351C100.432 309.211 100.762 301.018 101.418 284.632C102.422 259.5 99.7764 257.578 103.083 251.468C111.794 235.379 137.458 234.845 137.099 232.154C127.157 235.573 99.55 232.461 95.4701 231.941L95.1399 231.899H94.9795C93.1717 235.911 91.9989 240.181 91.5033 244.554C90.7723 251.447 91.7207 258.414 94.2673 264.86L94.1117 307.657C82.7539 317.952 73.8536 354.837 73.8536 354.837C74.2073 355.309 74.5894 355.749 74.9997 356.192C78.0844 358.587 86.5084 362.515 88.6781 363.512H88.7205H88.763L88.8762 363.559L88.9422 363.592H88.9846L89.0507 363.62H89.0743L89.1969 363.677C86.4754 358.119 83.5227 349.68 85.2773 340.335Z" fill="#FFAA39"/>
<path d="M115.605 238.944C115.605 238.944 108.53 249.333 100.984 250.278" stroke="white" stroke-width="3" stroke-miterlimit="10" stroke-linecap="round"/>
<path d="M108.295 246.807C108.295 246.807 107.351 296.81 104.05 307.199C100.748 317.588 89.7487 320.082 79.6833 359.21" stroke="white" stroke-width="3" stroke-miterlimit="10"/>
<path d="M148.613 202.026L154.81 218.814C155.014 219.364 155.362 219.849 155.817 220.218C156.273 220.587 156.82 220.826 157.4 220.91L180.648 224.273C181.522 224.401 182.413 224.338 183.261 224.09C184.108 223.841 184.892 223.412 185.558 222.832C188.134 220.599 192.27 217.128 193.138 217.128C194.416 217.128 196.694 217.921 191.431 222.511C191.431 222.511 192.223 223.182 194.732 223.182C197.242 223.182 206.93 222.898 207.142 223.682C207.354 224.466 209.774 226.105 196.614 226.388C196.614 226.388 196.044 227.597 197.185 227.597C198.326 227.597 209.137 227.526 208.066 228.952C206.996 230.378 205.434 230.09 196.826 230.237C196.826 230.237 196.185 231.181 196.614 231.304C197.043 231.427 207.288 231.729 207.288 232.584C207.288 233.438 209.137 234.51 194.478 233.797C194.478 233.797 194.265 234.269 195.761 234.742C197.256 235.214 203.779 236.805 202.09 237.575C200.402 238.345 200.171 238.005 192.558 235.936L185.922 234.869C184.79 234.684 183.637 234.672 182.502 234.831C175.559 235.809 149.556 238.028 143.099 231.313C137.047 225.023 133.793 202.531 133.793 202.531L148.613 202.026Z" fill="#EA9D7D"/>
<path d="M207.312 232.584C207.312 231.729 197.062 231.446 196.638 231.304C196.213 231.162 196.85 230.237 196.85 230.237C203.42 230.128 205.887 230.265 207.161 229.703C204.034 228.735 198.161 229.882 187.978 230.95C169.479 232.891 164.074 231.715 161.942 231.176C156.079 229.698 150.485 228.112 147 223.243C142.755 217.312 144.533 210.399 144.688 202.158L133.817 202.527C133.817 202.527 137.071 225.019 143.123 231.309C149.575 238.019 175.526 235.809 182.502 234.827C183.645 234.667 184.806 234.68 185.945 234.864L192.582 235.932C200.194 238 200.406 238.354 202.114 237.57C203.821 236.786 197.279 235.148 195.784 234.737C194.289 234.326 194.501 233.792 194.501 233.792C209.161 234.51 207.312 233.438 207.312 232.584Z" fill="#D18165"/>
<path d="M191.445 222.511C191.445 222.511 191.124 230.411 183.865 229.878" stroke="#2F170B" stroke-width="2" stroke-miterlimit="10"/>
<path d="M180.016 224.178V234.652" stroke="#2F170B" stroke-width="6" stroke-linecap="round" stroke-linejoin="round"/>
<path d="M157.881 218.946C157.347 218.773 156.863 218.474 156.468 218.076C156.072 217.678 155.777 217.191 155.608 216.656L145.504 185.371C144.409 181.831 142.272 178.704 139.373 176.399C138.635 175.807 137.834 175.297 136.986 174.878C136.913 174.842 136.831 174.826 136.75 174.831C136.668 174.836 136.589 174.862 136.52 174.907C136.452 174.951 136.396 175.013 136.359 175.086C136.321 175.159 136.303 175.24 136.307 175.322L137.208 203.089L137.953 223.04C138.085 226.618 139.598 230.006 142.173 232.491C144.749 234.975 148.187 236.363 151.763 236.361H178.365L177.686 222.988C178.238 223.002 163.263 220.669 157.881 218.946Z" fill="#25BEEF"/>
<path d="M178.153 231.767C157.532 234.01 150.174 229.764 147.339 225.326C144.118 220.282 144.236 211.074 144.368 201.016C144.368 201.016 144.481 192.492 141.34 185.39C140.778 184.119 139.227 180.667 137.491 180.743C137.121 180.779 136.776 180.946 136.519 181.215L137.227 203.093L137.972 223.045C138.104 226.623 139.617 230.011 142.192 232.495C144.768 234.98 148.206 236.367 151.782 236.366H178.384L178.153 231.767Z" fill="#1A87C4"/>
<path d="M136.458 235.289H94.5833C94.3963 235.289 94.2115 235.248 94.0423 235.168C93.873 235.088 93.7234 234.972 93.6041 234.828C93.4847 234.683 93.3986 234.515 93.3518 234.333C93.3051 234.152 93.2988 233.962 93.3334 233.778L104.597 173.707L113.483 171.738C116.657 178.476 126.435 178.783 129.557 172.021L136.302 174.59C137.466 174.873 138.494 175.554 139.209 176.515C139.924 177.477 140.281 178.658 140.217 179.855L140.146 181.985C139.59 199.105 139.03 216.223 138.467 233.339C138.462 233.481 138.425 234.17 136.458 235.289Z" fill="#25BEEF"/>
<path d="M68.3917 266.536C68.6076 265.686 68.7231 264.812 68.736 263.934C68.8445 256.587 69.5473 228.541 73.7734 215.768C75.1224 211.693 87.4847 190.957 87.4847 190.957L105.139 194.697L89.5742 220.57C88.8847 221.717 88.3771 222.965 88.0696 224.268L78.5844 264.714C78.4554 265.268 78.4515 265.845 78.5731 266.401C78.6946 266.957 78.9386 267.479 79.2872 267.929C81.2823 270.494 85.2349 275.707 85.1736 276.661C85.084 277.941 84.1406 280.16 79.9192 274.597C79.9192 274.597 79.1976 275.343 79.0325 277.86C78.8674 280.377 78.4995 290.063 77.7071 290.223C76.9147 290.384 75.1176 292.693 75.7119 279.527C75.7119 279.527 74.5422 278.876 74.4667 279.999C74.3913 281.123 73.7404 291.947 72.3914 290.785C71.0424 289.623 71.4481 288.079 71.8631 279.452C71.8631 279.452 70.9811 278.748 70.8113 279.164C70.6415 279.579 69.6746 289.798 68.8209 289.741C67.9672 289.685 66.7833 291.46 68.4719 276.869C68.4719 276.869 68.0002 276.618 67.4625 278.082C66.9248 279.546 64.8683 285.978 64.1986 284.221C63.5288 282.464 63.9014 282.271 66.4673 274.805L68.3917 266.536Z" fill="#EA9D7D"/>
<path d="M105.125 194.693L100.96 193.809C97.8473 197.767 93.9796 200.638 88.9422 208.023C85.0132 213.78 82.4709 219.635 81.3436 222.11C78.2495 228.891 78.8768 232.352 76.8156 249.083C75.5752 259.132 74.9573 264.156 74.3064 266.782C74.3064 266.782 69.6463 285.6 71.9197 290.261C72.0262 290.478 72.1892 290.662 72.3914 290.794C73.7404 291.956 74.3913 281.147 74.4667 280.009C74.5422 278.871 75.7119 279.537 75.7119 279.537C75.1176 292.702 76.91 290.398 77.7071 290.232C78.5042 290.067 78.8627 280.429 79.0278 277.889C79.1928 275.372 79.9145 274.626 79.9145 274.626C84.1359 280.188 85.0792 277.969 85.1689 276.689C85.2302 275.745 81.2776 270.522 79.2825 267.958C78.9339 267.508 78.6899 266.986 78.5683 266.429C78.4468 265.873 78.4506 265.297 78.5797 264.742L88.0649 224.296C88.3724 222.993 88.88 221.746 89.5695 220.599L105.125 194.693Z" fill="#D18165"/>
<path d="M68.7784 263.576C68.483 263.577 68.1981 263.466 67.9823 263.264C67.7665 263.062 67.6362 262.785 67.6181 262.489C67.2597 256.823 68.0898 230.61 71.2924 217.506C73.6507 207.934 90.5223 183.137 90.5223 183.137C90.5223 183.137 98.2859 175.001 104.597 173.693L108.191 192.459L90.0317 222.497C89.8572 222.766 82.6171 255.595 80.8861 262.357C80.7971 262.702 80.5958 263.008 80.3139 263.226C80.0321 263.444 79.6858 263.562 79.3296 263.561L68.7784 263.576Z" fill="#25BEEF"/>
<path d="M95.4748 211.815L108.101 192.605L108.073 192.421C108.02 192.071 107.876 191.741 107.657 191.463C107.438 191.186 107.151 190.97 106.823 190.836C106.496 190.703 106.139 190.657 105.788 190.703C105.438 190.749 105.105 190.886 104.823 191.099C102.413 192.931 99.333 196.095 96.5124 198.99C93.5692 202.012 90.4091 205.256 88.9422 208.023L94.6022 211.985C94.7407 212.078 94.91 212.112 95.0734 212.08C95.2368 212.048 95.381 211.953 95.4748 211.815Z" fill="#1A87C4"/>
<path d="M138.467 233.339C135.694 232.362 128.487 232.324 117.568 228.881C107.323 225.651 105.257 223.026 104.323 221.146C102.13 216.726 103.564 211.126 104.153 208.821C105.21 204.685 105.512 203.103 107.634 197.856C108.347 196.095 108.578 191.831 107.634 191.481C106.535 191.075 102.21 196.034 99.0312 202.631L93.39 233.75C93.3491 233.936 93.3504 234.13 93.394 234.315C93.4376 234.501 93.5222 234.675 93.6417 234.823C93.7612 234.972 93.9125 235.092 94.0845 235.174C94.2564 235.256 94.4446 235.299 94.6352 235.299H136.458C136.98 235.298 137.481 235.094 137.856 234.73C138.231 234.366 138.45 233.871 138.467 233.349V233.339Z" fill="#1A87C4"/>
<path d="M79.3296 263.576C79.6858 263.576 80.0321 263.459 80.3139 263.241C80.5957 263.022 80.7971 262.717 80.8861 262.371C82.6171 255.609 89.8478 222.78 90.0317 222.511L101.823 202.975L103.054 197.016L88.9044 208.023C88.9044 208.023 83.202 215.041 81.6738 224.178C80.1456 233.316 74.8865 263.543 74.8818 263.576H79.3296Z" fill="#1A87C4"/>
</g>
<defs>
<clipPath id="clip0_1_663">
<rect width="566" height="425" fill="white"/>
</clipPath>
</defs>
</svg>
