<svg width="240" height="135" viewBox="0 0 240 135" fill="none" xmlns="http://www.w3.org/2000/svg">
<g clip-path="url(#clip0_28_69)">
<path opacity="0.1" d="M40.8625 33.6375C83.5875 23.8625 88.1625 -0.0124951 115.775 4.90649e-06C143.387 0.0125049 146.5 24.0875 172.037 15.575C197.575 7.0625 221.287 13.5375 224.462 50.45C227.637 87.3625 214.725 116.788 145.662 103.475C76.6 90.1625 86.3625 124.5 55.3 120.025C24.2375 115.563 -1.86251 43.4125 40.8625 33.6375Z" fill="#2A94F4"/>
<path opacity="0.1" d="M119.287 134.15C148.924 134.15 172.95 131.066 172.95 127.262C172.95 123.459 148.924 120.375 119.287 120.375C89.6505 120.375 65.625 123.459 65.625 127.262C65.625 131.066 89.6505 134.15 119.287 134.15Z" fill="#34C3EA"/>
<path d="M111.625 78.675H126.95V125.225H111.625V78.675Z" fill="#0B4870"/>
<path d="M54.3125 105.612H184.25C184.912 105.612 185.45 105.075 185.45 104.412V13.4625C185.45 12.8 184.912 12.2625 184.25 12.2625H54.3125C53.65 12.2625 53.1125 12.8 53.1125 13.4625V104.425C53.1125 105.087 53.65 105.612 54.3125 105.612Z" fill="#0E538C"/>
<path d="M115.013 97.6876C115.013 100.05 116.925 101.963 119.288 101.963C121.65 101.963 123.563 100.05 123.563 97.6876C123.563 95.3251 121.65 93.4251 119.288 93.4251C116.925 93.4126 115.013 95.3251 115.013 97.6876Z" fill="#163C47"/>
<path d="M84.8125 119.688H153.762V127.262H84.8125V119.688Z" fill="#0E538C"/>
<path d="M180.538 88.6436L57.7875 88.6436L57.7875 16.8311L180.538 16.8311V88.6436Z" fill="#CCE9FF"/>
<path d="M63.1375 22.175H174.988V29.05H63.1375V22.175Z" fill="#2A94F4"/>
<path d="M63.1375 29.05H174.988V71.45H63.1375V29.05Z" fill="#F7F7F7"/>
<path d="M59.9 54.2375H111.575V83.375H59.9V54.2375Z" fill="#31A1F4"/>
<path d="M59.9 51.3501H112.325V54.2376H59.9V51.3501Z" fill="#D3D3D3"/>
<path d="M83.6 58.0375H103.8V58.3876H83.6V58.0375ZM62.2375 56.7375H108.175V57.0876H62.2375V56.7375ZM62.2375 58.0375H82.4375V58.3876H62.2375V58.0375ZM104.775 58.0375H108.175V58.3876H104.775V58.0375Z" fill="white"/>
<path d="M86.8025 61.3301H66.6025V60.9801H86.8025V61.3301Z" fill="white"/>
<path d="M108.165 62.6389L62.228 62.6389V62.2889L108.165 62.2889V62.6389Z" fill="white"/>
<path d="M108.167 61.3301H87.9672V60.9801H108.167V61.3301Z" fill="white"/>
<path d="M65.6238 61.3301H62.2238V60.9801H65.6238V61.3301Z" fill="white"/>
<path d="M62.2375 59.3374H108.175V59.6874H62.2375V59.3374ZM83.6 65.2999H103.8V65.6499H83.6V65.2999ZM62.2375 63.9999H108.175V64.3499H62.2375V63.9999ZM62.2375 65.2999H82.4375V65.6499H62.2375V65.2999ZM104.775 65.2999H108.175V65.6499H104.775V65.2999Z" fill="white"/>
<path d="M86.8025 68.6038H66.6025V68.2538H86.8025V68.6038Z" fill="white"/>
<path d="M108.165 69.9001H62.228V69.5501H108.165V69.9001Z" fill="white"/>
<path d="M108.167 68.6038H87.9672V68.2538H108.167V68.6038Z" fill="white"/>
<path d="M65.6238 68.6038H62.2238V68.2538H65.6238V68.6038Z" fill="white"/>
<path d="M62.2375 66.6001H108.175V66.9501H62.2375V66.6001Z" fill="white"/>
<path d="M110.413 54.2375H112.313V83.375H110.413V54.2375Z" fill="#ADCFE0"/>
<path d="M116.163 41.3H174.988V48.175H116.163V41.3Z" fill="#31A1F4"/>
<path d="M116.163 48.175H174.988V83.3626H116.163V48.175Z" fill="#F7F7F7"/>
<path d="M111.963 54.6499H110.763C110.563 54.6499 110.413 54.8124 110.413 54.9999V56.3874C110.413 56.5874 110.575 56.7374 110.763 56.7374H111.963C112.163 56.7374 112.313 56.5749 112.313 56.3874V54.9999C112.325 54.8124 112.163 54.6499 111.963 54.6499Z" fill="#E9F8FF"/>
<path d="M133.137 92.5579L137.926 86.2907L154.125 98.6697L149.336 104.937L133.137 92.5579Z" fill="#FFBE55"/>
<path opacity="0.08" d="M133.137 92.5579L137.926 86.2907L154.125 98.6697L149.336 104.937L133.137 92.5579Z" fill="black"/>
<path d="M180.188 121.113L177.825 124.2C176.3 126.2 173.438 126.588 171.438 125.05L145.75 105.425L153.65 95.1001L179.337 114.725C181.337 116.25 181.712 119.113 180.188 121.113Z" fill="#FFBE55"/>
<path d="M106.275 105.213C128.097 105.213 145.788 87.5221 145.788 65.7C145.788 43.8778 128.097 26.1875 106.275 26.1875C84.4529 26.1875 66.7625 43.8778 66.7625 65.7C66.7625 87.5221 84.4529 105.213 106.275 105.213Z" fill="#FFBE55"/>
<mask id="mask0_28_69" style="mask-type:luminance" maskUnits="userSpaceOnUse" x="73" y="33" width="66" height="66">
<path d="M106.275 98.5999C124.314 98.5999 138.937 83.9764 138.937 65.9374C138.937 47.8984 124.314 33.2749 106.275 33.2749C88.236 33.2749 73.6125 47.8984 73.6125 65.9374C73.6125 83.9764 88.236 98.5999 106.275 98.5999Z" fill="white"/>
</mask>
<g mask="url(#mask0_28_69)">
<path d="M164.617 111.458L31.5297 111.458V26.233L164.617 26.233V111.458Z" fill="#CCE9FF"/>
<path d="M37.325 25.6123H158.588V80.8998H37.325V25.6123Z" fill="#F7F7F7"/>
<path d="M35.2625 50.2998H127.088V102.062H35.2625V50.2998Z" fill="#2A94F4"/>
<path d="M35.2625 45.1873H128.413V50.3123H35.2625V45.1873Z" fill="#D3D3D3"/>
<path d="M77.3875 57.0623H113.275V57.6873H77.3875V57.0623ZM39.4125 54.7498H121.037V55.3748H39.4125V54.7498ZM39.4125 57.0623H75.3V57.6873H39.4125V57.0623ZM115.012 57.0623H121.05V57.6873H115.012V57.0623Z" fill="white"/>
<path d="M83.0752 62.9224L47.1877 62.9224V62.2974L83.0752 62.2974V62.9224Z" fill="white"/>
<path d="M121.047 65.2458L39.4222 65.2458V64.6208L121.047 64.6208V65.2458Z" fill="white"/>
<path d="M121.047 62.9224L85.16 62.9224V62.2974L121.047 62.2974V62.9224Z" fill="white"/>
<path d="M39.4125 59.3872H121.037V60.0122H39.4125V59.3872ZM77.3875 69.9747H113.275V70.5997H77.3875V69.9747ZM39.4125 67.6497H121.037V68.2747H39.4125V67.6497ZM39.4125 69.9747H75.3V70.5997H39.4125V69.9747ZM115.012 69.9747H121.05V70.5997H115.012V69.9747Z" fill="white"/>
<path d="M83.0752 75.8306H47.1877V75.2056H83.0752V75.8306Z" fill="white"/>
<path d="M121.047 78.1543L39.4222 78.1543V77.5293L121.047 77.5293V78.1543Z" fill="white"/>
<path d="M121.047 75.8306H85.16V75.2056H121.047V75.8306Z" fill="white"/>
<path d="M39.4125 72.2874H121.037V72.9124H39.4125V72.2874Z" fill="white"/>
<path d="M125.037 50.2998H128.425V102.062H125.037V50.2998Z" fill="#CCE9FF"/>
<path d="M128.062 51.0374H125.375C125.175 51.0374 125.025 51.1999 125.025 51.3874V54.3874C125.025 54.5874 125.187 54.7374 125.375 54.7374H128.062C128.262 54.7374 128.412 54.5749 128.412 54.3874V51.3874C128.412 51.1999 128.262 51.0374 128.062 51.0374Z" fill="#F7F7F7"/>
</g>
</g>
<defs>
<clipPath id="clip0_28_69">
<rect width="240" height="135" fill="white"/>
</clipPath>
</defs>
</svg>
