<svg width="283" height="42" viewBox="0 0 283 42" fill="none" xmlns="http://www.w3.org/2000/svg">
<path d="M18.08 15.52L26.4 30H16.92L10.24 17.6L8.08 30H0.2L5.2 1.8H13.04L10.88 14L21.8 1.8H30.84L18.08 15.52ZM43.3834 7.28C46.3168 7.28 48.6368 8.06667 50.3434 9.64C52.0768 11.2133 52.9434 13.36 52.9434 16.08C52.9434 16.9867 52.8768 17.7867 52.7434 18.48C52.5834 19.3333 52.4234 19.9467 52.2634 20.32H37.4234C37.3968 20.48 37.3834 20.72 37.3834 21.04C37.3834 22.0533 37.6234 22.8 38.1034 23.28C38.6101 23.76 39.2768 24 40.1034 24C41.4101 24 42.4501 23.4133 43.2234 22.24H51.5434C50.9301 23.7867 50.0101 25.1733 48.7834 26.4C47.5834 27.6 46.1568 28.5467 44.5034 29.24C42.8768 29.9333 41.1434 30.28 39.3034 30.28C36.3701 30.28 34.0368 29.48 32.3034 27.88C30.5701 26.28 29.7034 24.08 29.7034 21.28C29.7034 20.48 29.7834 19.64 29.9434 18.76C30.3701 16.4133 31.2101 14.3867 32.4634 12.68C33.7434 10.9467 35.3168 9.61333 37.1834 8.68C39.0768 7.74667 41.1434 7.28 43.3834 7.28ZM45.0234 16.8C45.0768 16.4267 45.1034 16.1867 45.1034 16.08C45.1034 15.2267 44.8368 14.5867 44.3034 14.16C43.7701 13.7067 43.0768 13.48 42.2234 13.48C41.2368 13.48 40.3834 13.76 39.6634 14.32C38.9434 14.88 38.4101 15.7067 38.0634 16.8H45.0234ZM66.9919 0.4L61.7519 30H53.8719L59.1119 0.4H66.9919ZM76.6166 30.28C74.6699 30.28 72.9366 29.8933 71.4166 29.12C69.9232 28.3467 68.7632 27.2533 67.9366 25.84C67.1099 24.4267 66.6966 22.7733 66.6966 20.88C66.6966 18.32 67.2966 16 68.4966 13.92C69.7232 11.84 71.4032 10.2133 73.5366 9.04C75.6699 7.86667 78.0566 7.28 80.6966 7.28C82.6432 7.28 84.3632 7.66667 85.8566 8.44C87.3766 9.21333 88.5499 10.32 89.3766 11.76C90.2299 13.1733 90.6566 14.8267 90.6566 16.72C90.6566 19.3067 90.0432 21.64 88.8166 23.72C87.5899 25.7733 85.9099 27.3867 83.7766 28.56C81.6432 29.7067 79.2566 30.28 76.6166 30.28ZM77.8166 23.52C78.7499 23.52 79.5766 23.2267 80.2966 22.64C81.0432 22.0533 81.6032 21.2933 81.9766 20.36C82.3766 19.4267 82.5766 18.4667 82.5766 17.48C82.5766 16.36 82.2832 15.5067 81.6966 14.92C81.1366 14.3333 80.4032 14.04 79.4966 14.04C78.5366 14.04 77.6966 14.3333 76.9766 14.92C76.2832 15.5067 75.7366 16.2667 75.3366 17.2C74.9632 18.1333 74.7766 19.1067 74.7766 20.12C74.7766 21.24 75.0566 22.0933 75.6166 22.68C76.1766 23.24 76.9099 23.52 77.8166 23.52ZM110.326 7.36C112.513 7.36 114.22 8 115.446 9.28C116.7 10.5333 117.326 12.28 117.326 14.52C117.326 15.2667 117.246 16.0667 117.086 16.92L114.766 30H106.926L109.046 17.96C109.126 17.56 109.166 17.2 109.166 16.88C109.166 15.92 108.886 15.1733 108.326 14.64C107.793 14.1067 107.033 13.84 106.046 13.84C104.926 13.84 103.98 14.1867 103.206 14.88C102.433 15.5733 101.913 16.5333 101.646 17.76L99.4863 30H91.6063L95.6063 7.56H103.446L102.886 10.76C103.766 9.74666 104.846 8.93333 106.126 8.32C107.406 7.68 108.806 7.36 110.326 7.36ZM129.628 21.6C129.601 21.7333 129.588 21.8933 129.588 22.08C129.588 22.5067 129.708 22.8267 129.948 23.04C130.215 23.2267 130.641 23.32 131.228 23.32H133.508L132.308 30H128.868C123.988 30 121.548 27.9467 121.548 23.84C121.548 23.1467 121.628 22.36 121.788 21.48L123.108 14.08H120.348L121.508 7.56H124.268L125.228 2.12H133.108L132.148 7.56H136.188L135.028 14.08H130.988L129.628 21.6ZM146.304 30.28C144.357 30.28 142.624 29.8933 141.104 29.12C139.611 28.3467 138.451 27.2533 137.624 25.84C136.797 24.4267 136.384 22.7733 136.384 20.88C136.384 18.32 136.984 16 138.184 13.92C139.411 11.84 141.091 10.2133 143.224 9.04C145.357 7.86667 147.744 7.28 150.384 7.28C152.331 7.28 154.051 7.66667 155.544 8.44C157.064 9.21333 158.237 10.32 159.064 11.76C159.917 13.1733 160.344 14.8267 160.344 16.72C160.344 19.3067 159.731 21.64 158.504 23.72C157.277 25.7733 155.597 27.3867 153.464 28.56C151.331 29.7067 148.944 30.28 146.304 30.28ZM147.504 23.52C148.437 23.52 149.264 23.2267 149.984 22.64C150.731 22.0533 151.291 21.2933 151.664 20.36C152.064 19.4267 152.264 18.4667 152.264 17.48C152.264 16.36 151.971 15.5067 151.384 14.92C150.824 14.3333 150.091 14.04 149.184 14.04C148.224 14.04 147.384 14.3333 146.664 14.92C145.971 15.5067 145.424 16.2667 145.024 17.2C144.651 18.1333 144.464 19.1067 144.464 20.12C144.464 21.24 144.744 22.0933 145.304 22.68C145.864 23.24 146.597 23.52 147.504 23.52Z" fill="#FF1D46"/>
<path d="M187.454 30H179.574L171.974 14.24L169.174 30H161.294L166.294 1.8H174.134L181.774 17.76L184.574 1.8H192.414L187.454 30ZM204.2 7.28C205.72 7.28 206.986 7.58667 208 8.2C209.04 8.81333 209.76 9.64 210.16 10.68L210.72 7.56H218.56L214.64 29.76C214.266 31.8667 213.533 33.76 212.44 35.44C211.346 37.1467 209.866 38.5067 208 39.52C206.133 40.5333 203.906 41.04 201.32 41.04C198.04 41.04 195.493 40.2933 193.68 38.8C191.893 37.3333 191 35.32 191 32.76L191.04 31.96H198.76C198.813 32.68 199.12 33.24 199.68 33.64C200.266 34.04 201.053 34.24 202.04 34.24C204.706 34.24 206.293 32.7467 206.8 29.76L207.32 26.88C206.546 27.92 205.533 28.7467 204.28 29.36C203.053 29.9733 201.68 30.28 200.16 30.28C197.813 30.28 195.92 29.5067 194.48 27.96C193.066 26.3867 192.36 24.2533 192.36 21.56C192.36 20.68 192.44 19.7467 192.6 18.76C193.026 16.44 193.813 14.4133 194.96 12.68C196.106 10.9467 197.48 9.61333 199.08 8.68C200.706 7.74667 202.413 7.28 204.2 7.28ZM208.76 18.76C208.84 18.36 208.88 17.9867 208.88 17.64C208.88 16.52 208.56 15.6533 207.92 15.04C207.306 14.4267 206.506 14.12 205.52 14.12C204.346 14.12 203.293 14.5333 202.36 15.36C201.426 16.16 200.84 17.2933 200.6 18.76C200.52 19.16 200.48 19.5467 200.48 19.92C200.48 21.04 200.786 21.9067 201.4 22.52C202.04 23.1333 202.853 23.44 203.84 23.44C205.013 23.44 206.066 23.0267 207 22.2C207.933 21.3733 208.52 20.2267 208.76 18.76ZM233.227 7.28C236.161 7.28 238.481 8.06667 240.187 9.64C241.921 11.2133 242.787 13.36 242.787 16.08C242.787 16.9867 242.721 17.7867 242.587 18.48C242.427 19.3333 242.267 19.9467 242.107 20.32H227.267C227.241 20.48 227.227 20.72 227.227 21.04C227.227 22.0533 227.467 22.8 227.947 23.28C228.454 23.76 229.121 24 229.947 24C231.254 24 232.294 23.4133 233.067 22.24H241.387C240.774 23.7867 239.854 25.1733 238.627 26.4C237.427 27.6 236.001 28.5467 234.347 29.24C232.721 29.9333 230.987 30.28 229.147 30.28C226.214 30.28 223.881 29.48 222.147 27.88C220.414 26.28 219.547 24.08 219.547 21.28C219.547 20.48 219.627 19.64 219.787 18.76C220.214 16.4133 221.054 14.3867 222.307 12.68C223.587 10.9467 225.161 9.61333 227.027 8.68C228.921 7.74667 230.987 7.28 233.227 7.28ZM234.867 16.8C234.921 16.4267 234.947 16.1867 234.947 16.08C234.947 15.2267 234.681 14.5867 234.147 14.16C233.614 13.7067 232.921 13.48 232.067 13.48C231.081 13.48 230.227 13.76 229.507 14.32C228.787 14.88 228.254 15.7067 227.907 16.8H234.867ZM254.836 11.64C255.929 10.3333 257.169 9.29333 258.556 8.52C259.942 7.74667 261.356 7.36 262.796 7.36L261.356 15.72H259.156C257.502 15.72 256.209 16.0267 255.276 16.64C254.342 17.2533 253.716 18.32 253.396 19.84L251.596 30H243.716L247.716 7.56H255.556L254.836 11.64ZM271.406 30.28C269.54 30.28 267.873 30 266.406 29.44C264.94 28.88 263.793 28.0933 262.966 27.08C262.14 26.04 261.726 24.8533 261.726 23.52C261.726 23.28 261.753 22.92 261.806 22.44H269.366C269.34 23.1867 269.566 23.76 270.046 24.16C270.526 24.56 271.193 24.76 272.046 24.76C272.713 24.76 273.26 24.6267 273.686 24.36C274.14 24.0933 274.366 23.7467 274.366 23.32C274.366 22.8133 274.086 22.4267 273.526 22.16C272.966 21.8667 272.033 21.5067 270.726 21.08C269.206 20.6 267.953 20.1333 266.966 19.68C265.98 19.2267 265.113 18.56 264.366 17.68C263.646 16.8 263.286 15.6667 263.286 14.28C263.286 12.9467 263.673 11.7467 264.446 10.68C265.246 9.61333 266.366 8.78667 267.806 8.2C269.246 7.58667 270.913 7.28 272.806 7.28C274.833 7.28 276.58 7.62667 278.046 8.32C279.54 8.98667 280.646 9.92 281.366 11.12C282.113 12.32 282.446 13.6533 282.366 15.12H275.326C275.353 14.4 275.14 13.84 274.686 13.44C274.233 13.0133 273.58 12.8 272.726 12.8C272.113 12.8 271.606 12.9333 271.206 13.2C270.806 13.4667 270.606 13.8133 270.606 14.24C270.606 14.7467 270.886 15.1467 271.446 15.44C272.033 15.7333 273.006 16.1067 274.366 16.56C275.86 17.04 277.1 17.52 278.086 18C279.1 18.4533 279.966 19.1067 280.686 19.96C281.406 20.7867 281.766 21.8533 281.766 23.16C281.766 25.3733 280.806 27.12 278.886 28.4C276.966 29.6533 274.473 30.28 271.406 30.28Z" fill="#027FFF"/>
</svg>
