<svg width="700" height="300" viewBox="0 0 700 300" fill="none" xmlns="http://www.w3.org/2000/svg">
<rect width="700" height="300" fill="white"/>
<path d="M395.7 100.4L386.2 146.2C385.9 147.6 384.7 148.6 383.3 148.6C383.1 148.6 382.9 148.6 382.7 148.5C381.1 148.2 380 146.6 380.4 145L389.3 102.2L331.9 90.5L330.5 96.9C330.1 98.5 328.5 99.5 326.9 99.2C325.3 98.8 324.3 97.2 324.6 95.6L326.7 86.3C327.1 84.7 328.6 83.7 330.2 84L393.4 96.8C394.2 97 394.9 97.4 395.3 98.1C395.7 98.8 395.8 99.6 395.7 100.4ZM377 155C377 157.2 375.2 159 373 159H308C305.8 159 304 157.2 304 155V106C304 103.8 305.8 102 308 102H373C375.2 102 377 103.8 377 106V155ZM312 110V134.7L328.9 121C330.2 119.9 332.3 119.9 333.6 121.1L352.6 137.9L360.5 131.1C361.8 130 363.3 130 364.6 131.1L367.9 134.5V110H312ZM368 151V143.7L362.4 138.4L354.8 145.2C354.171 145.733 353.374 146.025 352.55 146.025C351.726 146.025 350.929 145.733 350.3 145.2L331 128.3L312 143.8V151H368ZM351.4 126.3C354.8 126.3 357.5 123.6 357.5 120.2C357.5 116.8 354.7 114.1 351.4 114.1C348 114.1 345.3 116.8 345.3 120.2C345.2 123.5 348 126.3 351.4 126.3Z" fill="black"/>
<path d="M235.664 203.432C235.504 204.328 235.144 205.168 234.584 205.952C234.024 206.736 233.248 207.368 232.256 207.848C231.28 208.328 230.104 208.568 228.728 208.568H225.92L224.792 215H221.408L224.384 198.248H230.552C232.264 198.248 233.56 198.632 234.44 199.4C235.32 200.152 235.76 201.16 235.76 202.424C235.76 202.792 235.728 203.128 235.664 203.432ZM229.064 205.928C229.976 205.928 230.696 205.704 231.224 205.256C231.752 204.808 232.088 204.2 232.232 203.432C232.264 203.288 232.28 203.08 232.28 202.808C232.28 201.544 231.496 200.912 229.928 200.912H227.288L226.4 205.928H229.064ZM250.914 201.704L248.562 215H245.202L245.49 213.32C244.978 213.896 244.346 214.352 243.594 214.688C242.842 215.008 242.05 215.168 241.218 215.168C239.842 215.168 238.754 214.8 237.954 214.064C237.154 213.312 236.754 212.248 236.754 210.872C236.754 210.36 236.794 209.904 236.874 209.504L238.242 201.704H241.602L240.306 209.024C240.258 209.312 240.234 209.592 240.234 209.864C240.234 210.648 240.45 211.256 240.882 211.688C241.314 212.104 241.922 212.312 242.706 212.312C243.618 212.312 244.394 212.032 245.034 211.472C245.674 210.896 246.082 210.08 246.258 209.024L247.554 201.704H250.914ZM256.533 210.896C256.517 210.992 256.509 211.12 256.509 211.28C256.509 211.6 256.597 211.832 256.773 211.976C256.965 212.104 257.277 212.168 257.709 212.168H259.293L258.789 215H256.653C254.253 215 253.053 214 253.053 212C253.053 211.616 253.085 211.24 253.149 210.872L254.277 204.464H252.693L253.173 201.704H254.781L255.357 198.416H258.741L258.165 201.704H261.117L260.637 204.464H257.661L256.533 210.896ZM283.899 198.248L276.315 209.168L275.283 215H271.899L272.955 209.168L269.187 198.248H272.979L275.211 205.856L280.107 198.248H283.899ZM288.813 215.216C287.677 215.216 286.669 214.984 285.789 214.52C284.925 214.056 284.253 213.4 283.773 212.552C283.293 211.704 283.053 210.728 283.053 209.624C283.053 208.12 283.405 206.752 284.109 205.52C284.829 204.272 285.805 203.288 287.037 202.568C288.285 201.848 289.669 201.488 291.189 201.488C292.325 201.488 293.333 201.728 294.213 202.208C295.109 202.672 295.797 203.328 296.277 204.176C296.773 205.024 297.021 206 297.021 207.104C297.021 208.624 296.661 210 295.941 211.232C295.221 212.464 294.229 213.44 292.965 214.16C291.717 214.864 290.333 215.216 288.813 215.216ZM289.269 212.336C290.069 212.336 290.797 212.104 291.453 211.64C292.109 211.176 292.621 210.56 292.989 209.792C293.357 209.024 293.541 208.216 293.541 207.368C293.541 206.408 293.269 205.672 292.725 205.16C292.197 204.632 291.525 204.368 290.709 204.368C289.893 204.368 289.165 204.6 288.525 205.064C287.901 205.528 287.413 206.152 287.061 206.936C286.709 207.704 286.533 208.52 286.533 209.384C286.533 210.328 286.781 211.056 287.277 211.568C287.789 212.08 288.453 212.336 289.269 212.336ZM313.07 201.704L310.718 215H307.358L307.646 213.32C307.134 213.896 306.502 214.352 305.75 214.688C304.998 215.008 304.206 215.168 303.374 215.168C301.998 215.168 300.91 214.8 300.11 214.064C299.31 213.312 298.91 212.248 298.91 210.872C298.91 210.36 298.95 209.904 299.03 209.504L300.398 201.704H303.758L302.462 209.024C302.414 209.312 302.39 209.592 302.39 209.864C302.39 210.648 302.606 211.256 303.038 211.688C303.47 212.104 304.078 212.312 304.862 212.312C305.774 212.312 306.55 212.032 307.19 211.472C307.83 210.896 308.238 210.08 308.414 209.024L309.71 201.704H313.07ZM319.361 204.056C319.937 203.256 320.609 202.632 321.377 202.184C322.145 201.736 322.977 201.512 323.873 201.512L323.249 205.04H322.361C321.369 205.04 320.569 205.256 319.961 205.688C319.369 206.12 318.937 206.856 318.665 207.896L317.417 215H314.033L316.385 201.704H319.769L319.361 204.056ZM335.558 203.624C336.102 203.016 336.782 202.512 337.598 202.112C338.43 201.696 339.334 201.488 340.31 201.488C341.302 201.488 342.174 201.704 342.926 202.136C343.694 202.552 344.286 203.16 344.702 203.96C345.118 204.76 345.326 205.696 345.326 206.768C345.326 207.264 345.278 207.776 345.182 208.304C344.942 209.664 344.462 210.872 343.742 211.928C343.022 212.968 342.15 213.776 341.126 214.352C340.102 214.928 339.03 215.216 337.91 215.216C336.934 215.216 336.102 215.016 335.414 214.616C334.742 214.216 334.23 213.712 333.878 213.104L332.438 221.336H329.054L332.51 201.704H335.894L335.558 203.624ZM341.75 208.304C341.798 207.984 341.822 207.696 341.822 207.44C341.822 206.496 341.55 205.76 341.006 205.232C340.462 204.704 339.766 204.44 338.918 204.44C338.31 204.44 337.71 204.6 337.118 204.92C336.526 205.224 336.014 205.672 335.582 206.264C335.15 206.856 334.862 207.552 334.718 208.352C334.654 208.768 334.622 209.072 334.622 209.264C334.622 210.208 334.894 210.944 335.438 211.472C335.998 212 336.694 212.264 337.526 212.264C338.15 212.264 338.758 212.104 339.35 211.784C339.942 211.464 340.454 211.008 340.886 210.416C341.318 209.824 341.606 209.12 341.75 208.304ZM350.768 200.12C350.24 200.12 349.816 199.968 349.496 199.664C349.176 199.36 349.016 198.976 349.016 198.512C349.016 197.872 349.256 197.328 349.736 196.88C350.232 196.416 350.808 196.184 351.464 196.184C351.976 196.184 352.392 196.336 352.712 196.64C353.032 196.944 353.192 197.328 353.192 197.792C353.192 198.432 352.952 198.984 352.472 199.448C351.992 199.896 351.424 200.12 350.768 200.12ZM352.16 201.704L349.808 215H346.424L348.776 201.704H352.16ZM353.439 208.352C353.679 206.976 354.167 205.776 354.903 204.752C355.639 203.712 356.551 202.912 357.639 202.352C358.743 201.776 359.935 201.488 361.215 201.488C362.863 201.488 364.151 201.896 365.079 202.712C366.023 203.528 366.551 204.688 366.663 206.192H363.039C362.943 205.616 362.695 205.168 362.295 204.848C361.895 204.512 361.359 204.344 360.687 204.344C359.727 204.344 358.903 204.696 358.215 205.4C357.543 206.088 357.095 207.072 356.871 208.352C356.791 208.8 356.751 209.184 356.751 209.504C356.751 210.416 356.975 211.12 357.423 211.616C357.871 212.096 358.495 212.336 359.295 212.336C360.639 212.336 361.631 211.728 362.271 210.512H365.895C365.271 211.952 364.335 213.096 363.087 213.944C361.855 214.792 360.431 215.216 358.815 215.216C357.135 215.216 355.791 214.744 354.783 213.8C353.791 212.84 353.295 211.544 353.295 209.912C353.295 209.416 353.343 208.896 353.439 208.352ZM372.197 210.896C372.181 210.992 372.173 211.12 372.173 211.28C372.173 211.6 372.261 211.832 372.437 211.976C372.629 212.104 372.941 212.168 373.373 212.168H374.957L374.453 215H372.317C369.917 215 368.717 214 368.717 212C368.717 211.616 368.749 211.24 368.813 210.872L369.941 204.464H368.357L368.837 201.704H370.445L371.021 198.416H374.405L373.829 201.704H376.781L376.301 204.464H373.325L372.197 210.896ZM391.75 201.704L389.398 215H386.038L386.326 213.32C385.814 213.896 385.182 214.352 384.43 214.688C383.678 215.008 382.886 215.168 382.054 215.168C380.678 215.168 379.59 214.8 378.79 214.064C377.99 213.312 377.59 212.248 377.59 210.872C377.59 210.36 377.63 209.904 377.71 209.504L379.078 201.704H382.438L381.142 209.024C381.094 209.312 381.07 209.592 381.07 209.864C381.07 210.648 381.286 211.256 381.718 211.688C382.15 212.104 382.758 212.312 383.542 212.312C384.454 212.312 385.23 212.032 385.87 211.472C386.51 210.896 386.918 210.08 387.094 209.024L388.39 201.704H391.75ZM398.041 204.056C398.617 203.256 399.289 202.632 400.057 202.184C400.825 201.736 401.657 201.512 402.553 201.512L401.929 205.04H401.041C400.049 205.04 399.249 205.256 398.641 205.688C398.049 206.12 397.617 206.856 397.345 207.896L396.097 215H392.713L395.065 201.704H398.449L398.041 204.056ZM410.624 201.488C412.32 201.488 413.664 201.96 414.656 202.904C415.648 203.832 416.144 205.088 416.144 206.672C416.144 207.184 416.104 207.64 416.024 208.04C415.928 208.52 415.824 208.936 415.712 209.288H405.992C405.976 209.4 405.968 209.56 405.968 209.768C405.968 210.6 406.208 211.256 406.688 211.736C407.184 212.2 407.832 212.432 408.632 212.432C409.304 212.432 409.88 212.288 410.36 212C410.856 211.696 411.256 211.304 411.56 210.824H415.184C414.592 212.104 413.672 213.16 412.424 213.992C411.192 214.808 409.792 215.216 408.224 215.216C406.528 215.216 405.168 214.736 404.144 213.776C403.12 212.816 402.608 211.512 402.608 209.864C402.608 209.384 402.656 208.88 402.752 208.352C402.992 206.976 403.48 205.768 404.216 204.728C404.968 203.688 405.896 202.888 407 202.328C408.104 201.768 409.312 201.488 410.624 201.488ZM412.688 207.248C412.72 206.992 412.736 206.808 412.736 206.696C412.736 205.928 412.488 205.328 411.992 204.896C411.496 204.464 410.848 204.248 410.048 204.248C409.2 204.248 408.44 204.52 407.768 205.064C407.096 205.592 406.624 206.32 406.352 207.248H412.688ZM433.538 201.512C434.85 201.512 435.89 201.888 436.658 202.64C437.442 203.392 437.834 204.448 437.834 205.808C437.834 206.32 437.794 206.784 437.714 207.2L436.322 215H432.986L434.282 207.656C434.33 207.368 434.354 207.088 434.354 206.816C434.354 206.016 434.138 205.408 433.706 204.992C433.29 204.576 432.69 204.368 431.906 204.368C431.01 204.368 430.25 204.64 429.626 205.184C429.002 205.712 428.586 206.472 428.378 207.464L427.034 215H423.65L426.794 197.24H430.178L429.098 203.336C429.642 202.776 430.298 202.336 431.066 202.016C431.85 201.68 432.674 201.512 433.538 201.512ZM447.725 201.488C449.421 201.488 450.765 201.96 451.757 202.904C452.749 203.832 453.245 205.088 453.245 206.672C453.245 207.184 453.205 207.64 453.125 208.04C453.029 208.52 452.925 208.936 452.813 209.288H443.093C443.077 209.4 443.069 209.56 443.069 209.768C443.069 210.6 443.309 211.256 443.789 211.736C444.285 212.2 444.933 212.432 445.733 212.432C446.405 212.432 446.981 212.288 447.461 212C447.957 211.696 448.357 211.304 448.661 210.824H452.285C451.693 212.104 450.773 213.16 449.525 213.992C448.293 214.808 446.893 215.216 445.325 215.216C443.629 215.216 442.269 214.736 441.245 213.776C440.221 212.816 439.709 211.512 439.709 209.864C439.709 209.384 439.757 208.88 439.853 208.352C440.093 206.976 440.581 205.768 441.317 204.728C442.069 203.688 442.997 202.888 444.101 202.328C445.205 201.768 446.413 201.488 447.725 201.488ZM449.789 207.248C449.821 206.992 449.837 206.808 449.837 206.696C449.837 205.928 449.589 205.328 449.093 204.896C448.597 204.464 447.949 204.248 447.149 204.248C446.301 204.248 445.541 204.52 444.869 205.064C444.197 205.592 443.725 206.32 443.453 207.248H449.789ZM459.658 204.056C460.234 203.256 460.906 202.632 461.674 202.184C462.442 201.736 463.274 201.512 464.17 201.512L463.546 205.04H462.658C461.666 205.04 460.866 205.256 460.258 205.688C459.666 206.12 459.234 206.856 458.962 207.896L457.714 215H454.33L456.682 201.704H460.066L459.658 204.056ZM472.241 201.488C473.937 201.488 475.281 201.96 476.273 202.904C477.265 203.832 477.761 205.088 477.761 206.672C477.761 207.184 477.721 207.64 477.641 208.04C477.545 208.52 477.441 208.936 477.329 209.288H467.609C467.593 209.4 467.585 209.56 467.585 209.768C467.585 210.6 467.825 211.256 468.305 211.736C468.801 212.2 469.449 212.432 470.249 212.432C470.921 212.432 471.497 212.288 471.977 212C472.473 211.696 472.873 211.304 473.177 210.824H476.801C476.209 212.104 475.289 213.16 474.041 213.992C472.809 214.808 471.409 215.216 469.841 215.216C468.145 215.216 466.785 214.736 465.761 213.776C464.737 212.816 464.225 211.512 464.225 209.864C464.225 209.384 464.273 208.88 464.369 208.352C464.609 206.976 465.097 205.768 465.833 204.728C466.585 203.688 467.513 202.888 468.617 202.328C469.721 201.768 470.929 201.488 472.241 201.488ZM474.305 207.248C474.337 206.992 474.353 206.808 474.353 206.696C474.353 205.928 474.105 205.328 473.609 204.896C473.113 204.464 472.465 204.248 471.665 204.248C470.817 204.248 470.057 204.52 469.385 205.064C468.713 205.592 468.241 206.32 467.969 207.248H474.305Z" fill="black"/>
</svg>
