<svg width="24" height="24" viewBox="0 0 24 24" fill="none" xmlns="http://www.w3.org/2000/svg">
<path d="M7.35904 8.48299H1.86704C0.900037 8.48299 0.113037 9.26899 0.113037 10.236V20.73C0.113037 21.697 0.900037 22.483 1.86704 22.483H7.35904C8.32604 22.483 9.11304 21.697 9.11304 20.73V10.236C9.11304 9.26999 8.32604 8.48299 7.35904 8.48299ZM23.887 11.036C23.887 9.44799 21.756 8.48299 20.821 8.48299H16.607C17.322 5.36799 16.458 3.58999 15.85 2.78599C15.248 1.99099 14.418 1.51599 13.629 1.51599C13.016 1.51599 12.488 1.80499 12.186 2.31199C12.1398 2.38975 12.1153 2.47851 12.115 2.56899V5.25499C11.51 7.00099 10.919 8.36599 10.115 9.39999V21.379C10.304 21.442 10.486 21.485 10.635 21.485H19.862C20.296 21.485 20.718 21.259 21.091 20.836C21.607 20.244 21.952 19.332 21.965 18.584C22.713 18.022 23.069 16.996 23.003 15.584C23.808 14.748 23.758 13.561 23.496 12.828C23.825 12.358 23.887 11.561 23.887 11.036Z" fill="black"/>
</svg>
