<svg width="92" height="76" viewBox="0 0 92 76" fill="none" xmlns="http://www.w3.org/2000/svg">
<path d="M91.7 17.4L82.2 63.1999C81.9 64.5999 80.7 65.6 79.3 65.6C79.1 65.6 78.9 65.6 78.7 65.5C77.1 65.2 76 63.6 76.4 62L85.3 19.2L27.9 7.49995L26.5 13.9C26.1 15.5 24.5 16.5 22.9 16.2C21.3 15.8 20.3 14.2 20.6 12.6L22.7 3.29995C23.1 1.69995 24.6 0.699951 26.2 0.999951L89.4 13.8C90.2 14 90.9 14.4 91.3 15.1C91.7 15.8 91.8 16.6 91.7 17.4ZM73 72C73 74.2 71.2 76 69 76H4C1.8 76 0 74.2 0 72V23C0 20.8 1.8 19 4 19H69C71.2 19 73 20.8 73 23V72ZM8 27V51.7L24.9 38C26.2 36.9 28.3 36.8999 29.6 38.0999L48.6 54.9L56.5 48.0999C57.8 46.9999 59.3 46.9999 60.6 48.0999L63.9 51.5V27H8ZM64 68V60.6999L58.4 55.4L50.8 62.1999C50.1714 62.7327 49.374 63.0252 48.55 63.0252C47.726 63.0252 46.9286 62.7327 46.3 62.1999L27 45.2999L8 60.8V68H64ZM47.4 43.2999C50.8 43.2999 53.5 40.6 53.5 37.2C53.5 33.8 50.7 31.0999 47.4 31.0999C44 31.0999 41.3 33.8 41.3 37.2C41.2 40.5 44 43.2999 47.4 43.2999Z" fill="black"/>
</svg>
