<svg width="250" height="234" viewBox="0 0 250 234" fill="none" xmlns="http://www.w3.org/2000/svg">
<path fill-rule="evenodd" clip-rule="evenodd" d="M124.24 41.6359C169.273 79.6129 216.543 65.0585 221.843 108.767C227.474 155.227 212.413 127.265 176.141 156.253C123.204 198.562 43.7138 183.8 40.7698 108.326C38.8106 58.0444 88.4628 11.4655 124.24 41.6359Z" fill="#93BBDF"/>
<path d="M28.7051 143.491C29.1019 142.611 29.3396 141.714 29.8077 140.973C30.3357 140.251 31.2236 139.693 32.1421 140.02C36.2536 141.352 40.3884 141.321 42.6136 137.925C42.5985 137.976 42.5924 138.03 42.5956 138.084C42.5963 138.134 42.6561 138.153 42.7058 138.152C42.7568 138.251 42.9465 138.328 43.0465 138.377C43.5663 138.609 44.1528 138.632 44.7188 138.565C45.4331 138.447 46.0138 137.973 46.6358 137.628C47.0373 137.387 47.4609 137.185 47.9009 137.026C47.9109 137.257 47.8869 137.488 47.8297 137.712C47.8181 137.709 47.8058 137.708 47.7938 137.71C47.7817 137.712 47.7703 137.716 47.7603 137.723C47.2616 138.405 46.2204 138.617 45.3517 139.114C44.6105 139.471 44.0011 140.035 43.482 140.678C42.9907 141.251 42.5896 141.896 42.2925 142.591C41.5951 144.1 41.4067 145.772 41.3272 147.414C41.3209 147.742 41.1538 149.503 41.7069 149.218C42.2368 148.645 42.5163 147.926 43.0983 147.551C44.7836 146.357 46.8887 146.173 48.3818 144.704C49.8838 143.155 50.9709 140.169 49.1116 138.502C48.8365 138.266 48.521 138.081 48.1804 137.957C48.1205 137.938 48.0804 137.908 48.0205 137.889C48.1052 137.578 48.1415 137.256 48.1282 136.933C48.4816 136.824 48.8497 136.769 49.2197 136.771C49.7663 136.764 50.3339 136.847 50.8691 136.721C51.7912 136.521 52.5174 135.747 52.7748 134.839C52.8508 134.55 52.9657 134.191 52.9614 133.843C53.4231 134.205 53.9243 134.547 54.4931 134.729C55.3109 134.957 56.3336 134.855 56.6502 133.917C56.8418 133.318 56.695 132.694 56.6381 132.098C56.5836 131.702 56.7056 131.114 56.7793 130.626C56.8193 130.848 56.903 131.059 57.0254 131.249C57.1775 131.496 57.3493 131.732 57.5212 131.968C57.4375 133.262 57.4251 134.693 58.1346 135.828C56.3721 135.561 55.9788 138.389 53.5168 137.007C53.197 136.872 52.3342 136.216 52.2223 136.824C52.1948 137.013 52.2762 137.171 52.3379 137.34C52.5019 137.756 52.7278 138.145 53.008 138.494C53.8553 139.508 55.3156 140.256 56.6334 139.902C57.0992 139.787 57.5321 139.414 57.8176 139.192C58.1579 138.949 58.5349 138.764 58.9342 138.642C59.7461 138.373 60.6196 138.273 61.3398 137.827C61.5057 137.718 61.6577 137.589 61.7924 137.444C61.9098 138.108 62.3649 138.749 63.3463 139.343C64.6768 140.033 65.9933 140.405 67.0604 141.505C67.2412 141.662 67.6053 142.174 67.8472 142.45C68.1496 142.794 68.3663 142.632 68.4309 142.224C68.8888 140.638 68.9671 138.897 68.2329 137.376C67.8954 136.574 67.3473 135.657 67.1298 134.944C66.9926 134.289 67.0064 133.782 67.0476 133.086C67.135 132.083 67.4349 131.11 67.9275 130.232C68.1025 129.892 68.3669 129.581 68.5818 129.27C69.0693 130.119 69.1622 131.221 68.9838 132.088C68.7008 133.334 68.0009 134.645 68.5333 135.921C68.7496 136.534 69.1639 137.096 69.8219 137.257C70.1812 137.372 70.5788 137.367 70.9282 137.512C71.1284 137.583 71.3197 137.678 71.4983 137.793L71.5881 137.822C71.6054 137.817 71.6214 137.809 71.6353 137.797C71.6492 137.786 71.6607 137.772 71.6689 137.756C71.6771 137.74 71.6819 137.722 71.6831 137.704C71.6842 137.687 71.6817 137.669 71.6756 137.652C71.8324 137.471 71.9449 136.913 72.0131 136.803C72.8116 134.616 74.0281 133.289 73.2016 130.715C73.1003 130.387 72.9768 130.066 72.8321 129.755C73.0602 129.712 73.2781 129.65 73.5062 129.608C74.7449 129.294 76.0579 129.368 77.1196 130.021C77.4696 130.216 77.9404 130.498 78.1518 130.714C78.2824 130.822 78.3543 131.01 78.5237 131.048C78.8512 131.004 78.5775 130.57 78.5554 130.381C78.2649 129.381 78.1139 128.409 78.1616 127.434C78.1705 125.704 79.1158 124.142 79.5922 122.446C79.9321 120.971 79.6344 119.374 78.9422 118.031C77.9757 116.204 75.8249 115.087 73.8061 115.827L73.49 115.99C72.7529 115.044 71.6518 114.412 70.5237 114.018C69.8049 113.738 69.0478 113.628 68.3191 113.378C67.0211 112.897 65.5014 112.18 64.2789 113.01C64.2981 112.95 64.3274 112.91 64.337 112.88C65.1164 111.578 65.1569 110.007 65.2981 108.534C65.3262 107.818 65.4479 107.108 65.6602 106.423C65.6615 106.425 65.6633 106.428 65.6655 106.43C65.6677 106.431 65.6703 106.433 65.6731 106.434C65.6759 106.435 65.6789 106.435 65.6818 106.435C65.6847 106.434 65.6876 106.434 65.6901 106.432C66.1565 106.367 66.5972 106.64 67.1349 106.713C67.6206 106.76 68.1094 106.767 68.5964 106.735C68.7089 107.002 68.8214 107.269 68.9934 107.505C69.3976 108.047 69.949 108.438 70.5688 108.719C71.9579 109.328 72.5894 108.128 73.1938 107.116C73.4183 106.776 73.8032 106.552 74.1869 106.23C74.5712 105.911 74.8876 105.518 75.1173 105.075C75.4866 104.385 75.6153 103.519 75.3081 102.777C75.0834 102.292 74.5643 102.11 74.0854 101.957C73.3471 101.737 72.6005 101.647 71.8814 101.367C71.3623 101.184 70.8917 100.902 70.3432 100.759C69.9244 100.625 69.4673 100.661 69.0404 100.706C68.5837 100.806 68.1183 100.862 67.6508 100.872C67.9153 99.7352 68.1289 98.5001 68.8054 97.7265C69.4029 96.9936 70.2938 96.6845 71.1978 96.6437C71.3322 96.6279 71.4685 96.6432 71.596 96.6886C71.9822 97.3896 72.4679 98.0895 73.266 98.3283C73.8354 98.56 74.5496 98.4419 74.9819 98.0193C75.0532 97.9308 75.1122 97.8331 75.1573 97.7288C75.4993 98.8778 76.2226 99.5051 77.4739 99.4105C77.8218 99.4062 78.1589 99.3326 78.5061 99.2786C78.6451 99.2571 78.8037 99.2253 78.9124 99.1445C79.1489 98.9726 79.1739 98.5847 78.9237 98.4386C78.5638 98.274 78.1286 98.4482 77.7616 98.5123C77.3553 98.5968 77.0982 98.7291 76.7886 98.6136C76.3091 98.4107 75.8851 97.879 75.4629 97.4965C76.1072 97.3396 76.6795 96.9947 77.0504 96.4534C77.4623 95.9909 77.9269 95.7768 78.5514 95.63C79.1363 95.5036 79.7701 95.327 80.1721 94.8449C80.7389 94.0527 80.7436 92.8002 79.9898 92.1136C78.8641 91.0936 77.5296 91.7062 77.5681 93.2365C77.5639 93.7137 77.631 94.3291 77.5257 94.6585C77.3718 95.0878 76.9983 95.4303 76.5145 95.7045C76.1092 95.8884 75.6943 96.1021 75.4201 96.4435C75.4164 95.3203 74.6344 94.7731 73.6908 94.0092C72.9337 93.4004 72.0632 92.948 71.1299 92.6784C70.7509 92.5737 70.3216 92.4199 69.9258 92.5738C69.5008 92.7676 69.5966 93.2935 69.8289 93.5988C70.3158 94.3981 71.2761 94.9033 71.3259 95.7278C71.3774 95.8763 71.3009 96.1158 71.323 96.3044C70.3584 96.2763 69.349 96.6464 68.7019 97.3799C67.8086 98.3152 67.6554 99.6192 67.3718 100.816C66.5968 100.865 65.8019 100.874 65.0278 100.973C64.9979 100.964 64.9781 100.974 64.9488 101.014C64.9241 101.002 64.8959 100.999 64.8691 101.005C64.8452 101.014 64.824 101.029 64.8076 101.048C64.7911 101.068 64.78 101.091 64.7753 101.116C64.7706 101.141 64.7725 101.167 64.7808 101.191C64.789 101.215 64.8034 101.237 64.8224 101.254C65.57 101.633 66.2197 102.179 66.7206 102.851C66.21 104.19 65.5796 105.489 65.2486 106.885C64.9189 108.38 65.0486 110.039 64.6474 111.395C64.4768 112.083 64.1643 112.544 63.874 113.194C63.9033 113.154 63.8644 113.224 63.8255 113.294C63.7403 113.38 63.6738 113.482 63.6303 113.595L63.6004 113.585C62.0736 113.097 60.5469 114.258 59.2504 114.701C58.8247 114.846 58.3583 114.911 58.0111 114.965C57.6339 115.009 56.5705 115.032 57.3226 115.57C58.0842 116.077 58.9243 116.495 59.6667 117.062C60.0888 117.445 60.4834 118.016 60.7685 118.57C61.5326 120.101 62.1201 121.824 63.2099 123.162C63.2003 123.195 63.2008 123.229 63.2111 123.262C63.6693 124.151 63.2533 125.09 62.3546 125.578C61.9397 125.792 61.2943 125.849 60.7908 126.134C59.3519 125.525 57.784 126.558 57.0033 127.76C56.7021 128.341 56.601 129.018 56.5789 129.654C56.5778 129.85 56.5868 130.045 56.6059 130.24C56.5726 130.196 56.5283 130.161 56.4776 130.139C56.4268 130.117 56.3711 130.109 56.3161 130.115C55.8 130.181 55.4612 130.93 55.2553 131.161C54.9811 131.503 54.5254 131.637 54.1088 131.702C54.6206 130.463 54.8213 128.96 54.8496 128.045C54.846 127.747 54.9214 127.408 54.8783 127.13C54.8971 127.122 54.9138 127.109 54.9274 127.093C54.9409 127.078 54.9509 127.059 54.9567 127.04C54.9843 126.85 55.4183 126.577 55.6033 126.256C55.8272 125.866 55.8912 125.408 55.8858 124.961C55.9341 124.036 55.5557 123.156 54.9803 122.427C54.4341 121.658 53.4456 121.293 52.7553 120.923C51.8044 120.388 51.0314 119.761 50.6714 118.772C50.5126 118.32 50.4526 117.839 50.4953 117.362C50.597 116.735 50.555 115.731 49.6623 115.891C48.4087 116.612 48.455 119.614 48.7784 120.872C49.2391 122.785 50.0314 125.002 49.725 126.785C49.6125 127.343 49.3688 127.744 48.9713 127.749C48.9414 127.739 48.9213 127.749 48.8916 127.74C48.4826 126.8 47.9551 125.922 47.4078 125.054C47.3671 124.975 47.3168 124.926 47.276 124.847C47.4786 124.552 47.6418 124.233 47.7615 123.897C47.9216 123.468 48.0361 123.023 48.1033 122.57C48.2116 122.49 48.1493 122.272 48.1379 122.152C48.081 121.557 47.7762 121.014 47.5409 120.46C47.1528 119.61 47.1312 118.646 46.7623 117.736C46.273 116.738 45.2988 115.915 44.1744 115.819C44.0849 115.809 43.9943 115.813 43.9062 115.832C43.7934 115.096 43.7445 114.352 43.7599 113.607C44.2945 113.432 44.7771 113.058 44.9692 112.509C45.0797 112.265 45.131 111.999 45.1188 111.731C45.733 111.565 46.3958 111.298 46.6568 110.689C46.7143 110.509 46.7717 110.329 46.8094 110.16C46.9601 110.454 47.1507 110.726 47.3759 110.968C48.1896 111.674 49.0009 110.531 49.3708 109.89C49.8969 109.019 51.0417 108.329 51.3858 107.202C51.7701 106.104 51.6443 104.743 50.8185 103.869C50.2646 103.279 49.5043 102.871 48.7067 102.682C48.1022 102.59 47.4841 102.666 46.9201 102.902L46.9004 102.912C46.4378 102.619 45.9098 102.444 45.3634 102.404C44.5671 102.314 43.8259 102.671 43.0634 102.889C42.8484 102.938 42.6269 102.951 42.4078 102.927L42.3778 102.917C42.3531 102.905 42.325 102.902 42.2982 102.908C41.9718 102.226 41.6454 101.545 41.3586 100.842C41.1131 100.269 40.8573 99.6753 40.6214 99.0719C40.9676 99.1189 41.3198 99.0909 41.6542 98.9897C42.199 98.834 42.6199 98.2921 42.5729 97.7161C42.5388 97.3587 42.3556 97.0031 42.3723 96.7445C42.3598 96.5257 42.5465 96.3546 42.7117 96.0445C42.9638 95.5146 42.6978 94.9015 42.4038 94.4279C41.9074 93.6586 40.9087 93.2731 39.9963 93.4432C39.6688 93.487 39.4394 93.4301 39.1503 93.3541C39.7202 92.8103 39.8878 91.8739 40.3181 91.3021C40.4156 91.1787 40.524 91.0642 40.642 90.9602C40.6343 90.9873 40.6351 91.016 40.6444 91.0426C40.6536 91.0692 40.6708 91.0922 40.6936 91.1087C40.6967 91.1543 40.7108 91.1985 40.7349 91.2375C40.9692 92.1206 41.3855 92.9451 41.9571 93.6579C42.3918 94.2591 43.0139 94.7386 43.7797 94.7691C44.188 94.8336 44.5634 94.6402 44.8891 94.4475C45.2543 94.2343 45.6297 94.0408 46.0051 93.8475C46.4806 93.6079 47.0167 93.5154 47.545 93.5815C48.0733 93.6477 48.57 93.8696 48.9718 94.219C49.2425 94.4046 49.4557 94.7698 49.7473 95.0446C49.7647 95.0739 49.7917 95.0964 49.8238 95.1083C49.8558 95.1202 49.8909 95.1208 49.9233 95.1099C49.9557 95.0991 49.9834 95.0774 50.0018 95.0487C50.0202 95.0199 50.0282 94.9857 50.0244 94.9517C50.0035 94.8626 49.9131 94.7841 49.8724 94.7051C49.3562 93.9459 48.9765 92.9665 48.3998 92.1384C47.6514 91.074 46.8328 89.9706 45.7209 89.2685C44.9803 88.85 44.1037 88.7016 43.2589 88.7118C42.8388 88.7186 42.4259 88.8223 42.0523 89.0147C41.6788 89.2072 41.3548 89.4833 41.1054 89.8215C40.944 90.0592 40.8166 90.3184 40.727 90.5915C40.6913 90.6061 40.6605 90.6306 40.6384 90.6621C39.9188 91.1579 39.7692 91.9351 39.3998 92.6255C39.2053 92.9758 39.0586 93.1764 38.7724 93.3488L38.6934 93.3895C38.2149 91.6359 37.8153 89.8415 37.9434 88.1005C37.9492 88.0101 37.9614 87.9203 37.9799 87.8317C38.1188 87.8101 38.2678 87.8083 38.3966 87.767C38.9019 87.6317 39.1946 87.1808 39.3377 86.6821C39.5681 86.0133 39.5884 85.2277 39.1537 84.6266C39.083 84.538 38.9716 84.3703 38.8614 84.3021C38.8744 84.2671 38.8807 84.2299 38.8802 84.1926C39.2305 84.3871 39.5766 84.2338 39.8621 84.0117L39.8723 84.0314C40.0028 84.1392 40.201 84.0871 40.3507 84.135C40.4902 84.1631 40.8788 84.2379 40.9991 84.3259C41.3793 84.53 41.5416 84.7964 41.7943 85.1413C42.017 85.4252 42.3113 85.6447 42.6469 85.7771C43.387 86.1458 44.2815 86.135 44.6768 86.7564C44.9905 87.2198 45.1983 87.9626 45.6121 88.4746C45.8346 88.7539 46.0841 89.0106 46.357 89.2409C46.4977 89.3684 46.6683 89.5055 46.8576 89.5331C47.3451 89.557 47.0706 89.0733 46.988 88.8158C46.8654 88.4543 46.7972 88.0766 46.7856 87.695C46.7579 87.0591 47.1189 86.4981 47.1003 85.7825C47.1332 85.2155 46.9577 84.6809 46.6834 84.1971C46.349 83.5375 45.8656 82.9648 45.2715 82.5244C44.8432 82.2126 44.3523 81.9975 43.8327 81.894C43.3132 81.7904 42.7773 81.8009 42.2622 81.9248C41.7671 82.0799 41.3534 82.393 40.9493 82.6763C40.3482 83.111 39.7513 83.8936 39.2353 83.9595C39.0466 83.9816 39.0461 83.932 38.876 83.8446C39.0058 83.0776 39.0962 82.331 39.226 81.564C39.3188 81.0161 39.5989 80.3468 39.9698 79.7558C39.9997 79.7654 40.0198 79.7552 40.0589 79.7348C40.4339 79.4917 40.9534 79.7239 41.5318 79.8759C42.5676 80.0423 43.6513 80.059 43.6351 78.7172C43.6303 78.3197 43.5943 77.8131 43.6703 77.524C43.7936 77.0355 43.9558 76.4768 43.7015 75.9829C44.1152 75.6697 44.5391 75.3763 44.9731 75.1026C45.7102 74.6553 46.492 74.286 47.3057 74.0008C47.6057 74.1462 47.9063 74.3413 48.2349 74.397C48.8724 74.5185 49.7066 74.4388 50.2443 74.5118C50.8921 74.6531 51.3238 75.0056 51.9436 75.2864C52.5926 75.527 53.3164 75.3791 53.9924 75.3808C54.2111 75.3683 54.6888 75.4221 54.4857 75.0766C53.2857 73.6697 51.9564 72.2544 50.2183 71.5499C48.9699 71.068 46.9043 71.2323 46.5254 72.7776C46.5309 73.2249 46.7135 73.5308 46.7776 73.8978C46.5621 73.9789 46.3508 74.0711 46.1448 74.1739C45.2275 74.6051 44.3603 75.1357 43.5588 75.7562C43.3054 75.3617 42.9138 75.0384 42.533 74.7846C42.1121 74.5014 41.7013 74.2379 41.2122 74.065C40.2536 73.7088 39.1872 74.3083 38.4359 74.6454C38.1366 74.7917 37.8076 74.8671 37.4744 74.8658C37.2061 74.8791 36.9074 74.833 36.6907 74.9946C36.3165 75.2875 36.4028 75.8431 36.5962 76.2184C36.7285 76.4753 37.0087 76.6309 37.2686 76.7471C37.6781 76.9111 38.3733 76.8529 38.672 76.899C39.0504 76.9541 39.3007 77.1001 39.4828 77.3564C39.5586 77.4741 39.5951 77.6129 39.5869 77.7527C39.5702 78.0114 39.4936 78.2509 39.4966 78.4993C39.4608 78.8181 39.5937 79.1243 39.7757 79.3806C39.7919 79.4153 39.8161 79.4457 39.8464 79.4692C39.4267 80.1105 39.1071 80.8005 38.9772 81.5672C38.8288 82.4437 38.7397 83.2898 38.5709 84.1268C38.5316 84.0996 38.4875 84.0799 38.441 84.0687C37.4316 83.6138 36.0741 82.338 34.8007 83.0692C34.1876 83.3351 33.7386 84.0165 33.3052 84.3398C32.4574 84.9267 31.5354 85.1267 30.5953 84.661C29.8361 84.3521 29.6338 84.8815 30.029 85.5028C30.3428 85.9662 30.7847 86.3386 31.2655 86.6409C31.6463 86.8948 32.0564 87.1084 32.5336 87.1126C33.2586 87.064 34.0399 86.7364 34.6178 86.8388C35.1656 86.9315 35.6758 87.1937 36.1949 87.3763C36.6541 87.5398 37.1726 87.6726 37.6798 87.6863C37.6613 87.7749 37.6491 87.8647 37.6433 87.9551C37.5746 88.8406 37.6548 89.7243 37.7848 90.6074C37.9339 91.4306 38.1131 92.2637 38.3317 93.0762C38.0619 92.9611 37.7654 92.9234 37.4754 92.9673C36.9198 93.0536 36.4666 93.3871 35.9523 93.6021C35.4773 93.7967 34.7429 93.8752 34.4202 93.4915C34.0675 93.0981 33.8124 92.5545 33.2735 92.3821C32.8548 92.2978 32.9113 92.8438 32.9245 93.112C32.9401 93.579 33.1641 94.0137 33.3976 94.4183C33.7745 95.0817 34.2983 95.65 34.9289 96.0796C35.7006 96.607 36.4293 96.8566 37.2101 97.3046C37.8316 97.7345 38.4442 98.244 39.1633 98.5234C39.5196 98.6786 39.8907 98.7974 40.2709 98.8778C40.4554 99.3328 40.65 99.8075 40.8344 100.263C41.4992 101.795 42.2424 103.238 42.7778 104.762C41.8215 104.604 40.866 104.497 39.9653 104.011C39.4653 103.768 38.8153 103.428 38.2834 103.027C37.6613 102.548 36.4152 101.44 36.0129 102.697C35.8621 103.375 36.1293 104.087 36.5137 104.639C37.049 105.338 37.743 106.006 38.0699 106.737C38.7089 108.608 39.1331 110.79 40.7114 112.252C41.3348 112.831 42.0186 113.479 42.9041 113.547C43.0878 113.553 43.2715 113.534 43.4501 113.491C43.4412 113.571 43.4519 113.64 43.443 113.72C43.4511 114.369 43.5088 115.016 43.6156 115.656C42.1463 115.813 40.7656 116.725 39.8348 117.829C38.7722 119.232 37.9204 120.783 37.3063 122.432C37.1147 123.031 36.7346 123.652 36.9313 124.276C37.1067 124.811 37.6977 125.181 38.2647 125.214C38.6922 125.219 39.0873 125.015 39.4933 124.881C39.6484 124.823 39.8072 124.774 39.9686 124.736C39.9026 125.207 39.7199 125.653 39.4374 126.035C39.0172 126.627 38.3686 127.261 38.0102 128.021C37.6481 127.804 37.2431 127.67 36.8235 127.627C36.404 127.584 35.9802 127.633 35.5818 127.772C34.5424 128.132 33.838 129.045 33.0511 129.751C32.5699 130.224 32.2256 130.526 31.5511 130.624C30.9458 130.711 29.9405 130.604 29.2376 130.841C28.5144 131.038 28.0145 131.621 27.7242 132.271C26.9184 133.861 27.0006 135.719 27.0218 137.458C27.0914 139.097 27.0718 140.758 27.3299 142.375C27.4563 142.96 27.5145 143.655 27.7594 144.179C28.234 144.809 28.5781 143.681 28.7051 143.491ZM67.0032 103.205C67.2876 103.709 67.5026 104.223 67.7476 104.747C67.9817 105.201 68.2254 105.626 68.4201 106.1C68.486 106.234 68.5409 106.373 68.5841 106.516C68.0477 106.542 67.4514 106.55 67.0226 106.445C66.6539 106.361 66.2838 106.176 65.8964 106.201C65.8803 106.206 65.8627 106.207 65.8464 106.201C66.1625 105.213 66.5979 104.214 67.0032 103.205ZM64.0297 113.738C64.0946 113.7 64.1434 113.639 64.1668 113.568C65.198 112.511 66.5855 113.021 68.0837 113.6C69.0225 113.966 70.0278 114.073 70.9373 114.479C71.6863 114.769 72.5479 115.325 73.0611 115.835C73.1718 115.941 73.273 116.056 73.3634 116.18C72.5447 116.677 71.9072 117.43 71.6405 118.368C71.0635 119.965 71.0858 121.804 70.7166 123.319C70.4017 124.407 69.9066 125.387 69.1511 126.201C68.5733 125.274 67.6596 125.344 66.6891 125.644C66.2036 125.769 65.8366 125.834 65.5946 125.558C65.4134 125.352 65.3009 125.085 65.1581 124.808C65.2282 124.847 65.3179 124.876 65.388 124.914C65.8868 125.058 66.4328 125.001 66.9286 124.896C68.0278 124.554 68.4994 123.286 68.6461 122.261C68.6696 121.969 68.6217 121.676 68.5064 121.407C68.7004 121.377 68.8879 121.314 69.0609 121.222C69.4261 121.009 69.7003 120.667 69.9546 120.336C70.5604 119.474 70.6963 118.379 70.4453 117.358C69.9123 115.207 68.1346 114.523 66.0863 114.479C65.39 114.437 64.6409 114.148 63.9117 113.849C64.0003 113.778 64.0099 113.748 64.0297 113.738ZM61.5575 126.263C62.0628 126.128 62.5783 126.012 62.9716 125.66C63.4017 125.282 63.6754 124.758 63.7391 124.189C63.7486 124.029 63.7333 123.868 63.6935 123.712C63.7435 123.762 63.7941 123.811 63.8546 123.88C63.6445 124.588 63.5841 125.344 63.5434 126.09C63.5285 126.498 63.5531 126.885 63.7268 127.271C63.7369 127.29 63.7172 127.301 63.7274 127.321C64.0944 128.082 64.8783 128.778 65.2633 129.38C65.7011 130.229 65.3461 131.287 64.7977 131.97C64.2003 132.703 63.4519 133.288 62.7341 133.933L62.7036 133.874C62.5809 133.645 62.4166 133.442 62.2191 133.273C61.4754 132.606 60.4504 132.51 59.7379 131.952C59.4169 131.717 59.2726 131.291 59.4582 131.02C59.4779 131.01 59.4875 130.98 59.5073 130.97C59.6156 130.89 59.7342 130.828 59.8426 130.748C60.7011 130.23 61.6272 129.553 61.7936 128.517C61.8519 128.001 61.8355 127.479 61.7449 126.967C61.6953 126.729 61.6327 126.494 61.5575 126.263ZM43.134 132.481C43.2211 132.452 43.3107 132.431 43.4016 132.418C43.6896 132.395 43.8391 132.443 44.1285 132.519C44.8572 132.768 45.6386 133.266 46.4473 133.574C46.4275 133.584 46.4275 133.584 46.4179 133.614C46.2073 134.273 45.7253 134.696 44.9919 134.874C44.3968 134.98 43.9544 135.384 43.6323 135.875C43.5462 135.993 43.468 136.117 43.3982 136.245C43.4653 136.036 43.552 135.816 43.6191 135.606C43.7741 135.022 43.8006 134.412 43.6968 133.816C43.6119 133.36 43.3975 132.895 43.134 132.481ZM39.7896 126.379C40.1122 125.937 40.2553 125.439 40.3283 124.901C40.5067 124.859 40.6953 124.837 40.8539 124.805C41.7772 124.704 42.5454 124.934 43.2483 125.522C43.7806 125.972 44.4016 126.353 45.1074 126.364C45.9714 126.294 46.6911 125.798 47.1999 125.136C47.8789 126.211 48.5281 127.277 48.9904 128.513C49.2466 129.156 49.4132 129.771 49.5899 130.405C49.4292 130.491 49.2451 130.525 49.0642 130.501C48.7259 130.475 48.226 130.233 47.817 130.118C46.5303 129.756 45.1706 129.932 43.9233 130.324C43.3096 130.541 42.6588 130.976 42.1726 131.051C42.1162 131.051 42.0597 131.055 42.0039 131.063C40.9986 130.956 39.9801 130.581 39.4029 129.703C39.1298 129.319 38.9256 128.874 38.5639 128.56C38.4837 128.502 38.4034 128.443 38.3131 128.365C38.682 127.674 39.2718 127.12 39.7896 126.378V126.379Z" fill="url(#paint0_linear_28_326)"/>
<path fill-rule="evenodd" clip-rule="evenodd" d="M47.1901 152.757C47.4118 154.326 48.1491 155.938 49.1597 157.497C50.459 159.5 52.1659 161.434 53.4909 163.081C54.6562 164.56 55.8884 165.967 57.1671 167.323C58.451 168.684 59.7967 169.978 61.1992 171.222C63.0633 172.884 65.0355 174.421 67.1028 175.823C71.9752 179.111 77.5849 181.731 84.2053 183.447C84.3703 183.484 84.5411 183.489 84.7079 183.461C84.8747 183.432 85.0343 183.371 85.1775 183.281C85.3208 183.191 85.4449 183.073 85.5427 182.935C85.6406 182.797 85.7103 182.641 85.7479 182.476C85.7855 182.311 85.7902 182.141 85.7618 181.974C85.7333 181.807 85.6723 181.647 85.5822 181.504C85.4921 181.361 85.3747 181.237 85.2366 181.139C85.0986 181.041 84.9426 180.971 84.7776 180.934C78.3276 179.645 72.7486 177.502 67.9381 174.534C65.8692 173.264 63.913 171.82 62.0911 170.216C60.7272 169.007 59.4408 167.713 58.2396 166.342C57.0434 164.969 55.9179 163.536 54.8676 162.049C53.6972 160.369 52.1555 158.399 51.0469 156.371C50.3407 155.076 49.8302 153.762 49.7579 152.507C49.7232 152.167 49.5555 151.856 49.2915 151.64C49.0275 151.424 48.6888 151.321 48.3493 151.354C48.0099 151.387 47.6974 151.554 47.4802 151.817C47.263 152.08 47.1588 152.418 47.1903 152.757L47.1901 152.757ZM85.2713 29.5023C86.3386 28.6614 87.54 28.0086 88.8083 27.4874C90.7933 26.6706 92.9333 26.1592 94.98 25.738C99.7238 24.7733 104.648 24.5526 109.412 25.2755C114.181 25.9993 118.775 27.6606 122.864 30.3907C126.277 32.7032 129.304 35.539 132.361 38.3118C134.439 40.2026 136.532 42.0655 138.791 43.704C141.219 45.4728 143.833 46.9874 146.798 48.015C149.247 48.8708 151.717 49.2694 154.197 49.4596C159.837 49.8923 165.535 49.1828 171.16 50.394C173.485 50.8982 175.61 51.7798 177.605 52.892C180.678 54.6038 183.447 56.867 186.185 59.1849C186.315 59.2935 186.466 59.3752 186.628 59.4254C186.79 59.4756 186.961 59.4933 187.13 59.4774C187.299 59.4615 187.463 59.4123 187.613 59.3327C187.763 59.2532 187.896 59.1448 188.004 59.0137C188.112 58.8827 188.193 58.7316 188.242 58.5692C188.292 58.4067 188.309 58.2361 188.292 58.0671C188.275 57.8981 188.225 57.7341 188.145 57.5845C188.065 57.4349 187.956 57.3026 187.824 57.1952C184.901 54.8554 181.941 52.5868 178.688 50.8868C176.471 49.7306 174.13 48.8306 171.572 48.346C165.829 47.2488 160.054 48.0918 154.31 47.7757C151.964 47.6468 149.623 47.3163 147.293 46.5543C144.457 45.6185 141.946 44.2176 139.61 42.561C137.378 40.978 135.305 39.1719 133.263 37.3172C130.159 34.4995 127.128 31.575 123.678 29.1975C119.455 26.2493 114.671 24.4324 109.695 23.5486C104.73 22.6665 99.5688 22.7216 94.5777 23.5837C92.3761 23.958 90.0765 24.435 87.9264 25.2326C86.4209 25.7905 84.9927 26.5118 83.7089 27.4517C83.437 27.6589 83.2585 27.9656 83.2127 28.3044C83.167 28.6432 83.2577 28.9863 83.4649 29.2582C83.6721 29.5302 83.9788 29.7086 84.3176 29.7544C84.6564 29.8002 84.9995 29.7095 85.2714 29.5023L85.2713 29.5023Z" fill="#93BBDF"/>
<path fill-rule="evenodd" clip-rule="evenodd" d="M133.396 71.001C133.395 68.7848 132.515 66.6594 130.948 65.092C129.381 63.5246 127.256 62.6434 125.04 62.6418H63.3875C61.1712 62.6434 59.0462 63.5246 57.4794 65.092C55.9125 66.6594 55.032 68.7848 55.0312 71.001V158.092C55.032 160.308 55.9125 162.433 57.4793 164.001C59.0462 165.568 61.1712 166.45 63.3875 166.451H125.04C127.256 166.45 129.381 165.568 130.948 164.001C132.515 162.433 133.395 160.308 133.396 158.092L133.396 71.001Z" fill="white"/>
<mask id="mask0_28_326" style="mask-type:luminance" maskUnits="userSpaceOnUse" x="55" y="62" width="79" height="105">
<path d="M133.396 71.001C133.395 68.7848 132.515 66.6594 130.948 65.092C129.381 63.5246 127.256 62.6434 125.04 62.6418H63.3875C61.1712 62.6434 59.0462 63.5246 57.4794 65.092C55.9125 66.6594 55.032 68.7848 55.0312 71.001V158.092C55.032 160.308 55.9125 162.433 57.4793 164.001C59.0462 165.568 61.1712 166.45 63.3875 166.451H125.04C127.256 166.45 129.381 165.568 130.948 164.001C132.515 162.433 133.395 160.308 133.396 158.092L133.396 71.001Z" fill="white"/>
</mask>
<g mask="url(#mask0_28_326)">
<path fill-rule="evenodd" clip-rule="evenodd" d="M142.689 76.2562V64.2674C142.689 63.3702 141.788 62.6418 140.682 62.6418H47.7471C46.6403 62.6418 45.7396 63.3702 45.7396 64.2673V76.2562C45.7396 77.1533 46.6403 77.8817 47.7471 77.8817H140.682C141.788 77.8817 142.689 77.1532 142.689 76.2562Z" fill="#FFC439"/>
<path d="M63.7331 72.3265C64.8735 72.3265 65.7979 71.4021 65.7979 70.2617C65.7979 69.1213 64.8735 68.1968 63.7331 68.1968C62.5927 68.1968 61.6682 69.1213 61.6682 70.2617C61.6682 71.4021 62.5927 72.3265 63.7331 72.3265Z" fill="white"/>
<path d="M70.2752 72.3265C71.4156 72.3265 72.3401 71.4021 72.3401 70.2617C72.3401 69.1213 71.4156 68.1968 70.2752 68.1968C69.1348 68.1968 68.2103 69.1213 68.2103 70.2617C68.2103 71.4021 69.1348 72.3265 70.2752 72.3265Z" fill="white"/>
<path d="M77.0153 72.3265C78.1557 72.3265 79.0802 71.4021 79.0802 70.2617C79.0802 69.1213 78.1557 68.1968 77.0153 68.1968C75.8749 68.1968 74.9504 69.1213 74.9504 70.2617C74.9504 71.4021 75.8749 72.3265 77.0153 72.3265Z" fill="white"/>
</g>
<path d="M77.7662 114.546C85.613 114.546 91.9741 108.185 91.9741 100.338C91.9741 92.4912 85.613 86.1301 77.7662 86.1301C69.9194 86.1301 63.5583 92.4912 63.5583 100.338C63.5583 108.185 69.9194 114.546 77.7662 114.546Z" fill="#93BBDF"/>
<mask id="mask1_28_326" style="mask-type:luminance" maskUnits="userSpaceOnUse" x="63" y="86" width="29" height="29">
<path d="M77.7662 114.546C85.613 114.546 91.9741 108.185 91.9741 100.338C91.9741 92.4912 85.613 86.1301 77.7662 86.1301C69.9194 86.1301 63.5583 92.4912 63.5583 100.338C63.5583 108.185 69.9194 114.546 77.7662 114.546Z" fill="white"/>
</mask>
<g mask="url(#mask1_28_326)">
<path fill-rule="evenodd" clip-rule="evenodd" d="M63.6728 107.386C70.6385 96.3163 73.8559 95.7162 77.7641 100.117C81.6775 104.518 82.8737 105.812 87.344 103.781C91.8091 101.751 93.8921 103.952 95.269 106.985C96.6458 110.019 78.244 118.322 74.8408 118.255C71.4377 118.188 56.7018 118.455 63.6728 107.386Z" fill="url(#paint1_linear_28_326)"/>
</g>
<path d="M85.7667 97.5628C88.5239 97.5628 90.759 95.3276 90.759 92.5704C90.759 89.8133 88.5239 87.5781 85.7667 87.5781C83.0095 87.5781 80.7744 89.8133 80.7744 92.5704C80.7744 95.3276 83.0095 97.5628 85.7667 97.5628Z" fill="#AADBFF"/>
<path fill-rule="evenodd" clip-rule="evenodd" d="M91.4086 125.803C91.4092 125.638 91.3771 125.475 91.3143 125.323C91.2514 125.17 91.159 125.032 91.0424 124.916C90.9258 124.799 90.7873 124.707 90.6349 124.644C90.4825 124.582 90.3192 124.55 90.1545 124.551H67.6354C67.471 124.551 67.3083 124.583 67.1565 124.646C67.0047 124.709 66.8668 124.801 66.7507 124.917C66.6346 125.034 66.5427 125.172 66.4802 125.324C66.4176 125.476 66.3857 125.639 66.3862 125.803V125.804C66.3857 125.968 66.4176 126.131 66.4801 126.283C66.5426 126.435 66.6346 126.573 66.7506 126.689C66.8667 126.806 67.0046 126.898 67.1564 126.961C67.3083 127.024 67.471 127.056 67.6354 127.056H90.1545C90.3192 127.057 90.4825 127.025 90.635 126.962C90.7874 126.9 90.9259 126.808 91.0425 126.691C91.1591 126.575 91.2515 126.436 91.3143 126.284C91.3772 126.132 91.4092 125.969 91.4086 125.804V125.803Z" fill="#93BBDF"/>
<path fill-rule="evenodd" clip-rule="evenodd" d="M129.678 102.691C129.678 101.69 129.279 100.731 128.571 100.023C127.863 99.316 126.904 98.9187 125.903 98.9189H99.848C99.3528 98.9189 98.8624 99.0165 98.405 99.2061C97.9475 99.3958 97.5319 99.6737 97.1819 100.024C96.8319 100.374 96.5543 100.79 96.3651 101.248C96.1759 101.705 96.0788 102.196 96.0792 102.691V102.692C96.0788 103.187 96.176 103.678 96.3652 104.135C96.5544 104.593 96.832 105.009 97.182 105.359C97.532 105.709 97.9476 105.987 98.4051 106.176C98.8625 106.366 99.3528 106.463 99.848 106.463H125.903C126.903 106.464 127.863 106.067 128.571 105.359C129.279 104.652 129.677 103.693 129.678 102.692V102.691Z" fill="#EFEFFE"/>
<path fill-rule="evenodd" clip-rule="evenodd" d="M89.8431 143.274C89.8431 142.942 89.7114 142.624 89.4771 142.389C89.2427 142.155 88.9248 142.022 88.5931 142.022H66.9379C66.6061 142.022 66.2882 142.155 66.0539 142.389C65.8195 142.624 65.6879 142.942 65.6879 143.274V143.275C65.6879 143.607 65.8195 143.925 66.0539 144.159C66.2882 144.394 66.6062 144.526 66.9379 144.527H88.5934C88.9251 144.526 89.243 144.394 89.4773 144.159C89.7117 143.925 89.8434 143.607 89.8434 143.275L89.8431 143.274ZM119.425 143.133C119.425 142.801 119.294 142.483 119.059 142.248C118.825 142.013 118.507 141.881 118.175 141.881H96.5201C96.1884 141.881 95.8705 142.013 95.6361 142.248C95.4018 142.483 95.2702 142.801 95.2701 143.133V143.134C95.2701 143.465 95.4018 143.783 95.6361 144.018C95.8705 144.253 96.1884 144.385 96.5201 144.385H118.176C118.507 144.385 118.825 144.253 119.06 144.018C119.294 143.783 119.426 143.465 119.426 143.134L119.425 143.133ZM119.424 130.449C119.425 130.285 119.393 130.122 119.331 129.97C119.268 129.818 119.176 129.68 119.06 129.564C118.823 129.329 118.504 129.197 118.17 129.197H67.6411C67.3077 129.197 66.988 129.329 66.7514 129.564C66.6352 129.68 66.5432 129.818 66.4806 129.97C66.418 130.122 66.3862 130.285 66.3869 130.449V130.45C66.3862 130.615 66.4181 130.778 66.4807 130.929C66.5432 131.081 66.6352 131.219 66.7514 131.336C66.988 131.57 67.3078 131.702 67.6411 131.702H118.17C118.504 131.702 118.823 131.57 119.06 131.336C119.176 131.219 119.268 131.081 119.331 130.929C119.393 130.777 119.425 130.615 119.424 130.45V130.449ZM89.8431 147.921C89.843 147.589 89.7114 147.271 89.4771 147.036C89.2427 146.801 88.9248 146.669 88.5931 146.668H66.9379C66.6062 146.669 66.2882 146.801 66.0539 147.036C65.8195 147.271 65.6879 147.589 65.6879 147.921V147.921C65.6879 148.253 65.8195 148.571 66.0539 148.806C66.2882 149.041 66.6062 149.173 66.9379 149.173H88.5934C88.9251 149.173 89.243 149.041 89.4773 148.806C89.7117 148.571 89.8434 148.253 89.8434 147.921L89.8431 147.921ZM119.425 147.779C119.425 147.448 119.294 147.129 119.059 146.895C118.825 146.66 118.507 146.528 118.175 146.527H96.5201C96.1884 146.528 95.8705 146.66 95.6361 146.895C95.4018 147.129 95.2701 147.448 95.2701 147.779V147.78C95.2702 148.112 95.4018 148.43 95.6362 148.665C95.8705 148.899 96.1884 149.031 96.5201 149.032H118.176C118.507 149.032 118.825 148.899 119.06 148.665C119.294 148.43 119.426 148.112 119.426 147.78L119.425 147.779ZM119.424 135.378C119.425 135.214 119.393 135.051 119.331 134.899C119.268 134.747 119.176 134.609 119.06 134.493C118.823 134.258 118.504 134.126 118.17 134.126H67.6411C67.3077 134.126 66.988 134.258 66.7514 134.493C66.6352 134.609 66.5432 134.747 66.4806 134.899C66.418 135.051 66.3862 135.214 66.3869 135.378V135.379C66.3862 135.543 66.4181 135.706 66.4806 135.858C66.5432 136.01 66.6352 136.148 66.7514 136.264C66.988 136.499 67.3078 136.631 67.6411 136.631H118.17C118.504 136.631 118.823 136.499 119.06 136.264C119.176 136.148 119.268 136.01 119.331 135.858C119.393 135.706 119.425 135.543 119.424 135.379V135.378ZM89.8431 152.849C89.843 152.517 89.7114 152.199 89.4771 151.965C89.2427 151.73 88.9248 151.598 88.5931 151.597H66.9379C66.6061 151.598 66.2882 151.73 66.0539 151.965C65.8195 152.199 65.6879 152.517 65.6879 152.849V152.85C65.6879 153.182 65.8195 153.5 66.0539 153.735C66.2882 153.969 66.6062 154.101 66.9379 154.102H88.5934C88.9251 154.101 89.243 153.969 89.4773 153.735C89.7117 153.5 89.8434 153.182 89.8434 152.85L89.8431 152.849ZM119.425 152.708C119.425 152.376 119.294 152.058 119.059 151.823C118.825 151.588 118.507 151.456 118.175 151.456H96.5201C96.1884 151.456 95.8705 151.588 95.6361 151.823C95.4018 152.058 95.2701 152.376 95.2701 152.708V152.709C95.2702 153.041 95.4018 153.359 95.6362 153.593C95.8705 153.828 96.1884 153.96 96.5201 153.961H118.176C118.507 153.96 118.825 153.828 119.06 153.593C119.294 153.359 119.426 153.041 119.426 152.709L119.425 152.708Z" fill="#93BBDF"/>
<path fill-rule="evenodd" clip-rule="evenodd" d="M182.284 77.3442C187.233 77.3442 190.841 81.9014 190.137 88.0872C189.637 92.4709 184.287 97.0346 178.993 99.222C174.42 101.112 174.395 94.1978 174.395 87.972C174.395 81.7462 177.338 77.3442 182.284 77.3442Z" fill="#CD9886"/>
<path fill-rule="evenodd" clip-rule="evenodd" d="M178.509 110.244C183.268 121.269 151.383 156.592 140.754 155.685C130.123 154.774 114.725 104.786 114.725 104.786L110.245 98.9194L122.062 100.415L121.24 102.019C121.24 102.019 137.906 131.032 142.435 133.204C144.687 134.285 150.558 116.526 163.02 109.465C176.609 101.772 175.787 103.938 178.509 110.244Z" fill="url(#paint2_linear_28_326)"/>
<mask id="mask2_28_326" style="mask-type:luminance" maskUnits="userSpaceOnUse" x="110" y="98" width="69" height="58">
<path d="M178.509 110.244C183.268 121.269 151.383 156.592 140.754 155.685C130.123 154.774 114.725 104.786 114.725 104.786L110.245 98.9194L122.062 100.415L121.24 102.019C121.24 102.019 137.906 131.032 142.435 133.204C144.687 134.285 150.558 116.526 163.02 109.465C176.609 101.772 175.787 103.938 178.509 110.244Z" fill="white"/>
</mask>
<g mask="url(#mask2_28_326)">
<path fill-rule="evenodd" clip-rule="evenodd" d="M148.771 117.608C152.28 117.102 158.092 118.049 160.083 121.298C161.225 123.16 160.85 125.378 161.395 127.416C162.609 131.958 166.843 136.323 171.833 136.142C177.941 135.927 179.924 127.754 181.082 123.111C182.633 116.859 184.17 108.84 178.935 103.867C178 102.978 176.926 102.274 175.773 101.708C174.242 100.961 172.607 100.449 170.924 100.188C168.824 99.8513 166.636 99.8371 164.539 100.213C161.091 100.838 157.885 102.592 155.218 104.829C151.762 107.737 149.243 111.324 147.242 115.345L148.771 117.608Z" fill="#2A94F4"/>
</g>
<path fill-rule="evenodd" clip-rule="evenodd" d="M185.44 102.365C202.134 103.834 207.777 104.203 206.884 135.069C205.982 166.545 164.627 165.439 164.627 165.439C164.627 165.439 170.7 145.752 165.823 128.964C159.928 108.699 173.648 101.327 185.44 102.365Z" fill="#2A94F4"/>
<path fill-rule="evenodd" clip-rule="evenodd" d="M144.629 94.9104C144.628 93.4514 144.048 92.0523 143.017 91.0206C141.985 89.9889 140.586 89.4089 139.127 89.4082H107.835C106.376 89.4082 104.976 89.9879 103.944 91.0199C102.913 92.0518 102.333 93.4514 102.333 94.9108C102.333 96.3701 102.913 97.7697 103.944 98.8017C104.976 99.8336 106.376 100.413 107.835 100.413H139.127C140.586 100.413 141.985 99.8325 143.017 98.8006C144.048 97.7687 144.628 96.3695 144.629 94.9104Z" fill="#ABDBFF"/>
<path d="M110.505 92.5102V93.3213C110.309 93.2836 110.111 93.2634 109.912 93.261C109.386 93.261 108.999 93.3732 108.752 93.5976C108.504 93.8226 108.36 94.2009 108.329 94.7345H108.37C108.581 94.3679 108.937 94.1845 109.437 94.1845C109.865 94.1845 110.206 94.3191 110.458 94.5882C110.711 94.8574 110.835 95.2257 110.835 95.6931C110.835 96.2056 110.69 96.6104 110.401 96.9074C110.113 97.2049 109.716 97.3534 109.216 97.3534C108.887 97.3611 108.564 97.2702 108.288 97.0925C108.016 96.9089 107.807 96.6463 107.689 96.3402C107.555 96.0123 107.488 95.6169 107.488 95.1538C107.488 94.2707 107.684 93.6019 108.086 93.1487C108.489 92.6954 109.082 92.4681 109.87 92.4681C110.083 92.4658 110.295 92.4798 110.505 92.5102ZM109.948 95.7178C109.948 95.4687 109.886 95.2773 109.762 95.1434C109.633 95.0093 109.453 94.9423 109.216 94.9423C109.002 94.9354 108.794 95.0091 108.633 95.1486C108.56 95.2047 108.501 95.2765 108.46 95.3586C108.419 95.4407 108.397 95.5311 108.396 95.6229C108.387 95.8649 108.466 96.1019 108.618 96.2906C108.687 96.37 108.771 96.4347 108.866 96.4808C108.961 96.527 109.064 96.5536 109.169 96.5592C109.275 96.5648 109.38 96.5492 109.479 96.5133C109.578 96.4774 109.669 96.422 109.747 96.3504C109.881 96.2107 109.948 95.9999 109.948 95.7178ZM115.3 94.784V94.8083C116.058 94.9026 116.439 95.2821 116.439 95.9467C116.439 96.3842 116.28 96.728 115.95 96.978C115.625 97.228 115.156 97.3533 114.547 97.3533C114.026 97.3533 113.573 97.2676 113.186 97.096V96.25C113.593 96.4487 114.038 96.5547 114.491 96.5603C114.836 96.5603 115.094 96.5062 115.264 96.3978C115.348 96.3452 115.416 96.2711 115.461 96.1831C115.507 96.0952 115.527 95.9966 115.522 95.8978C115.522 95.6462 115.424 95.4688 115.233 95.3658C115.042 95.2627 114.738 95.2106 114.315 95.2106H113.912V94.4668H114.294C114.665 94.4668 114.944 94.4189 115.134 94.3225C115.325 94.226 115.423 94.0559 115.423 93.8115C115.426 93.7351 115.412 93.659 115.382 93.5888C115.352 93.5186 115.306 93.4562 115.248 93.4063C115.134 93.3098 114.954 93.2614 114.712 93.2614C114.533 93.262 114.356 93.29 114.186 93.3444C113.993 93.4096 113.809 93.499 113.639 93.6105L113.191 92.9304C113.661 92.6308 114.206 92.4706 114.763 92.4684C115.248 92.4684 115.629 92.5702 115.908 92.7737C116.041 92.8662 116.149 92.9907 116.222 93.1356C116.295 93.2806 116.331 93.4415 116.326 93.6037C116.331 93.8789 116.236 94.1465 116.057 94.356C115.882 94.5613 115.625 94.7041 115.3 94.784ZM121.152 94.7768C121.502 94.9598 121.755 95.1558 121.915 95.3636C122.102 95.6095 122.183 95.9194 122.142 96.2254C122.1 96.5313 121.939 96.8082 121.693 96.9954C121.384 97.2341 120.982 97.3533 120.492 97.3533C119.966 97.3533 119.553 97.2403 119.259 97.015C118.971 96.7892 118.821 96.4767 118.821 96.0771C118.817 95.816 118.897 95.5604 119.048 95.3476C119.193 95.1388 119.424 94.9588 119.734 94.8083C119.223 94.4911 118.966 94.0941 118.966 93.6172C118.962 93.4531 118.999 93.2906 119.074 93.1443C119.148 92.9981 119.258 92.8728 119.394 92.7797C119.677 92.5719 120.043 92.4679 120.492 92.4678C120.94 92.4678 121.306 92.5709 121.585 92.7766C121.72 92.872 121.829 92.9993 121.903 93.1472C121.977 93.2951 122.013 93.4591 122.008 93.6243C122.008 94.1178 121.719 94.502 121.152 94.7768ZM120.492 94.3893C120.734 94.2883 120.899 94.1831 120.992 94.0738C121.083 93.9687 121.132 93.8339 121.131 93.6948C121.134 93.6246 121.119 93.5547 121.089 93.4914C121.058 93.4281 121.012 93.3733 120.956 93.3318C120.816 93.2366 120.65 93.1896 120.481 93.1978C120.318 93.1911 120.158 93.2368 120.022 93.3282C119.965 93.3699 119.919 93.4253 119.888 93.4893C119.858 93.5533 119.844 93.624 119.847 93.6948C119.846 93.8344 119.897 93.9693 119.992 94.0722C120.136 94.2098 120.306 94.3175 120.492 94.3891V94.3893ZM120.435 95.1893C119.94 95.3981 119.693 95.6754 119.693 96.021C119.689 96.1061 119.705 96.1909 119.741 96.2682C119.777 96.3455 119.831 96.4129 119.899 96.4648C120.033 96.573 120.229 96.6273 120.476 96.6273C120.734 96.6273 120.93 96.5747 121.069 96.4706C121.137 96.4194 121.192 96.3523 121.228 96.2751C121.264 96.198 121.28 96.1132 121.276 96.0282C121.272 95.8764 121.211 95.7316 121.105 95.6229C120.987 95.4955 120.796 95.3673 120.533 95.2383L120.435 95.1893ZM127.849 97.2826H124.534V96.5812L125.766 95.3618C126.225 94.906 126.514 94.59 126.627 94.4137C126.738 94.2524 126.799 94.0625 126.803 93.8671C126.807 93.7882 126.794 93.7094 126.765 93.6361C126.735 93.5628 126.69 93.4968 126.633 93.4428C126.511 93.3355 126.351 93.2803 126.189 93.2891C126.001 93.2893 125.816 93.327 125.643 93.4C125.422 93.4998 125.216 93.6285 125.029 93.7826L124.519 93.1448C124.707 92.998 124.905 92.8644 125.112 92.7448C125.269 92.658 125.437 92.5912 125.612 92.5457C125.808 92.4926 126.011 92.4664 126.215 92.4679C126.663 92.4679 127.024 92.5901 127.298 92.8345C127.431 92.9503 127.537 93.0941 127.608 93.2555C127.679 93.417 127.714 93.5922 127.71 93.7687C127.71 93.9958 127.665 94.2207 127.576 94.4298C127.475 94.6603 127.337 94.8732 127.169 95.0603C126.906 95.3568 126.627 95.6384 126.333 95.9041L125.777 96.4222V96.4609H127.849L127.849 97.2826ZM130.479 97.311V96.4968C130.673 96.5413 130.872 96.5626 131.072 96.5603C131.603 96.5603 131.995 96.4446 132.247 96.2133C132.5 95.982 132.634 95.5967 132.655 95.0588H132.614C132.49 95.2728 132.345 95.4213 132.17 95.5048C131.969 95.594 131.751 95.6367 131.531 95.6298C131.098 95.6298 130.757 95.4943 130.515 95.223C130.268 94.9513 130.144 94.5724 130.144 94.0862C130.144 93.5855 130.288 93.1911 130.582 92.9018C130.871 92.6131 131.268 92.4682 131.758 92.4682C132.294 92.4682 132.717 92.6586 133.026 93.0395C133.341 93.42 133.495 93.9619 133.495 94.6645C133.495 95.541 133.294 96.2082 132.897 96.6665C132.5 97.1248 131.907 97.354 131.118 97.354C130.904 97.3567 130.691 97.3423 130.479 97.311ZM131.031 94.072C131.031 94.6051 131.273 94.872 131.753 94.872C131.969 94.879 132.181 94.8049 132.345 94.6641C132.418 94.6082 132.477 94.5367 132.518 94.455C132.559 94.3732 132.581 94.2833 132.583 94.1918C132.588 93.9551 132.509 93.7242 132.361 93.5396C132.293 93.4583 132.208 93.3918 132.113 93.3441C132.018 93.2965 131.915 93.2687 131.808 93.2625C131.702 93.2563 131.596 93.2717 131.496 93.3079C131.396 93.3441 131.304 93.4003 131.227 93.4731C131.098 93.6136 131.031 93.8131 131.031 94.072ZM137.512 97.3533C136.965 97.3533 136.553 97.1477 136.274 96.7366C135.996 96.3256 135.857 95.7204 135.857 94.9212C135.857 94.0941 135.996 93.4785 136.269 93.0743C136.542 92.67 136.96 92.468 137.512 92.468C138.615 92.468 139.172 93.2837 139.172 94.9145C139.172 95.7627 139.033 96.3809 138.765 96.7702C138.491 97.1589 138.074 97.3533 137.512 97.3533ZM137.512 96.5603C137.78 96.5603 137.971 96.4315 138.084 96.1741C138.203 95.9168 138.259 95.4971 138.259 94.9145C138.259 94.322 138.203 93.8987 138.084 93.6435C137.971 93.3888 137.78 93.2613 137.512 93.261C137.428 93.2566 137.345 93.2708 137.267 93.3026C137.189 93.3343 137.12 93.3828 137.063 93.4445C136.955 93.5667 136.878 93.7476 136.831 93.9874C136.783 94.2963 136.76 94.6086 136.764 94.9212C136.764 95.4991 136.826 95.9168 136.939 96.1741C137.058 96.4313 137.249 96.5601 137.512 96.5603Z" fill="#20238C"/>
<path fill-rule="evenodd" clip-rule="evenodd" d="M119.553 100.413C119.502 99.7998 120.827 97.6802 121.378 97.3533C121.91 97.0398 122.807 97.84 122.863 98.4533C122.915 99.0669 122.245 100.707 121.693 101.033C121.141 101.36 119.605 101.026 119.553 100.413Z" fill="#FB9C9A"/>
<path fill-rule="evenodd" clip-rule="evenodd" d="M182.807 77.3444C182.807 77.3444 183.89 79.7374 183.106 81.6234C182.9 82.1209 182.415 82.4844 182.024 82.8449C181.018 83.7585 179.755 84.2449 178.667 85.0212C178.342 85.2491 177.652 85.691 177.693 86.1653C177.75 86.7186 178.838 86.4587 179.137 86.3695C180.312 86.0179 181.24 85.6018 181.875 86.5593C182.519 87.5368 182.003 89.9411 181.338 91.5699C181.22 91.8586 180.683 93.0824 181.297 93.2048C181.694 93.2827 182.045 92.8222 182.261 92.5634C182.885 91.8034 183.05 89.2099 183.669 88.4417C183.958 88.0859 184.401 87.6802 184.813 88.3221C186.082 90.3033 184.803 92.3427 183.39 93.0217C181.689 93.8436 181.472 97.9859 181.472 97.9859C181.472 97.9859 185.164 99.1425 186.309 96.1721C188.335 96.8774 192.176 96.3938 192.15 92.4881C195.791 90.979 197.461 85.2661 194.048 83.2898C194.543 83.0491 194.847 82.3452 194.981 81.858C196.378 76.933 190.619 71.4094 185.195 74.4978C183.998 75.1784 183.127 76.0559 182.807 77.3444Z" fill="url(#paint3_linear_28_326)"/>
<path d="M131.797 195.088C141.998 195.088 150.267 186.819 150.267 176.618C150.267 166.416 141.998 158.147 131.797 158.147C121.595 158.147 113.326 166.416 113.326 176.618C113.326 186.819 121.595 195.088 131.797 195.088Z" fill="url(#paint4_linear_28_326)"/>
<path fill-rule="evenodd" clip-rule="evenodd" d="M120.975 178.23L127.09 185.857C127.341 186.17 127.662 186.42 128.026 186.587C128.391 186.755 128.79 186.834 129.191 186.821C129.592 186.807 129.984 186.7 130.336 186.508C130.688 186.315 130.991 186.044 131.22 185.714L142.641 169.257C143.03 168.695 143.181 168.001 143.059 167.328C142.937 166.655 142.553 166.058 141.991 165.669C141.429 165.279 140.735 165.128 140.062 165.25C139.389 165.372 138.792 165.756 138.402 166.318L128.951 179.937L124.997 175.005C124.568 174.476 123.947 174.138 123.269 174.065C122.592 173.992 121.913 174.191 121.382 174.617C120.85 175.043 120.509 175.663 120.433 176.34C120.357 177.017 120.552 177.696 120.975 178.23V178.23Z" fill="white"/>
<path fill-rule="evenodd" clip-rule="evenodd" d="M198.757 105.889C210.719 106.939 228.167 149.065 220.809 160.698C213.447 172.331 167.006 173.532 154.601 175.686C145.176 183.919 141.324 173.677 142.675 173.664C148.677 173.603 148.517 168.79 148.517 168.79C148.517 168.79 148.615 168.286 146.919 166.238C148.79 164.921 152.972 168.723 152.972 168.723C152.972 168.723 197.762 151.493 201.825 148.54C203.846 147.072 191.229 133.463 190.714 119.149C190.538 114.242 191.915 105.288 198.757 105.889Z" fill="url(#paint5_linear_28_326)"/>
<mask id="mask3_28_326" style="mask-type:luminance" maskUnits="userSpaceOnUse" x="142" y="105" width="81" height="74">
<path d="M198.757 105.889C210.719 106.939 228.167 149.065 220.809 160.698C213.447 172.331 167.006 173.532 154.601 175.686C145.176 183.919 141.324 173.677 142.675 173.664C148.677 173.603 148.517 168.79 148.517 168.79C148.517 168.79 148.615 168.286 146.919 166.238C148.79 164.921 152.972 168.723 152.972 168.723C152.972 168.723 197.762 151.493 201.825 148.54C203.846 147.072 191.229 133.463 190.714 119.149C190.538 114.242 191.915 105.288 198.757 105.889Z" fill="white"/>
</mask>
<g mask="url(#mask3_28_326)">
<path fill-rule="evenodd" clip-rule="evenodd" d="M191.111 135.555C192.333 132.227 195.926 127.563 199.732 127.354C201.913 127.234 203.686 128.617 205.738 129.105C210.312 130.195 216.164 128.543 218.376 124.066C221.088 118.588 214.839 112.961 211.302 109.737C206.538 105.402 200.211 100.24 193.349 102.485C192.121 102.885 190.992 103.496 189.946 104.242C188.562 105.235 187.335 106.429 186.305 107.786C185.011 109.474 183.959 111.393 183.294 113.417C182.206 116.748 182.227 120.403 182.928 123.812C183.846 128.235 185.805 132.155 188.394 135.826L191.111 135.555Z" fill="#2A94F4"/>
</g>
<defs>
<linearGradient id="paint0_linear_28_326" x1="30.4556" y1="78.3247" x2="77.9474" y2="159.509" gradientUnits="userSpaceOnUse">
<stop stop-color="#E3DBF9"/>
<stop offset="0.61" stop-color="#D1C1FA"/>
<stop offset="0.82" stop-color="#A685FB"/>
<stop offset="1" stop-color="#7846FD"/>
</linearGradient>
<linearGradient id="paint1_linear_28_326" x1="82.819" y1="102.09" x2="72.9623" y2="119.889" gradientUnits="userSpaceOnUse">
<stop stop-color="#AADBFF"/>
<stop offset="1" stop-color="#0500E3"/>
</linearGradient>
<linearGradient id="paint2_linear_28_326" x1="144.412" y1="110.206" x2="170.744" y2="155.199" gradientUnits="userSpaceOnUse">
<stop stop-color="#FB9C9A"/>
<stop offset="0.63" stop-color="#FC8784"/>
<stop offset="0.83" stop-color="#FD524E"/>
<stop offset="1" stop-color="#FF1712"/>
</linearGradient>
<linearGradient id="paint3_linear_28_326" x1="181.655" y1="96.6234" x2="193.996" y2="73.2166" gradientUnits="userSpaceOnUse">
<stop/>
<stop offset="1" stop-color="#4D4D4D"/>
</linearGradient>
<linearGradient id="paint4_linear_28_326" x1="139.225" y1="158.97" x2="121.226" y2="201.836" gradientUnits="userSpaceOnUse">
<stop stop-color="#AADBFF"/>
<stop offset="0.6" stop-color="#92D1FF"/>
<stop offset="0.81" stop-color="#5BB9FF"/>
<stop offset="1" stop-color="#22A1FF"/>
</linearGradient>
<linearGradient id="paint5_linear_28_326" x1="181.429" y1="154.471" x2="186.646" y2="189.148" gradientUnits="userSpaceOnUse">
<stop stop-color="#FB9C9A"/>
<stop offset="0.47" stop-color="#FC7875"/>
<stop offset="1" stop-color="#FF1712"/>
</linearGradient>
</defs>
</svg>
