<svg width="206" height="206" viewBox="0 0 206 206" fill="none" xmlns="http://www.w3.org/2000/svg">
<path d="M183.727 163.023H49.0304C50.4519 153.557 55.5509 145.636 62.4668 141.528C65.0264 139.992 67.8442 138.983 70.8069 138.613C72.6379 131.06 75.8116 124.204 79.9925 118.444C88.0414 107.366 99.835 100.381 112.976 100.381C131.069 100.381 146.599 113.629 153.343 132.561C154.195 132.455 155.056 132.375 155.927 132.375C168.67 132.375 178.99 144.895 178.99 160.327C178.99 160.484 178.99 160.614 178.98 160.749C180.686 161.183 182.285 161.967 183.727 163.023Z" fill="#0E538C"/>
<path d="M108.302 163.023H169.312C167.702 160.117 164.28 161.018 160.596 160.941C159.908 158.768 158 158.814 153.89 159.483C159.096 154.734 157.472 150.069 148.391 153.11C158.763 138.989 142.684 135.762 140.31 135.48C137.318 135.123 123.565 137.322 130.854 152.026C122.024 148.361 119.608 152.693 126.272 160.316C119.905 160.615 112.276 162.013 108.302 163.023Z" fill="#93BBDF"/>
<path d="M22.2735 163.023H108.34C102.757 161.726 91.1891 160.19 85.9849 160.081C85.0122 157.012 82.3168 157.076 76.5105 158.021C83.8664 151.313 81.5714 144.722 68.7427 149.018C83.3957 129.07 60.6806 124.511 57.3262 124.112C53.0995 123.608 33.6695 126.715 43.9679 147.488C31.4922 142.31 28.0791 148.43 37.4946 159.199C28.4998 159.62 25.3081 160.676 22.2735 163.023Z" fill="#93BBDF"/>
<path d="M133.441 42.7062V158.923C133.441 164.074 129.27 168.245 124.133 168.245H69.9949C64.8435 168.245 60.6727 164.074 60.6727 158.923V42.7062C60.6727 37.5685 64.8435 33.3977 69.9949 33.3977H124.133C129.27 33.3977 133.441 37.5685 133.441 42.7062Z" fill="#91C4F6"/>
<path d="M128.795 42.7111V158.908C128.795 161.057 127.349 162.86 125.373 163.4C124.975 163.511 124.558 163.573 124.13 163.573H69.9986C69.8153 163.573 69.642 163.562 69.4587 163.542C67.1467 163.277 65.3339 161.301 65.3339 158.908V42.7111C65.3339 40.3277 67.1468 38.3417 69.4587 38.0769C69.642 38.0566 69.8153 38.0464 69.9986 38.0464H124.13C124.558 38.0464 124.975 38.1076 125.373 38.2194C127.349 38.7596 128.795 40.5722 128.795 42.7111Z" fill="white"/>
<path d="M108.882 141.223H85.2372C82.7117 141.223 80.6645 143.27 80.6645 145.796C80.6645 148.321 82.7117 150.369 85.2372 150.369H108.882C111.407 150.369 113.455 148.321 113.455 145.796C113.455 143.27 111.407 141.223 108.882 141.223Z" fill="#91C4F6"/>
<path d="M89.8825 146.691H89.3986V147.524H88.5115V144.387H89.9456C90.2288 144.387 90.4757 144.435 90.6846 144.529C90.8939 144.623 91.0552 144.757 91.1684 144.932C91.2822 145.107 91.339 145.312 91.339 145.548C91.339 145.775 91.2859 145.973 91.1796 146.142C91.074 146.311 90.9221 146.443 90.7251 146.538L91.4016 147.524H90.4519L89.8825 146.691ZM90.3039 145.207C90.2113 145.127 90.0738 145.087 89.8919 145.087H89.3986V146.005H89.8919C90.0738 146.005 90.2114 145.966 90.3039 145.886C90.3964 145.808 90.4426 145.694 90.4426 145.548C90.4426 145.402 90.3964 145.288 90.3039 145.207Z" fill="#CDEEFF"/>
<path d="M94.3455 146.838V147.524H91.8273V144.387H94.2874V145.073H92.7057V145.602H94.0992V146.265H92.7057V146.838H94.3455Z" fill="#CDEEFF"/>
<path d="M97.9751 144.387L96.631 147.524H95.757L94.4173 144.387H95.3763L96.2277 146.431L97.0967 144.387H97.9751Z" fill="#CDEEFF"/>
<path d="M98.1595 144.387H99.0466V147.524H98.1595V144.387Z" fill="#CDEEFF"/>
<path d="M102.196 146.838V147.524H99.678V144.387H102.138V145.073H100.556V145.602H101.95V146.265H100.556V146.838H102.196Z" fill="#CDEEFF"/>
<path d="M107.565 144.387L106.548 147.524H105.598L104.997 145.615L104.37 147.524H103.42L102.403 144.387H103.317L103.949 146.39L104.612 144.387H105.428L106.06 146.408L106.718 144.387H107.565Z" fill="#CDEEFF"/>
<path d="M120.836 45.4709L128.783 50.4651L128.865 50.6576V50.6631L128.99 50.9459C129.957 53.0728 133.737 54.8825 137.406 54.8825C139.389 54.8825 140.847 54.3621 141.586 53.5476V50.6576L141.468 50.4709L130.436 45.4709H120.836Z" fill="#2A94F4"/>
<path d="M122.202 54.8816H125.717C128.46 54.8816 130.094 52.4137 129.395 50.7918L120.836 45.47H111.328L116.463 50.7596C116.883 52.3815 119.46 54.8816 122.202 54.8816Z" fill="#FFC439"/>
<path d="M101.82 45.4719L103.445 50.8913C103.63 53.0414 106.805 54.8841 110.513 54.8841C114.231 54.8841 116.921 52.8131 116.365 50.663L111.329 45.4719H101.82Z" fill="#2A94F4"/>
<path d="M95.3083 54.8816H98.8231C101.566 54.8816 103.894 53.1536 103.754 51.5317L101.82 45.47H92.3117L90.4576 51.194C90.3179 52.8158 92.5657 54.8816 95.3083 54.8816Z" fill="#FFC439"/>
<path d="M82.8026 45.4719L77.2359 51.2261C76.6798 53.3763 79.9097 54.8841 83.6182 54.8841C87.3357 54.8841 90.3204 53.1994 90.5058 51.0492L92.3114 45.4719H82.8026Z" fill="#2A94F4"/>
<path d="M68.4141 54.8816H71.9288C74.6716 54.8816 76.8165 52.9283 77.2359 51.3066L82.8031 45.47H73.2958L64.0109 51.3031C63.3119 52.925 65.6715 54.8816 68.4141 54.8816Z" fill="#FFC439"/>
<path d="M52.5428 50.6743V53.5419C53.275 54.3565 54.74 54.8824 56.723 54.8824C60.4403 54.8824 64.2406 53.0385 65.1664 50.8893L65.2632 50.6688V50.6629L65.346 50.4649H65.353L73.2931 45.4707H63.3264L52.6671 50.4707L52.5428 50.6743Z" fill="#2A94F4"/>
<path d="M128.866 50.4707V58.5022C128.866 61.3755 131.719 63.7111 135.229 63.7111C138.746 63.7111 141.586 61.3754 141.586 58.5022V50.6574L141.468 50.4707H128.866Z" fill="#2A94F4"/>
<path d="M103.426 50.4678V58.5038C103.426 61.3753 106.279 63.7101 109.787 63.7101C113.303 63.7101 116.147 61.3753 116.147 58.5038V50.4678H103.426Z" fill="#2A94F4"/>
<path d="M77.9854 50.4678V58.5038C77.9854 61.3753 80.8379 63.7101 84.3458 63.7101C87.8623 63.7101 90.7061 61.3753 90.7061 58.5038V50.4678H77.9854Z" fill="#2A94F4"/>
<path d="M116.147 50.4651V57.4043C116.147 60.8855 118.994 63.7075 122.507 63.7075C126.019 63.7075 128.867 60.8855 128.867 57.4043V50.4651H116.147Z" fill="#DBA12C"/>
<path d="M90.7062 57.4041C90.7062 60.8852 93.5537 63.7072 97.0663 63.7072C100.579 63.7072 103.426 60.8852 103.426 57.4041V50.4648H90.7062V57.4041Z" fill="#DBA12C"/>
<path d="M65.2653 57.4041C65.2653 60.8852 68.1129 63.7072 71.6254 63.7072C75.1382 63.7072 77.9856 60.8852 77.9856 57.4041V50.4648H65.2653V57.4041Z" fill="#DBA12C"/>
<path d="M52.5428 50.6742V58.5022C52.5428 61.3755 55.3964 63.7111 58.9064 63.7111C62.4234 63.7111 65.2632 61.3754 65.2632 58.5022V50.4707H52.6671L52.5428 50.6742Z" fill="#2A94F4"/>
<path d="M82.5342 37.8215H72.9419V45.4709H82.5342V37.8215Z" fill="#DBA12C"/>
<path d="M92.1266 37.8215H82.5343V45.4709H92.1266V37.8215Z" fill="#2A94F4"/>
<path d="M101.719 37.8215H92.1266V45.4709H101.719V37.8215Z" fill="#DBA12C"/>
<path d="M111.311 37.8215H101.719V45.4709H111.311V37.8215Z" fill="#2A94F4"/>
<path d="M120.904 37.8215H111.311V45.4709H120.904V37.8215Z" fill="#DBA12C"/>
<path d="M63.3496 45.3061V45.4708H72.9419V37.8215H70.8341C66.7005 37.8215 63.3496 41.1724 63.3496 45.3061Z" fill="#2A94F4"/>
<path d="M123.012 37.8215H120.904V45.4708H130.496V45.3061C130.496 41.1724 127.145 37.8215 123.012 37.8215Z" fill="#2A94F4"/>
<g opacity="0.5">
<path opacity="0.5" d="M77.8318 112.697H106.555C107.386 112.697 108.06 112.023 108.06 111.191C108.06 110.359 107.386 109.685 106.555 109.685H77.8318C77.0001 109.685 76.3251 110.359 76.3251 111.191C76.3251 112.023 77 112.697 77.8318 112.697Z" fill="#91C4F6"/>
<path d="M111.407 112.697H115.503C116.334 112.697 117.009 112.023 117.009 111.191C117.009 110.359 116.334 109.685 115.503 109.685H111.407C110.576 109.685 109.901 110.359 109.901 111.191C109.901 112.023 110.576 112.697 111.407 112.697Z" fill="#91C4F6"/>
<path d="M84.1053 125.75H77.8318C77.0001 125.75 76.3251 126.424 76.3251 127.255C76.3251 128.088 77.0001 128.762 77.8318 128.762H84.1053C84.9368 128.762 85.6112 128.088 85.6112 127.255C85.6111 126.424 84.9368 125.75 84.1053 125.75Z" fill="#91C4F6"/>
<path opacity="0.5" d="M99.6683 125.75H88.9586C88.1268 125.75 87.4524 126.424 87.4524 127.255C87.4524 128.088 88.1267 128.762 88.9586 128.762H99.6683C100.5 128.762 101.175 128.088 101.175 127.255C101.175 126.424 100.5 125.75 99.6683 125.75Z" fill="#91C4F6"/>
<path d="M115.503 117.717H98.1619C97.3304 117.717 96.656 118.391 96.656 119.223C96.656 120.055 97.3303 120.729 98.1619 120.729H115.503C116.334 120.729 117.009 120.055 117.009 119.223C117.009 118.391 116.334 117.717 115.503 117.717Z" fill="#91C4F6"/>
<path opacity="0.5" d="M77.8318 120.729H93.3087C94.1408 120.729 94.8153 120.055 94.8153 119.223C94.8153 118.391 94.1407 117.717 93.3087 117.717H77.8318C77.0001 117.717 76.3251 118.391 76.3251 119.223C76.3251 120.055 77 120.729 77.8318 120.729Z" fill="#91C4F6"/>
</g>
<path opacity="0.35" d="M123.09 78.9942V97.536C123.09 99.0258 121.696 100.241 119.957 100.241H60.6727V76.2896H119.957C121.696 76.2896 123.09 77.5044 123.09 78.9942Z" fill="#549BEC"/>
<path d="M124.132 70.7117H58.5609C56.9627 70.7117 55.6672 72.0073 55.6672 73.6056V93.1837C55.6672 94.7817 56.9627 96.0775 58.5609 96.0775H124.132C125.73 96.0775 127.025 94.7818 127.025 93.1837V73.6054C127.025 72.0073 125.73 70.7117 124.132 70.7117Z" fill="#FFC439"/>
<path d="M67.4677 77.7437L66.2644 81.4381H62.4165H62.3813L65.5204 83.7157L64.3164 87.4102L67.4677 85.1322L70.5599 87.3745L70.6072 87.4102L69.4034 83.7157L72.4721 81.4971L72.4836 81.4855L72.5429 81.4381H68.6599L67.4677 77.7437Z" fill="#DBA12C"/>
<path d="M79.6673 77.7437L78.464 81.4381H74.6161H74.5811L77.7201 83.7157L76.5162 87.4102L79.6673 85.1322L82.7597 87.3745L82.807 87.4102L81.603 83.7157L84.6718 81.4971L84.6834 81.4855L84.7427 81.4381H80.8597L79.6673 77.7437Z" fill="#DBA12C"/>
<path d="M91.8671 77.7437L90.6638 81.4381H86.8159H86.7807L89.9198 83.7157L88.716 87.4102L91.8671 85.1322L94.9595 87.3745L95.0067 87.4102L93.8029 83.7157L96.8716 81.4971L96.883 81.4855L96.9425 81.4381H93.0594L91.8671 77.7437Z" fill="#DBA12C"/>
<path d="M104.067 77.7437L102.863 81.4381H99.0155H98.9805L102.12 83.7157L100.916 87.4102L104.067 85.1322L107.159 87.3745L107.206 87.4102L106.003 83.7157L109.071 81.4971L109.083 81.4855L109.142 81.4381H105.259L104.067 77.7437Z" fill="#DBA12C"/>
<path opacity="0.25" d="M117.459 81.4381L116.266 77.7437L115.063 81.4381H111.215H111.18L114.319 83.7157L113.115 87.4102L116.266 85.1322L119.359 87.3745L119.406 87.4102L118.202 83.7157L121.271 81.4971L121.283 81.4855L121.342 81.4381H117.459Z" fill="#DBA12C"/>
<path d="M147.589 70.4865C147.579 70.5203 147.572 70.5548 147.562 70.5888C148.04 69.0231 148.824 67.5739 149.881 66.3265C151.739 64.1319 154.555 64.2641 156.427 65.2729C156.425 65.271 156.422 65.2693 156.42 65.2673C156.425 65.2703 156.429 65.2738 156.434 65.2764C156.512 65.3186 156.584 65.3657 156.659 65.4107C157.231 65.7527 157.75 66.1892 158.18 66.7071C158.669 67.2997 159.032 67.9842 159.349 68.6755C159.672 69.3651 159.935 70.0777 160.308 70.7201C160.496 71.0385 160.707 71.3423 160.968 71.5962C161.225 71.8477 161.536 72.0651 161.844 72.2717C163.082 73.1068 164.554 73.5316 165.979 74.032C166.705 74.2791 167.401 74.6116 168.045 75.0225C168.675 75.451 169.277 75.9401 169.727 76.5546C169.226 75.9846 168.615 75.5274 167.969 75.146C167.319 74.7679 166.628 74.4652 165.909 74.2493C165.182 74.0334 164.461 73.7967 163.744 73.5332C163.031 73.2656 162.321 72.9504 161.68 72.5183C161.363 72.2989 161.051 72.0776 160.769 71.795C160.489 71.516 160.267 71.1891 160.074 70.8541C159.693 70.1786 159.434 69.4607 159.145 68.7649C158.896 68.1656 158.608 67.5839 158.245 67.05C159.206 68.7133 159.548 70.773 160.337 71.799C162.156 74.1622 165.76 73.8888 168.779 76.1193C171.904 78.4288 172.262 83.9688 168.256 87.2093C164.481 90.263 155.94 89.4142 151.09 84.0649C147.94 80.5909 146.738 76.6289 147.08 73.0241C146.902 74.5877 146.97 76.1739 147.322 77.7006C147.601 78.8794 148.033 80.0208 148.616 81.0813C149.199 82.1412 149.918 83.1268 150.744 84.0122C151.57 84.8966 152.465 85.7253 153.457 86.422C154.44 87.1289 155.515 87.7068 156.637 88.1662C157.759 88.625 158.937 88.9525 160.14 89.1358C161.34 89.3252 162.568 89.3899 163.783 89.2615C161.36 89.622 158.847 89.2585 156.549 88.3868C154.246 87.5032 152.191 86.0234 150.526 84.2121C148.865 82.3983 147.604 80.1716 147.104 77.7491C146.593 75.3339 146.79 72.7959 147.589 70.4865Z" fill="#11405C"/>
<path d="M148.234 155.68L151.562 162.557L153.773 160.382L152.23 154.108L148.234 155.68Z" fill="#D7A28E"/>
<path d="M153.7 158.112C153.88 157.541 157.166 162.203 156.932 162.56C156.698 162.918 148.613 169.122 147.605 169.337C146.597 169.552 145.436 168.051 146.517 166.869C147.597 165.686 149.923 163.288 149.994 161.687C149.994 161.687 149.57 159.928 149.685 159.65C149.8 159.373 150.618 160.352 150.618 160.352C150.618 160.352 153.268 159.485 153.7 158.112Z" fill="#FFC439"/>
<path d="M147.221 166.109C147.239 166.172 147.386 166.171 147.579 166.233C147.774 166.297 148.017 166.454 148.268 166.677C148.768 167.131 149.122 167.601 149.225 167.538C149.321 167.488 149.121 166.892 148.545 166.365C148.259 166.106 147.905 165.94 147.624 165.941C147.341 165.946 147.203 166.065 147.221 166.109Z" fill="#DBA12C"/>
<path d="M156.652 161.612C156.778 161.767 157.302 162.482 157.052 162.751C156.803 163.019 147.544 169.854 147.391 169.771C147.237 169.688 146.872 169.228 146.775 169.159C146.679 169.091 156.652 161.612 156.652 161.612Z" fill="#11405C"/>
<path d="M150.354 163.533C150.394 163.12 149.475 162.893 149.36 163.039C149.245 163.184 150.315 163.941 150.354 163.533Z" fill="#DBA12C"/>
<path d="M149.741 164.376C149.78 163.962 148.861 163.736 148.746 163.881C148.631 164.026 149.702 164.783 149.741 164.376Z" fill="#DBA12C"/>
<path d="M149.056 165.191C149.096 164.778 148.177 164.551 148.062 164.696C147.947 164.842 149.017 165.598 149.056 165.191Z" fill="#DBA12C"/>
<path d="M152.404 162.494C152.723 162.934 153.339 163.031 153.779 162.712C154.219 162.392 154.316 161.776 153.997 161.336C153.677 160.896 153.061 160.799 152.621 161.119C152.181 161.438 152.084 162.054 152.404 162.494Z" fill="#DBA12C"/>
<path d="M158.339 116.325L147.694 128.919L153.128 155.472L148.695 158.276C148.695 158.276 135.339 130.842 136.555 128.4C137.772 125.958 146.774 107.178 146.774 107.178L159.87 107.771L158.339 116.325Z" fill="#2F627C"/>
<path d="M158.338 116.326L147.696 128.917L153.129 155.469L151.933 156.223L146.642 130.555C146.642 130.555 142.7 131.674 140.953 130.555C139.2 129.436 145.911 128.562 145.911 128.562C145.911 128.562 144.797 128.562 144.442 127.781C144.092 127.006 146.205 126.957 146.205 126.957L151.753 118.734C151.753 118.734 150.246 112.313 149.17 112.439C148.455 112.526 146.025 112.182 144.491 111.942C145.818 109.174 146.773 107.181 146.773 107.181L159.872 107.77L158.338 116.326Z" fill="#11405C"/>
<path d="M160.636 163.827C160.619 164.047 160.57 167.414 160.489 168.345C160.109 168.757 157.801 168.554 157.651 168.063C157.5 167.572 157.691 163.533 157.691 163.533L160.636 163.827Z" fill="#D7A28E"/>
<path d="M160.049 172.33C159.709 172.45 152.645 171.747 151.949 171.692C151.252 171.637 151.718 169.153 153.872 169.273L156.576 167.424C156.729 166.93 156.925 166.385 157.079 166.17C157.359 165.785 158.411 165.82 159.048 166.324C159.344 166.56 159.446 167.012 159.453 167.453C160.137 167.522 160.644 167.643 160.659 168.025C160.679 168.555 160.391 172.21 160.049 172.33Z" fill="#FFC439"/>
<path d="M155.883 170.568C155.846 170.319 154.883 169.174 153.773 169.283C153.773 169.283 154.32 168.601 155.322 169.267C156.062 169.758 155.883 170.568 155.883 170.568Z" fill="#DBA12C"/>
<path d="M159.066 169.679C159.035 170.076 159.251 170.417 159.55 170.44C159.849 170.464 160.116 170.161 160.147 169.765C160.179 169.368 159.962 169.027 159.663 169.004C159.365 168.98 159.097 169.283 159.066 169.679Z" fill="#DBA12C"/>
<path d="M156.883 169.143C156.591 168.947 155.059 168.728 155.417 168.547C155.776 168.366 156.905 168.701 156.97 168.977C157.034 169.252 156.883 169.143 156.883 169.143Z" fill="#DBA12C"/>
<path d="M157.401 168.656C157.109 168.46 155.577 168.241 155.935 168.06C156.294 167.879 157.423 168.214 157.487 168.49C157.552 168.765 157.401 168.656 157.401 168.656Z" fill="#DBA12C"/>
<path d="M157.918 168.169C157.627 167.973 156.095 167.754 156.453 167.573C156.812 167.392 157.941 167.727 158.006 168.003C158.07 168.278 157.918 168.169 157.918 168.169Z" fill="#DBA12C"/>
<path d="M160.286 171.709C160.286 171.704 157.153 171.607 155.408 171.46C155.213 171.444 155.094 170.932 153.349 170.769C152.142 170.64 151.702 170.99 151.656 171.03C151.57 171.103 151.358 171.844 151.696 171.931C152.033 172.018 159.886 172.711 160.03 172.587C160.313 172.342 160.286 171.709 160.286 171.709Z" fill="#11405C"/>
<path d="M167.227 108.963L161.651 165.501L157.21 164.908L153.443 118.041L150.45 109.89L167.227 108.963Z" fill="#2F627C"/>
<path d="M167.227 108.96L161.652 165.499L160.762 165.379C161.111 161.65 162.788 143.599 162.438 141.502C162.051 139.171 160.363 139.815 159.113 139.106C157.868 138.39 162.182 138.128 162.373 137.26C162.569 136.386 160.948 136.9 159.522 136.381C158.092 135.862 160.948 135.666 162.7 133.847C164.453 132.035 164.841 115.425 164.322 115.36C163.923 115.31 160.211 111.92 158.152 109.463L167.227 108.96Z" fill="#11405C"/>
<path d="M142.927 84.9546L137.921 86.7412L123.325 84.3308L122.426 87.3818C122.426 87.3818 137.526 92.4406 137.982 92.4406C139.507 92.4406 144.443 90.2316 144.443 90.2316L142.927 84.9546Z" fill="#D7A28E"/>
<path d="M118.426 86.2337C118.344 86.0511 118.935 85.713 118.935 85.713C118.935 85.713 118.588 85.5219 118.763 85.1824C118.865 84.9832 119.187 84.8925 119.187 84.8925C119.187 84.8925 118.792 84.6239 118.944 84.2175C119.097 83.8112 119.579 83.8856 119.579 83.8856C119.579 83.8856 119.09 83.3857 119.64 82.9999C120.023 82.7315 120.208 82.7171 120.505 82.8454C120.956 82.7488 121.851 82.6778 122.169 82.8112C122.721 83.0426 123.176 83.7167 123.325 84.3307C123.925 84.5151 124.813 84.8421 124.813 84.8421L123.796 87.7271L122.426 87.3817L119.679 87.0125C119.679 87.0125 118.686 86.5949 118.426 86.2337Z" fill="#D7A28E"/>
<path d="M120.208 86.4733C120.286 85.9862 119.746 85.9391 119.746 85.9391C119.746 85.9391 120.489 86.1576 120.56 85.6435C120.634 85.1069 119.77 84.9576 119.77 84.9576C119.77 84.9576 120.76 85.0581 120.907 84.6326C121.024 84.2959 120.024 83.8593 120.024 83.8593C120.024 83.8593 120.878 84.0028 121.023 83.5724C121.18 83.1072 120.506 82.8453 120.506 82.8453L116.57 81.8264C116.57 81.8264 116.229 82.2685 116.557 82.5682C116.584 82.5933 117.056 82.9077 117.256 82.9899C117.887 83.2486 119.097 83.6863 119.097 83.6863C119.097 83.6863 118.86 83.6921 118.708 83.7819C118.612 83.8388 118.512 84.3555 118.568 84.4543C118.649 84.5946 118.783 84.6737 118.783 84.6737C118.783 84.6737 118.603 84.6786 118.491 84.797C118.428 84.8634 118.366 85.3068 118.394 85.3832C118.449 85.5351 118.577 85.6238 118.577 85.6238C118.577 85.6238 118.387 85.7985 118.392 86.1295C118.398 86.4982 120.144 86.8689 120.208 86.4733Z" fill="#D7A28E"/>
<path d="M120.711 84.0856C120.694 84.1459 120.431 84.1248 120.124 84.0384C119.817 83.952 119.581 83.8331 119.598 83.7727C119.615 83.7123 119.878 83.7334 120.185 83.8198C120.493 83.9063 120.728 84.0251 120.711 84.0856Z" fill="#C18C7C"/>
<path d="M120.183 85.0498C120.166 85.1101 119.971 85.107 119.747 85.043C119.524 84.979 119.357 84.8782 119.374 84.8179C119.391 84.7577 119.586 84.7607 119.81 84.8247C120.033 84.8888 120.2 84.9895 120.183 85.0498Z" fill="#C18C7C"/>
<path d="M120.109 86.028C120.093 86.0885 119.869 86.0798 119.61 86.0088C119.35 85.9378 119.154 85.8312 119.17 85.7707C119.187 85.7103 119.41 85.7189 119.67 85.7899C119.929 85.8609 120.126 85.9675 120.109 86.028Z" fill="#C18C7C"/>
<path d="M120.075 85.0024C120.087 84.9804 120.265 85.0216 120.494 85.224C120.549 85.2772 120.608 85.3421 120.65 85.436C120.695 85.5262 120.695 85.6676 120.646 85.77C120.6 85.8795 120.508 85.9746 120.402 86.0312C120.355 86.0596 120.28 86.0881 120.249 86.0973L120.249 86.0986L120.249 86.0988V86.0989C120.25 86.1004 120.265 86.1252 120.271 86.1384C120.287 86.1703 120.301 86.2034 120.31 86.2383C120.33 86.3075 120.334 86.3817 120.324 86.4512C120.322 86.4821 120.309 86.5244 120.285 86.568C120.267 86.6134 120.228 86.6328 120.198 86.662C120.132 86.7024 120.069 86.7198 120.011 86.7296C119.781 86.7598 119.598 86.724 119.442 86.6949C119.135 86.6286 118.959 86.5474 118.966 86.5183C118.974 86.4868 119.164 86.5122 119.465 86.5359C119.613 86.5451 119.798 86.5581 119.971 86.5242C120.013 86.5148 120.05 86.5001 120.074 86.4836C120.078 86.4728 120.097 86.4697 120.093 86.4597C120.095 86.4551 120.102 86.4468 120.104 86.4216C120.108 86.3816 120.105 86.3414 120.093 86.3011C120.087 86.2808 120.079 86.2608 120.069 86.2409C120.062 86.2277 120.062 86.2281 120.048 86.2045C120.029 86.1804 120.013 86.1567 119.989 86.1326C119.922 86.0649 119.855 85.9977 119.789 85.9314C119.919 85.92 120.061 85.9161 120.16 85.8904C120.231 85.8703 120.254 85.8602 120.297 85.8387C120.374 85.8008 120.428 85.7467 120.46 85.6851C120.534 85.5637 120.462 85.4323 120.38 85.3291C120.21 85.1267 120.057 85.0305 120.075 85.0024Z" fill="#C18C7C"/>
<path d="M123.285 84.5263C123.332 84.5136 123.48 85.1742 123.224 85.9506C123.096 86.3322 122.899 86.6476 122.721 86.8409C122.546 87.0379 122.398 87.1198 122.379 87.0953C122.342 87.0544 122.777 86.6002 123.009 85.879C123.247 85.1639 123.209 84.5288 123.285 84.5263Z" fill="#C18C7C"/>
<path d="M120.177 84.939C120.112 84.6429 119.961 82.8492 120.102 82.7249C120.243 82.6006 121.38 82.4155 121.686 82.4488C121.992 82.4821 122.982 83.1128 123.054 83.9942C123.054 83.9942 122.511 84.9222 121.822 84.5048C121.133 84.0875 120.922 83.6311 120.922 83.6311C120.922 83.6311 120.845 84.9999 120.718 85.038C120.59 85.076 120.177 84.939 120.177 84.939Z" fill="#D7A28E"/>
<path d="M122.675 84.5074C122.682 84.5168 122.644 84.5632 122.548 84.6143C122.454 84.6631 122.294 84.7219 122.086 84.6882C121.984 84.6722 121.875 84.6308 121.771 84.567C121.673 84.5052 121.569 84.4373 121.465 84.3557C121.36 84.2749 121.252 84.1837 121.147 84.079L121.069 83.9978C121.043 83.9707 121.011 83.9323 121.018 83.9419L121.009 83.9351C121.009 83.9351 121.01 83.9452 121.01 83.9469L121.01 83.9689L121 84.0946C120.987 84.2634 120.971 84.4366 120.947 84.6144C120.936 84.6963 120.924 84.777 120.906 84.8593C120.899 84.8997 120.888 84.9419 120.874 84.9858C120.874 85.0023 120.844 85.0433 120.828 85.0721C120.821 85.0896 120.806 85.1002 120.792 85.1114C120.786 85.1191 120.775 85.1184 120.773 85.1329L120.749 85.1455C120.643 85.1646 120.602 85.1541 120.55 85.1493C120.499 85.1429 120.452 85.1337 120.405 85.1241L120.268 85.0919C120.203 85.0736 120.138 85.0555 120.073 85.0375C120.059 85.0018 120.057 84.9552 120.048 84.9151C120.041 84.8708 120.042 84.8641 120.039 84.837L120.028 84.7064C120.023 84.6216 120.018 84.5385 120.014 84.4573C119.999 84.1348 119.998 83.8479 119.999 83.6082C120.003 83.1291 120.033 82.837 120.064 82.8386C120.09 82.8401 120.112 83.1268 120.148 83.6034C120.167 83.8494 120.188 84.1324 120.212 84.4445C120.219 84.5239 120.226 84.6051 120.234 84.688L120.249 84.812L120.256 84.8629L120.257 84.866L120.261 84.8662L120.32 84.8805L120.448 84.908C120.491 84.9161 120.534 84.9238 120.576 84.9283C120.615 84.9334 120.67 84.9337 120.655 84.933C120.656 84.9277 120.652 84.9435 120.66 84.9163C120.669 84.8852 120.678 84.851 120.684 84.8133C120.7 84.7404 120.711 84.6625 120.722 84.5843C120.745 84.4129 120.762 84.2422 120.777 84.0759C120.786 83.958 120.796 83.8417 120.805 83.727C120.815 83.5693 120.826 83.4139 120.836 83.2611C120.947 83.4568 121.043 83.6433 121.129 83.7479L121.222 83.8613L121.292 83.9393C121.386 84.0409 121.484 84.1317 121.58 84.2139C121.675 84.2967 121.77 84.3679 121.859 84.434C121.944 84.4948 122.03 84.5355 122.113 84.5576C122.281 84.6029 122.426 84.5736 122.521 84.5482C122.617 84.5211 122.668 84.4968 122.675 84.5074Z" fill="#C18C7C"/>
<path d="M151.286 79.3232L140.273 84.6843L142.308 91.0223L152.438 89.8431L154.038 85.0494L151.286 79.3232Z" fill="#2A94F4"/>
<path d="M144.443 110.908C144.443 110.908 166.075 113.979 168.036 111.423C169.997 108.867 161.755 79.0465 160.554 78.5325C159.354 78.0185 151.287 79.3234 151.287 79.3234C151.287 79.3234 146.272 99.5113 144.443 110.908Z" fill="#2A94F4"/>
<path d="M168.035 111.423C167.396 112.253 164.688 112.488 161.313 112.428C162.793 111.925 165.785 110.855 165.862 110.413C165.96 109.829 164.158 108.759 163.574 108.371C162.99 107.983 166.151 107.787 166.298 106.034C166.446 104.281 163.912 100.781 161.772 100.001C159.888 99.318 150.224 94.6605 147.936 93.5577C148.002 93.2738 148.062 92.9898 148.133 92.7114L150.333 93.3229L153.282 91.6958L164.19 91.6954L164.464 90.3035C166.844 99.1324 169.181 109.932 168.035 111.423Z" fill="#2A94F4"/>
<path d="M153.021 78.1572C153.142 78.0508 156.542 77.0717 156.727 77.0916C156.912 77.1116 157.355 78.1845 157.518 78.5175C157.68 78.8503 156.938 80.2744 156.507 80.5295C156.075 80.7846 155.016 80.4217 154.69 80.2144C154.69 80.2144 154.06 80.8894 153.329 80.9518C152.597 81.0143 152.464 78.6475 153.021 78.1572Z" fill="#2A94F4"/>
<path d="M153.806 79.2355C154.693 79.3184 156.636 77.6645 156.36 77.0092C156.107 76.4078 155.797 74.678 155.642 73.2734L152.731 75.7459C152.779 76.0625 152.816 79.144 153.806 79.2355Z" fill="#D7A28E"/>
<path d="M155.864 71.5088C155.922 72.2369 155.844 72.9582 155.808 73.4341C155.674 75.2526 152.303 76.6911 152.085 76.6657C151.285 76.5727 149.372 75.4971 149.597 74.0081C149.859 72.2741 150.238 72.0805 150.078 70.4522C150.06 70.2924 150.07 70.1522 150.099 70.0214C150.622 70.0904 152.068 69.8094 152.396 69.3196C152.564 69.9504 154.411 70.2949 155.233 70.0964C155.343 70.4792 155.069 72.1227 155.484 72.1276C155.583 72.1301 155.734 71.8863 155.864 71.5088Z" fill="#D7A28E"/>
<path d="M152.084 76.6672C152.096 76.7372 152.74 76.7035 153.459 76.3638C153.817 76.1962 154.108 75.9689 154.281 75.7699C154.455 75.5686 154.505 75.4066 154.473 75.3876C154.437 75.3643 154.33 75.4756 154.139 75.62C153.947 75.7645 153.668 75.9438 153.333 76.1009C152.664 76.4178 152.065 76.5797 152.084 76.6672Z" fill="#C18C7C"/>
<path d="M155.612 73.2988C156.502 73.8462 157.159 71.7906 156.349 71.4534C156.115 71.3559 155.654 71.321 155.542 71.7869C155.421 72.2895 155.417 73.1789 155.612 73.2988Z" fill="#D7A28E"/>
<path d="M156.139 71.834C155.951 71.9845 155.611 72.4891 155.849 72.8607C155.849 72.8607 155.842 72.6074 155.973 72.4501L156.308 72.2875L155.969 72.2708L156.139 71.834Z" fill="#11405C"/>
<path d="M151.887 72.343C152.045 72.4016 151.561 72.9906 151.87 73.0433C152.179 73.0958 151.679 73.2248 151.613 72.9811C151.547 72.7374 151.746 72.2912 151.887 72.343Z" fill="#11405C"/>
<path d="M152.917 71.8743C152.852 72.0502 152.932 72.2425 153.096 72.3039C153.26 72.3654 153.447 72.2728 153.513 72.097C153.578 71.9211 153.498 71.7287 153.334 71.6672C153.17 71.6057 152.983 71.6984 152.917 71.8743Z" fill="#11405C"/>
<path d="M152.989 71.8161C152.971 71.8756 152.996 71.9358 153.046 71.9508C153.095 71.9656 153.15 71.9297 153.168 71.8703C153.186 71.8108 153.16 71.7504 153.111 71.7355C153.062 71.7206 153.007 71.7567 152.989 71.8161Z" fill="white"/>
<path d="M154.297 71.5297C154.386 71.5486 154.484 71.3105 154.407 71.2608C154.407 71.2608 153.069 70.6005 152.835 70.7923C152.835 70.7923 152.792 70.9637 152.805 71.0197C152.825 71.1079 152.935 71.2207 153.082 71.252L154.297 71.5297Z" fill="#11405C"/>
<path d="M150.689 71.6566C150.696 71.8442 150.843 71.9918 151.018 71.9859C151.194 71.9801 151.331 71.8234 151.325 71.6356C151.318 71.448 151.171 71.3006 150.996 71.3063C150.82 71.3123 150.683 71.469 150.689 71.6566Z" fill="#11405C"/>
<path d="M150.733 71.5757C150.739 71.6374 150.786 71.6835 150.837 71.6784C150.888 71.6734 150.925 71.6192 150.919 71.5576C150.913 71.4956 150.867 71.4497 150.815 71.4547C150.764 71.4597 150.727 71.5138 150.733 71.5757Z" fill="white"/>
<path d="M150.492 70.9075C150.425 70.9043 150.403 70.7344 150.458 70.7079C150.458 70.7079 151.496 70.4596 151.564 70.5849C151.564 70.5849 151.613 70.746 151.609 70.7927C151.601 70.8661 151.525 70.941 151.414 70.9354L150.492 70.9075Z" fill="#11405C"/>
<path d="M152.522 74.2783C151.539 74.4752 151.423 74.1097 151.008 74.126C150.781 74.135 150.669 74.3326 150.75 74.5118C150.75 74.5118 151.138 75.3543 152.27 75.0211C152.984 74.8112 152.739 74.235 152.522 74.2783Z" fill="white"/>
<path d="M167.015 87.6521C167.015 87.6521 170.536 93.2346 170.68 94.1238C170.823 95.0129 166.615 96.0546 165.822 95.048C165.507 94.6476 162.694 90.6451 162.694 90.6451L167.015 87.6521Z" fill="#D7A28E"/>
<path d="M159.392 78.4131L161.342 78.4802C161.342 78.4802 167.78 87.4667 169.085 89.4674C167.16 90.9845 165.183 91.5224 163.442 92.0733C161.709 89.9064 161.632 89.6066 160.656 87.9499C158.775 83.8961 159.392 78.4131 159.392 78.4131Z" fill="#2A94F4"/>
<path d="M159.439 83.7812C159.6 84.6366 161.932 90.6228 163.324 91.9252C163.324 91.9252 161.638 90.8814 160.828 88.6887C160.006 86.4634 159.439 83.7812 159.439 83.7812Z" fill="#2A94F4"/>
<path d="M149.584 81.0931L146.835 72.5735L144.06 81.0931H135.187H135.106L142.345 86.3447L139.568 94.8643L146.835 89.6113L153.966 94.7818L154.075 94.8643L151.299 86.3447L158.375 81.2286L158.401 81.2019L158.538 81.0931H149.584Z" fill="#FFC439"/>
<path d="M145.517 86.0759L145.864 85.5915C146.113 85.8271 146.421 86.0366 146.84 86.0366C147.305 86.0366 147.646 85.742 147.646 85.2376C147.646 84.7399 147.338 84.4583 146.88 84.4583C146.611 84.4583 146.46 84.5303 146.211 84.6943L145.851 84.465L145.976 82.4087H148.202V83.044H146.631L146.546 84.0523C146.722 83.9672 146.88 83.915 147.096 83.915C147.809 83.915 148.405 84.3207 148.405 85.2181C148.405 86.1283 147.704 86.6522 146.938 86.6522C146.264 86.6523 145.825 86.3838 145.517 86.0759Z" fill="#DBA12C"/>
<path d="M151.946 88.938C151.484 89.0071 151.555 89.4773 151.555 89.4773L151.772 90.9149L148.203 90.0248C148.203 90.0248 147.946 90.3341 148.143 90.5364C148.232 90.629 149.937 91.2444 149.937 91.2444L147.553 90.6516C147.553 90.6516 147.325 91.0218 147.551 91.1416C147.659 91.199 149.744 92.0931 149.744 92.0931L147.537 91.4994C147.537 91.4994 147.514 91.9721 147.597 92.0168C148.027 92.2473 149.627 92.9174 149.627 92.9174L148.033 92.4211C148.033 92.4211 147.86 92.7956 148.192 92.9082C148.59 93.0428 150.433 93.9066 151.086 93.9969C151.942 94.1155 154.352 95.1311 154.352 95.1311C154.352 95.1311 155.21 92.4065 155.298 92.1852C154.97 92.0814 153.802 91.6953 153.802 91.6953C153.087 90.9233 152.865 90.0862 151.946 88.938Z" fill="#D7A28E"/>
<path d="M153.802 91.6953C153.802 91.6953 165.864 93.0004 166.406 92.9399C166.948 92.8793 170.92 93.3892 170.707 94.4379C170.495 95.4865 170.504 99.1455 168.117 98.9587C162.517 98.5204 152.829 94.5412 152.829 94.5412L153.932 91.844" fill="#D7A28E"/>
<path d="M159.87 92.3782C159.87 92.3782 166.234 92.6566 168.252 93.1366C168.252 93.1366 165.265 93.8906 159.87 92.3782Z" fill="#C18C7C"/>
<path d="M150.274 91.3146C150.263 91.3544 150.021 91.3229 149.732 91.2448C149.445 91.1664 149.22 91.0707 149.23 91.0311C149.241 90.9914 149.483 91.0228 149.772 91.1012C150.06 91.1796 150.284 91.2751 150.274 91.3146Z" fill="#C18C7C"/>
<path d="M150.121 92.1882C150.108 92.2272 149.881 92.1895 149.615 92.1038C149.348 92.018 149.142 91.9168 149.154 91.8777C149.167 91.8387 149.393 91.8764 149.66 91.9622C149.927 92.048 150.133 92.1491 150.121 92.1882Z" fill="#C18C7C"/>
<path d="M150.046 93.0162C150.034 93.0557 149.844 93.0351 149.62 92.9704C149.396 92.9056 149.224 92.821 149.235 92.7815C149.246 92.7421 149.437 92.7626 149.661 92.8276C149.885 92.8923 150.057 92.9769 150.046 93.0162Z" fill="#C18C7C"/>
<path d="M150.104 92.6784C150.14 92.7056 150.086 92.8169 150.067 92.9488C150.045 93.0812 150.065 93.1964 150.03 93.2158C149.995 93.2401 149.891 93.1109 149.92 92.9263C149.95 92.7421 150.078 92.6526 150.104 92.6784Z" fill="#C18C7C"/>
<path d="M150.182 91.9004C150.217 91.9274 150.163 92.0386 150.144 92.1707C150.122 92.3031 150.142 92.4183 150.107 92.4377C150.072 92.4619 149.968 92.3328 149.997 92.1482C150.027 91.964 150.155 91.8745 150.182 91.9004Z" fill="#C18C7C"/>
<path d="M150.319 91.0745C150.355 91.1015 150.301 91.2128 150.282 91.3448C150.26 91.4771 150.28 91.5923 150.245 91.6119C150.21 91.636 150.106 91.507 150.135 91.3224C150.165 91.138 150.293 91.0485 150.319 91.0745Z" fill="#C18C7C"/>
<path d="M167.618 63.2808C166.413 61.5471 164.874 63.0576 164.874 63.0576C164.874 63.0576 163.335 61.547 162.13 63.2808C160.858 65.11 163.267 67.9228 164.874 68.6814C166.48 67.9228 168.889 65.1101 167.618 63.2808Z" fill="#91C4F6"/>
<path d="M143.703 67.4966C142.912 66.3573 141.9 67.35 141.9 67.35C141.9 67.35 140.889 66.3574 140.097 67.4966C139.261 68.6986 140.845 70.547 141.9 71.0455C142.956 70.5469 144.539 68.6986 143.703 67.4966Z" fill="#CDEEFF"/>
<path d="M41.5414 108.095L44.4012 108.087L44.4164 113.544L41.5571 113.552C41.0924 113.553 40.7147 113.178 40.7134 112.713L40.7021 108.94C40.7005 108.474 41.0763 108.097 41.5414 108.095Z" fill="#91C4F6"/>
<path d="M50.3983 109.833H50.3706L50.3674 108.892C50.3668 108.394 49.961 107.99 49.4618 107.992L46.9271 107.999C46.9271 107.999 47.955 106.558 47.9525 105.637C47.9503 104.812 47.9099 103.72 46.6932 103.723C46.6932 103.723 46.2521 103.996 46.2555 105.235C46.2587 106.379 43.904 108.081 43.904 108.081L43.92 113.722C43.92 113.722 44.4378 114.2 45.249 114.198L48.9172 114.187C49.4366 114.186 49.8565 113.764 49.855 113.245L49.8534 112.673C50.1587 112.672 50.4058 112.424 50.4046 112.118L50.403 111.454C50.5861 111.454 50.734 111.305 50.7337 111.122L50.7309 110.164C50.7303 109.98 50.5812 109.832 50.3983 109.833Z" fill="#CDEEFF"/>
<path d="M155.045 53.2755L153.017 53.2695L153.007 57.1381L155.034 57.1441C155.363 57.1447 155.631 56.8784 155.632 56.5489L155.64 53.8739C155.641 53.5443 155.374 53.2765 155.045 53.2755Z" fill="#91C4F6"/>
<path d="M148.766 54.5073H148.786L148.788 53.8405C148.788 53.4869 149.076 53.201 149.43 53.2021L151.227 53.2072C151.227 53.2072 150.498 52.1859 150.5 51.5326C150.501 50.9481 150.53 50.1735 151.393 50.1758C151.393 50.1758 151.705 50.3696 151.703 51.248C151.701 52.0585 153.37 53.2656 153.37 53.2656L153.358 57.2646C153.358 57.2646 152.992 57.603 152.416 57.6017L149.816 57.5943C149.448 57.5932 149.15 57.2939 149.151 56.9257L149.152 56.5209C148.936 56.5198 148.761 56.3439 148.761 56.1273L148.763 55.6568C148.633 55.6568 148.528 55.5509 148.528 55.421L148.53 54.7416C148.531 54.6116 148.636 54.5069 148.766 54.5073Z" fill="#CDEEFF"/>
<path d="M68.6752 166.369L48.9222 162.847L52.6903 134.368L69.9615 135.872L68.6752 166.369Z" fill="#91C4F6"/>
<path d="M52.6903 134.368L69.9615 135.872L69.8679 137.154L52.6903 134.368Z" fill="#CDEEFF"/>
<path d="M69.9615 135.872L70.7458 136.544L71.3202 135.99L72.8754 164.53L71.3471 164.879L68.6752 166.369L69.9615 135.872Z" fill="#549BEC"/>
<path d="M57.112 138.873C57.112 139.286 56.8732 139.62 56.5785 139.62C56.2839 139.62 56.0451 139.286 56.0451 138.873C56.0451 138.461 56.2839 138.126 56.5785 138.126C56.8732 138.126 57.112 138.461 57.112 138.873Z" fill="#549BEC"/>
<path d="M63.8044 139.197C63.8044 139.597 63.5728 139.921 63.2871 139.921C63.0014 139.921 62.7698 139.597 62.7698 139.197C62.7698 138.797 63.0014 138.472 63.2871 138.472C63.5728 138.472 63.8044 138.797 63.8044 139.197Z" fill="#549BEC"/>
<path d="M56.2833 138.855C56.0852 140.019 55.887 141.183 55.6889 142.347C55.5187 143.347 55.2984 144.356 55.2618 145.373C55.196 147.2 56.0814 148.743 57.7728 149.492C58.6308 149.872 59.5796 150.006 60.5124 149.996C61.2112 149.988 62.0333 149.927 62.4762 149.307C62.9783 148.603 62.4772 147.896 61.9831 147.351C61.4051 146.714 60.0502 146.182 60.1027 145.196C60.1387 144.52 60.6627 144.011 61.0958 143.55C61.4521 143.171 61.7898 142.777 62.0997 142.359C62.6579 141.605 63.5583 140.47 63.447 139.471C63.4183 139.213 63.0098 139.21 63.0389 139.471C63.1333 140.319 62.3351 141.337 61.8592 141.999C61.3591 142.695 60.7169 143.262 60.2038 143.943C59.8178 144.455 59.55 145.127 59.7773 145.765C60.0047 146.402 60.6537 146.72 61.1466 147.121C61.4935 147.403 61.8291 147.738 62.0719 148.115C62.4776 148.745 62.1473 149.293 61.4788 149.49C60.6426 149.738 59.5461 149.603 58.72 149.389C56.8322 148.9 55.6231 147.438 55.6664 145.468C55.6894 144.421 55.9253 143.379 56.1005 142.35C56.2926 141.221 56.4847 140.092 56.6769 138.964C56.7207 138.707 56.3274 138.596 56.2833 138.855Z" fill="#CDEEFF"/>
<path d="M34.4068 150.793L50.3987 147.395L66.3905 149.742L50.6803 155.159L34.4068 150.793Z" fill="#FFC439"/>
<path d="M51.115 171.443L66.6793 167.642L66.3905 149.742L50.6252 153.096L51.115 171.443Z" fill="#DBA12C"/>
<path opacity="0.5" d="M41.5626 149.273L46.5661 148.239L60.7386 150.852L60.9106 154.448L58.9411 155.057L58.5758 154.471L58.3847 155.302L56.8809 155.822L56.8307 151.97L41.5626 149.273Z" fill="#CDEEFF"/>
<path opacity="0.5" d="M58.5899 169.624L58.5809 166.831L59.5464 166.644L59.759 166.985L59.8702 166.507L62.3957 165.791L62.6919 168.62L58.5899 169.624Z" fill="#CDEEFF"/>
<path d="M34.4068 150.793L34.9209 169.18L51.115 171.442L50.6252 153.096L34.4068 150.793Z" fill="#FFC439"/>
<path d="M34.4068 150.793L50.6252 153.096C50.6252 153.096 45.5651 153.691 42.2047 153.096C38.8444 152.501 34.4068 150.793 34.4068 150.793Z" fill="#DBA12C"/>
<path d="M56.8307 155.104L69.4839 152.416L82.1371 154.272L69.7068 158.559L56.8307 155.104Z" fill="#FFC439"/>
<path d="M70.0507 171.442L82.3657 168.435L82.1371 154.272L69.6632 156.926L70.0507 171.442Z" fill="#DBA12C"/>
<path opacity="0.5" d="M62.4926 153.901L66.4516 153.083L77.6652 155.15L77.8013 157.996L76.2429 158.478L75.954 158.014L75.8027 158.671L74.6129 159.083L74.5732 156.035L62.4926 153.901Z" fill="#CDEEFF"/>
<path opacity="0.5" d="M75.9651 170.003L75.958 167.794L76.7219 167.646L76.8901 167.915L76.9781 167.538L78.9764 166.971L79.2108 169.209L75.9651 170.003Z" fill="#CDEEFF"/>
<path d="M56.8307 155.104L57.2375 169.652L70.0507 171.442L69.6632 156.926L56.8307 155.104Z" fill="#FFC439"/>
<path d="M56.8307 155.104L69.6632 156.926C69.6632 156.926 65.6596 157.397 63.0007 156.926C60.3419 156.455 56.8307 155.104 56.8307 155.104Z" fill="#DBA12C"/>
</svg>
